<svg xmlns:dc="http://purl.org/dc/elements/1.1/" xmlns:cc="http://creativecommons.org/ns#" xmlns:rdf="http://www.w3.org/1999/02/22-rdf-syntax-ns#" xmlns:svg="http://www.w3.org/2000/svg" xmlns="http://www.w3.org/2000/svg" xmlns:sodipodi="http://sodipodi.sourceforge.net/DTD/sodipodi-0.dtd" xmlns:inkscape="http://www.inkscape.org/namespaces/inkscape" viewBox="0 0 16.933333 21.1666675" version="1.1" x="0px" y="0px"><svg:g transform="translate(0,6.35)"><svg:path style="color:#000000;font-style:normal;font-variant:normal;font-weight:normal;font-stretch:normal;font-size:medium;line-height:normal;font-family:sans-serif;font-variant-ligatures:normal;font-variant-position:normal;font-variant-caps:normal;font-variant-numeric:normal;font-variant-alternates:normal;font-feature-settings:normal;text-indent:0;text-align:start;text-decoration:none;text-decoration-line:none;text-decoration-style:solid;text-decoration-color:#000000;letter-spacing:normal;word-spacing:normal;text-transform:none;writing-mode:lr-tb;direction:ltr;text-orientation:mixed;dominant-baseline:auto;baseline-shift:baseline;text-anchor:start;white-space:normal;shape-padding:0;clip-rule:nonzero;display:inline;overflow:visible;visibility:visible;opacity:1;isolation:auto;mix-blend-mode:normal;color-interpolation:sRGB;color-interpolation-filters:linearRGB;solid-color:#000000;solid-opacity:1;vector-effect:none;fill:#000000;fill-opacity:1;fill-rule:nonzero;stroke:none;stroke-width:0.52916664;stroke-linecap:round;stroke-linejoin:round;stroke-miterlimit:4;stroke-dasharray:none;stroke-dashoffset:0;stroke-opacity:1;color-rendering:auto;image-rendering:auto;shape-rendering:auto;text-rendering:auto;enable-background:accumulate" d="m 8.4653742,-2.8608083 c -1.1045852,0 -2.0055602,0.899509 -2.0055602,2.004012 0,1.104503 0.900975,2.005563 2.0055602,2.005563 1.1045878,0 2.0060788,-0.90106 2.0060788,-2.005563 0,-1.104503 -0.901491,-2.004012 -2.0060788,-2.004012 z m 0,0.5271 c 0.8186393,0 1.4769147,0.658429 1.4769121,1.476912 0,0.818484 -0.6582728,1.476396 -1.4769121,1.476396 -0.8186394,0 -1.4763935,-0.657912 -1.4763935,-1.476396 0,-0.818483 0.6577541,-1.476912 1.4763935,-1.476912 z m -5.109247,0.961181 c -0.9306507,0 -1.6872373,0.767612 -1.6872373,1.703255 0,0.935644 0.7565866,1.701189 1.6872373,1.701189 0.9306481,0 1.6877506,-0.765545 1.6877506,-1.701189 0,-0.935643 -0.7571025,-1.703255 -1.6877506,-1.703255 z m 10.2190128,0 c -0.930648,0 -1.687751,0.767612 -1.687751,1.703255 0,0.935644 0.757103,1.701189 1.687751,1.701189 0.93065,0 1.689303,-0.765545 1.689303,-1.701189 0,-0.935643 -0.758653,-1.703255 -1.689303,-1.703255 z m -10.2190128,0.529167 c 0.6418183,0 1.1585839,0.52161 1.1585839,1.174088 0,0.652479 -0.5167656,1.171507 -1.1585839,1.171504 -0.641821,0 -1.1580707,-0.519025 -1.1580707,-1.171504 0,-0.652478 0.5162497,-1.174088 1.1580707,-1.174088 z m 10.2190128,0 c 0.641821,0 1.160137,0.52161 1.160137,1.174088 0,0.652479 -0.518316,1.171507 -1.160137,1.171504 -0.641821,0 -1.158584,-0.519025 -1.158584,-1.171504 0,-0.652478 0.516763,-1.174088 1.158584,-1.174088 z m -5.1097658,2.339909 c -1.6990457,0 -3.0757812,1.375203 -3.0757812,3.07423 v 2.257743 a 0.26460979,0.26460979 0 0 0 0.2656178,0.265618 h 5.6229122 a 0.26460979,0.26460979 0 0 0 0.263551,-0.265618 v -2.257743 c 0,-1.699027 -1.377249,-3.07423 -3.0762998,-3.07423 z m 0,0.529166 c 1.415235,0 2.5471328,1.130197 2.5471328,2.545064 v 1.994194 H 5.9187596 v -1.994194 c 0,-1.414867 1.1313848,-2.545064 2.5466146,-2.545064 z m -5.109247,0.353984 c -1.4164918,0 -2.56211913,1.157335 -2.56211913,2.583823 v 1.865 a 0.26460979,0.26460979 0 0 0 0.26355143,0.265618 h 2.9801793 a 0.26464799,0.26464799 0 0 0 0,-0.529167 H 1.3231747 v -1.601451 c 0,-1.145162 0.903142,-2.054657 2.0329525,-2.054657 0.3408574,0 0.6587067,0.08302 0.9394772,0.230476 A 0.26471155,0.26471155 0 1 0 4.5415849,2.6706367 C 4.1870564,2.4844467 3.7834822,2.3796987 3.3561272,2.3796987 Z m 10.2190128,0 c -0.43574,0 -0.847667,0.109241 -1.207162,0.302307 a 0.26460979,0.26460979 0 1 0 0.252183,0.465088 c 0.284736,-0.152919 0.607433,-0.238229 0.954979,-0.238229 1.129813,0 2.035019,0.909495 2.035019,2.054657 v 1.601451 h -2.71508 a 0.26464799,0.26464799 0 0 0 0,0.529167 h 2.978628 a 0.26460979,0.26460979 0 0 0 0.265618,-0.265618 v -1.865 c 0,-1.426488 -1.147693,-2.583823 -2.564185,-2.583823 z"/></svg:g></svg>