<svg xmlns:inkscape="http://www.inkscape.org/namespaces/inkscape" xmlns:sodipodi="http://sodipodi.sourceforge.net/DTD/sodipodi-0.dtd" xmlns="http://www.w3.org/2000/svg" xmlns:svg="http://www.w3.org/2000/svg" xmlns:rdf="http://www.w3.org/1999/02/22-rdf-syntax-ns#" xmlns:cc="http://creativecommons.org/ns#" xmlns:dc="http://purl.org/dc/elements/1.1/" viewBox="-0.8466666500000001 -1.6933334 18.6266663 22.8600009" version="1.1" x="0px" y="0px"><g><path style="color:#000000;paint-order:fill markers stroke;" d="m 8.4664084,1.0508163 c -3.4757122,0 -6.4848167,2.431955 -7.2241459,5.8377073 A 0.26457494,0.26457494 0 0 0 1.4453452,7.202707 0.26457494,0.26457494 0 0 0 1.7600442,6.9996272 c 0.6873322,-3.1662306 3.4772362,-5.41966 6.7063642,-5.41966 2.9437846,10e-7 5.5557376,1.8802488 6.5001806,4.6724408 -0.443925,0.2246781 -0.750319,0.6861441 -0.750319,1.2159089 0,0.7487533 0.611817,1.3637005 1.359565,1.3637005 0.747751,0 1.357499,-0.6149472 1.357499,-1.3637005 0,-0.7487562 -0.609748,-1.3611155 -1.357499,-1.3611155 -0.03347,0 -0.06684,0.0012 -0.09973,0.0036 C 14.46786,3.0912113 11.6455,1.0508004 8.4664104,1.0507994 Z m 0,2.7578871 c -1.2159748,0 -2.3230344,0.4709446 -3.1511339,1.2401972 a 0.26457494,0.26457494 0 0 0 -0.024285,0.021189 0.26457494,0.26457494 0 0 0 -0.00362,0.0052 c -0.9002412,0.8501203 -1.4629162,2.0557896 -1.4629162,3.391421 0,1.3369463 0.5637067,2.5432234 1.4654984,3.3929724 a 0.26457494,0.26457494 0 0 0 0.00103,0.0016 0.26457494,0.26457494 0 0 0 0.00517,0.0046 c 0.8301208,0.779285 1.9449537,1.256733 3.1702521,1.256733 1.2178902,0 2.3273172,-0.471841 3.1563012,-1.24278 a 0.26457494,0.26457494 0 0 0 0.0217,-0.0186 0.26457494,0.26457494 0 0 0 0.0072,-0.0083 c 0.898072,-0.849379 1.4593,-2.052893 1.4593,-3.3862544 0,-1.3304795 -0.558939,-2.532028 -1.453614,-3.3816021 a 0.26457494,0.26457494 0 0 0 -0.01292,-0.014989 0.26457494,0.26457494 0 0 0 -0.03514,-0.030489 C 10.781779,4.2756841 9.6776287,3.8087034 8.4664084,3.8087034 Z M 8.2421385,4.3724762 V 6.1578438 C 7.8280332,6.1350825 7.422659,6.0490932 7.0386331,5.9061855 7.0941725,5.7530062 7.1543055,5.6086466 7.2184597,5.4746996 7.5149427,4.8556835 7.8802577,4.4825668 8.2421385,4.3724762 Z m 0.5291506,0.028419 C 9.1071542,4.5386701 9.4417599,4.9012341 9.7164233,5.4746976 9.7804904,5.6084596 9.8403611,5.7527242 9.895734,5.9056675 9.5362079,6.0395714 9.1579287,6.1237939 8.7712891,6.152672 Z M 7.1657511,4.5481688 C 7.0070085,4.7505897 6.8642437,4.9862735 6.7399515,5.2457796 6.6730006,5.3855673 6.6109658,5.5337198 6.5534048,5.6886331 6.3183059,5.5645349 6.0941339,5.4183484 5.8852491,5.2493965 6.2627583,4.9442558 6.6953997,4.7049501 7.1657511,4.5481688 Z m 2.6018306,0 C 10.237936,4.7049501 10.670575,4.9442558 11.048085,5.2493965 10.839276,5.4182874 10.615454,5.5650799 10.380447,5.6891491 10.322819,5.5340108 10.260425,5.3857533 10.193382,5.2457796 10.069092,4.9862735 9.9263241,4.7505897 9.7675817,4.5481688 Z M 5.4914869,5.6121555 C 5.7681453,5.8436934 6.0695415,6.0403444 6.3880452,6.2002136 6.2217306,6.7993443 6.1211258,7.4779557 6.1012509,8.2010636 H 4.3598085 C 4.4230126,7.1980382 4.8419017,6.2935187 5.4914869,5.6121555 Z m 5.9503601,0 c 0.649579,0.6813552 1.067949,1.5858957 1.131162,2.5889081 h -1.740924 c -0.01988,-0.7231079 -0.120482,-1.4017193 -0.286797,-2.00085 0.318503,-0.1598692 0.6199,-0.3565202 0.896559,-0.5880581 z m -1.388502,0.8004436 c 0.140529,0.5322268 0.229802,1.1402453 0.24907,1.7884645 H 8.7712891 V 6.6828569 C 9.211791,6.6538377 9.6432604,6.5620655 10.053345,6.4125991 Z m -3.172322,5.16e-4 C 7.3155588,6.5713733 7.774306,6.6647994 8.2421385,6.6875087 V 8.2010636 H 6.6309174 C 6.6503348,7.5530504 6.7400626,6.9452229 6.881023,6.4131151 Z m 8.694812,0.2232352 c 0.460874,0 0.827833,0.3682828 0.827833,0.8319646 0,0.4636809 -0.366959,0.8340317 -0.827833,0.8340317 -0.460869,0 -0.829896,-0.3703508 -0.829896,-0.8340317 0,-0.4636818 0.369027,-0.8319646 0.829896,-0.8319646 z M 1.3595646,8.1013347 c -0.74774532,0 -1.3595650635575,0.6123623 -1.3595650635575,1.3611155 0,0.7487558 0.6118197435575,1.3631818 1.3595650635575,1.3631818 0.032924,0 0.065318,-7.57e-4 0.097665,-0.0031 1.0090214,3.019076 3.8312353,5.060002 7.0091786,5.060002 3.4757128,0 6.4853338,-2.431958 7.2246618,-5.837711 a 0.26457494,0.26457494 0 0 0 -0.203081,-0.3167668 0.26457494,0.26457494 0 0 0 -0.3147,0.2030808 c -0.687332,3.166232 -3.477752,5.421729 -6.7068808,5.421729 -2.9430851,0 -5.5548082,-1.880147 -6.4996648,-4.67244 0.4441002,-0.224992 0.7503197,-0.6876659 0.7503197,-1.2179778 0,-0.7487532 -0.6097507,-1.3611155 -1.3574987,-1.3611155 z m 0,0.5291499 c 0.4608716,0 0.8278322,0.3682838 0.8278322,0.8319656 0,0.4636809 -0.3669606,0.8340318 -0.8278322,0.8340318 -0.46087164,0 -0.83041451,-0.3703509 -0.83041451,-0.8340318 0,-0.4636818 0.36954287,-0.8319656 0.83041451,-0.8319656 z m 3.0002439,0.099737 H 6.1012509 C 6.1209959,9.4538585 6.2216644,10.13308 6.3880452,10.732623 6.0697135,10.8924 5.7685396,11.089308 5.4920028,11.320679 4.841743,10.639281 4.4226399,9.734158 4.3598085,8.7302165 Z m 2.2711089,0 H 8.2421385 V 10.245847 C 7.774306,10.268547 7.3155588,10.361459 6.881023,10.519717 6.7399859,9.9871713 6.6502076,9.3787988 6.6309174,8.7302165 Z m 2.1403717,0 H 10.302415 C 10.283265,9.3792058 10.194028,9.9879732 10.053345,10.520757 9.6432419,10.371264 9.211754,10.279001 8.7712891,10.249975 Z m 2.0607959,0 h 1.741442 c -0.06283,1.0039414 -0.481934,1.9090644 -1.132196,2.5904624 -0.276506,-0.231292 -0.577735,-0.427773 -0.896043,-0.587545 0.166463,-0.599662 0.267047,-1.2790875 0.286797,-2.0029174 z M 8.2421385,10.775514 v 1.783301 C 7.8802577,12.449177 7.5149427,12.077668 7.2184597,11.45865 7.1540991,11.324269 7.0938051,11.179351 7.0381147,11.025614 7.422278,10.882998 7.8278692,10.798172 8.2421385,10.775509 Z m 0.5291506,0.0052 c 0.3867666,0.02877 0.7652866,0.112317 1.1249635,0.245972 -0.055476,0.153328 -0.1156194,0.297941 -0.1798293,0.432002 -0.2746634,0.573464 -0.6092691,0.934499 -0.9451342,1.071737 z m -2.2189162,0.462453 c 0.057735,0.15553 0.1203818,0.303589 0.1875786,0.443885 0.123943,0.258781 0.2660436,0.494274 0.4242517,0.696061 -0.469801,-0.156644 -0.9018259,-0.396101 -1.2789541,-0.70071 0.2086731,-0.168721 0.4322789,-0.315426 0.6671238,-0.439236 z m 3.8280741,0 c 0.235057,0.123874 0.4588,0.270412 0.667638,0.439236 -0.377127,0.304609 -0.809152,0.544066 -1.278953,0.70071 0.1582081,-0.201787 0.300306,-0.43728 0.42425,-0.696061 0.06718,-0.140246 0.129346,-0.288416 0.187065,-0.443885 z" fill="#000000" fill-rule="evenodd" stroke-width="1" stroke-linecap="round" stroke-linejoin="round"/></g></svg>