<svg xmlns="http://www.w3.org/2000/svg" version="1.1" viewBox="-5.0 -10.0 110.0 135.0">
 <path d="m20.383 86.547v0.38672c0 2.3359-1.8945 4.2305-4.2305 4.2305h-6.1523c-2.3359 0-4.2305-1.8945-4.2305-4.2305v-33.848c0-2.3359 1.8945-4.2305 4.2305-4.2305h6.1523c2.3359 0 4.2305 1.8945 4.2305 4.2305v0.38281h14.906c1.8242 0 3.6133 0.48047 5.1953 1.3906l19.395 11.195c2.7266 1.5781 4.0547 4.6445 3.5469 7.5781l20.996-12.121c3.1289-1.8047 7.125-0.73438 8.9297 2.3945 0.86719 1.5 1.1016 3.2852 0.65234 4.9609-0.44922 1.6758-1.543 3.1016-3.0469 3.9688l-32.039 18.496c-6.0703 3.5039-13.465 3.8477-19.836 0.91797l-10.812-4.9727c-1.0586-0.48828-2.2109-0.73828-3.375-0.73828h-4.5156zm-2.3047 0.38281v-33.848c0-1.0625-0.86328-1.9219-1.9258-1.9219h-6.1523c-1.0625 0-1.9219 0.85938-1.9219 1.9219v33.848c0 1.0625 0.85938 1.9219 1.9219 1.9219h6.1523c1.0625 0 1.9258-0.85937 1.9258-1.9219zm2.3047-2.6914h4.5156c1.5 0 2.9766 0.32422 4.3398 0.94922l10.812 4.9727c5.6875 2.6172 12.293 2.3125 17.719-0.82031l32.039-18.496c0.97266-0.5625 1.6797-1.4844 1.9727-2.5703 0.28906-1.0859 0.13672-2.2383-0.42188-3.2109-1.168-2.0234-3.7539-2.7188-5.7812-1.5469l-24.016 13.863c-0.92578 0.99219-2.1172 1.7109-3.4453 2.0703-1.8711 0.5-3.8672 0.23828-5.5469-0.73047l-12.375-7.1445c-0.55078-0.32031-0.74219-1.0234-0.42187-1.5781 0.31641-0.55078 1.0234-0.74219 1.5781-0.42188l12.375 7.1445c1.1484 0.66406 2.5156 0.84375 3.7969 0.5s2.3711-1.1797 3.0352-2.3281c1.3828-2.3906 0.5625-5.4492-1.8281-6.8281l-19.398-11.199c-1.2266-0.70703-2.6211-1.082-4.0391-1.082h-14.906v28.461zm41.594-23.855c-2.1484 0-3.957-1.6094-4.2031-3.7461l-0.33203-2.8672v-0.003906c-0.36719-3.2383-1.8086-6.2734-4.1016-8.6523-2.7852-2.875-4.4922-6.7422-4.4922-10.988 0-8.8477 7.3984-16.047 16.539-16.047s16.539 7.2031 16.539 16.047c0 4.25-1.7031 8.1172-4.4883 10.988-2.2969 2.3789-3.7383 5.4141-4.1055 8.6523v0.003906l-0.33203 2.8672c-0.24219 2.1367-2.0508 3.7461-4.2031 3.7461zm10.273-11.539c0.82422-1.9609 2.0117-3.7695 3.5234-5.3359 2.3789-2.4531 3.8398-5.7578 3.8398-9.3828 0-7.5938-6.3867-13.742-14.23-13.742s-14.23 6.1484-14.23 13.742c0 3.6289 1.4609 6.9297 3.8398 9.3828 1.5117 1.5664 2.7031 3.375 3.5234 5.3359h2.6367v-8.4609h-1.9219c-2.3359 0-4.2305-1.8984-4.2305-4.2305 0-2.3359 1.8945-4.2305 4.2305-4.2305 2.3359 0 4.2305 1.8945 4.2305 4.2305v1.9219h3.8438v-1.9219c0-2.3359 1.8945-4.2305 4.2305-4.2305 2.3359 0 4.2305 1.8945 4.2305 4.2305 0 2.3359-1.8945 4.2305-4.2305 4.2305h-1.9219v8.4609zm-12.953 2.3125c0.19922 0.76953 0.34375 1.5547 0.4375 2.3477l0.33203 2.8711c0.11328 0.97266 0.93359 1.7031 1.9102 1.7031h6.8164c0.97656 0 1.7969-0.73047 1.9102-1.7031l0.33203-2.8672c0.089844-0.79687 0.23438-1.582 0.4375-2.3516zm4.1641-10.77v8.4609h3.8438v-8.4609zm-2.3086-4.2305c0-1.0625-0.86328-1.9219-1.9219-1.9219-1.0625 0-1.9219 0.86328-1.9219 1.9219 0 1.0625 0.86328 1.9219 1.9219 1.9219 1.0625 0 1.9219-0.86328 1.9219-1.9219zm10.387 1.9219c1.0625 0 1.9219-0.86328 1.9219-1.9219 0-1.0625-0.86328-1.9219-1.9219-1.9219-1.0625 0-1.9219 0.86328-1.9219 1.9219 0 1.0625 0.86328 1.9219 1.9219 1.9219zm-7.3086-31.156c0-0.63672 0.51562-1.1562 1.1523-1.1562 0.63672 0 1.1562 0.51953 1.1562 1.1562v6.1523c0 0.63672-0.51562 1.1562-1.1562 1.1562-0.63672 0-1.1523-0.51562-1.1523-1.1562zm-26.539 28.848c-0.63672 0-1.1523-0.51953-1.1523-1.1562s0.51563-1.1562 1.1523-1.1523h6.1562c0.63672 0 1.1523 0.51562 1.1523 1.1523s-0.51562 1.1523-1.1523 1.1562zm49.23 0c-0.63672 0-1.1523-0.51953-1.1523-1.1562s0.51562-1.1562 1.1523-1.1523h6.1523c0.63672 0 1.1562 0.51562 1.1562 1.1523s-0.51562 1.1523-1.1562 1.1562zm-4.4023-15.117c-0.44922 0.44922-1.1797 0.44922-1.6328 0-0.44922-0.45312-0.44922-1.1797 0-1.6328l4.3516-4.3516c0.44922-0.44922 1.1797-0.44922 1.6328 0 0.44922 0.44922 0.44922 1.1836 0 1.6328zm-32.637-1.6328c0.44922 0.45312 0.44922 1.1797 0 1.6328-0.44922 0.44922-1.1797 0.44922-1.6328 0l-4.3516-4.3516c-0.44922-0.44922-0.44922-1.1836 0-1.6328 0.44922-0.44922 1.1797-0.44922 1.6328 0z" fill-rule="evenodd"/></svg>