<svg id="Layer_1" data-name="Layer 1" xmlns="http://www.w3.org/2000/svg" viewBox="0 0 50 50"><defs><style>.cls-1{fill:#010101;fill-rule:evenodd;}</style></defs><path class="cls-1" d="M3,30.91A.93.93,0,1,0,2,30,.93.93,0,0,0,3,30.91Zm0-1.19a.26.26,0,0,1,.26.26A.26.26,0,1,1,3,29.72Zm2.21,1.19A.93.93,0,1,0,4.24,30,.93.93,0,0,0,5.17,30.91Zm0-1.19a.26.26,0,1,1-.26.26A.26.26,0,0,1,5.17,29.72Zm2.2,1.19A.93.93,0,1,0,6.45,30,.93.93,0,0,0,7.37,30.91Zm0-1.19a.26.26,0,1,1-.25.26A.26.26,0,0,1,7.37,29.72ZM9.3,30a.33.33,0,0,1,.33-.33h7.3a.33.33,0,1,1,0,.66H9.63A.33.33,0,0,1,9.3,30ZM21,41.51l-.82-.27s0,0,0,0l.39-.76a.76.76,0,0,0-.14-.88l-.64-.64a.77.77,0,0,0-.55-.22V29.2a1.43,1.43,0,0,0-1.42-1.43H1.55A1.43,1.43,0,0,0,.13,29.2V43.44a1.43,1.43,0,0,0,1.42,1.42h11.2l0,0a.76.76,0,0,0,.14.88l.63.63a.75.75,0,0,0,.88.14l.77-.39,0,0,.27.82a.75.75,0,0,0,.72.52h.9a.76.76,0,0,0,.72-.53l.27-.81,0,0,.77.39a.73.73,0,0,0,.87-.14l.64-.63a.76.76,0,0,0,.14-.88l-.39-.77v0l.82-.27a.75.75,0,0,0,.52-.72v-.9A.73.73,0,0,0,21,41.51ZM1.55,28.44h16.2a.76.76,0,0,1,.76.75v2.33H.8V29.2A.75.75,0,0,1,1.55,28.44Zm0,15.75a.75.75,0,0,1-.75-.75V32.19H18.51V39l-.42.22,0,0-.27-.81a.74.74,0,0,0-.72-.53h-.89a.75.75,0,0,0-.72.53l-.27.81,0,0-.77-.39a.74.74,0,0,0-.88.14l-.64.63a.76.76,0,0,0-.13.88l.39.77,0,0-.82.27a.74.74,0,0,0-.52.72v.89a.75.75,0,0,0,.52.72l.82.27s0,0,0,0l0,.05H1.55ZM20.8,43.12a.1.1,0,0,1-.06.09l-1,.31a.32.32,0,0,0-.21.21,2.14,2.14,0,0,1-.12.28.33.33,0,0,0,0,.29l.46.91a.08.08,0,0,1,0,.1l-.63.64a.09.09,0,0,1-.11,0l-.9-.47a.32.32,0,0,0-.3,0l-.28.11a.35.35,0,0,0-.21.22l-.31,1a.09.09,0,0,1-.08.06h-.9a.11.11,0,0,1-.09-.06l-.31-1a.34.34,0,0,0-.21-.21l-.28-.11a.23.23,0,0,0-.14,0,.42.42,0,0,0-.15,0l-.91.46a.08.08,0,0,1-.1,0l-.64-.64a.09.09,0,0,1,0-.1l.47-.91a.35.35,0,0,0,0-.3,2.33,2.33,0,0,1-.11-.28.36.36,0,0,0-.22-.2l-1-.32a.09.09,0,0,1-.06-.08v-.9a.09.09,0,0,1,.06-.08l1-.32a.35.35,0,0,0,.21-.2c0-.09.07-.19.11-.28a.32.32,0,0,0,0-.3l-.46-.91a.08.08,0,0,1,0-.1l.64-.64a.08.08,0,0,1,.1,0l.91.46a.33.33,0,0,0,.29,0l.28-.12a.32.32,0,0,0,.21-.21l.31-1a.1.1,0,0,1,.09-.06h.9a.08.08,0,0,1,.08.06l.31,1a.34.34,0,0,0,.21.21l.28.12a.35.35,0,0,0,.3,0l.74-.38h0l.15-.08a.09.09,0,0,1,.11,0l.63.63a.09.09,0,0,1,0,.1l-.46.91a.35.35,0,0,0,0,.3,2.14,2.14,0,0,1,.12.28.3.3,0,0,0,.21.2l1,.32a.08.08,0,0,1,.06.08Zm-4.18-2.67a2.23,2.23,0,1,0,2.22,2.22A2.23,2.23,0,0,0,16.62,40.45Zm0,3.78a1.56,1.56,0,1,1,1.56-1.56A1.56,1.56,0,0,1,16.62,44.23ZM3.19,37.44H16.12a.34.34,0,0,0,.33-.34V33.7a.34.34,0,0,0-.33-.34H3.19a.34.34,0,0,0-.34.34v3.4A.34.34,0,0,0,3.19,37.44ZM3.52,34H15.78v2.74H3.52ZM2.85,38.9a.34.34,0,0,1,.34-.33h8.86a.34.34,0,1,1,0,.67H3.19A.34.34,0,0,1,2.85,38.9Zm8.92,1.89a.34.34,0,0,1-.34.34H3.19a.34.34,0,1,1,0-.67h8.24A.34.34,0,0,1,11.77,40.79Zm-.71,1.89a.33.33,0,0,1-.34.33H3.19a.33.33,0,0,1-.34-.33.34.34,0,0,1,.34-.33h7.53A.34.34,0,0,1,11.06,42.68Z"/><path class="cls-1" d="M48.75,3.3h-18a1.22,1.22,0,0,0-1.22,1.21v15a1.22,1.22,0,0,0,1.22,1.22h18A1.22,1.22,0,0,0,50,19.49v-15A1.22,1.22,0,0,0,48.75,3.3Zm-18,.51h18a.7.7,0,0,1,.71.7V6.86H30V4.51A.7.7,0,0,1,30.74,3.81Zm18,16.39h-18a.71.71,0,0,1-.71-.71V7.37H49.47V19.49A.71.71,0,0,1,48.75,20.2Z"/><path class="cls-1" d="M31.2,5.74H39a.26.26,0,0,0,0-.51H31.2a.26.26,0,1,0,0,.51Z"/><path class="cls-1" d="M41.54,5.74h1.2a.26.26,0,0,0,0-.51h-1.2a.26.26,0,1,0,0,.51Z"/><path class="cls-1" d="M44,5.74h1.2a.26.26,0,1,0,0-.51H44a.26.26,0,1,0,0,.51Z"/><path class="cls-1" d="M46.4,5.74h1.2a.26.26,0,1,0,0-.51H46.4a.26.26,0,0,0,0,.51Z"/><path class="cls-1" d="M39.75,9.21H31.46a.52.52,0,0,0-.52.52V18a.52.52,0,0,0,.52.52h8.29a.52.52,0,0,0,.52-.52V9.73A.52.52,0,0,0,39.75,9.21Zm0,8.81a0,0,0,0,1,0,0h-8.3V9.72h8.3Z"/><path class="cls-1" d="M37.06,13.72a1.4,1.4,0,0,0,1.39-1.39v-.05a.25.25,0,0,0-.26-.25h-.88v-.84a.26.26,0,0,0-.25-.26,1.4,1.4,0,1,0,0,2.79Z"/><path class="cls-1" d="M37.77,11.9h1.14a.26.26,0,0,0,.26-.26.17.17,0,0,0,0-.07,1.39,1.39,0,0,0-1.39-1.28.25.25,0,0,0-.25.25v1.1A.26.26,0,0,0,37.77,11.9Z"/><path class="cls-1" d="M33.25,15.11h-1a.26.26,0,0,0-.26.26v1.82a.26.26,0,0,0,.26.26h1a.26.26,0,0,0,.25-.26V15.37A.26.26,0,0,0,33.25,15.11Z"/><path class="cls-1" d="M35.13,13.58h-.94a.26.26,0,0,0-.26.26v3.35a.26.26,0,0,0,.26.26h.94a.26.26,0,0,0,.26-.26V13.84A.26.26,0,0,0,35.13,13.58Z"/><path class="cls-1" d="M37,15.11h-.94a.26.26,0,0,0-.26.26v1.82a.26.26,0,0,0,.26.26H37a.26.26,0,0,0,.26-.26V15.37A.26.26,0,0,0,37,15.11Z"/><path class="cls-1" d="M38.91,14.15H38a.25.25,0,0,0-.25.25v2.79a.26.26,0,0,0,.25.26h.95a.26.26,0,0,0,.26-.26V14.4A.26.26,0,0,0,38.91,14.15Z"/><path class="cls-1" d="M47.35,15.32H42a.51.51,0,0,0-.51.51V18a.52.52,0,0,0,.51.52h5.39a.52.52,0,0,0,.51-.52v-2.2A.51.51,0,0,0,47.35,15.32Z"/><path class="cls-1" d="M47.6,10.76H41.7a.26.26,0,0,0,0,.51h5.9a.26.26,0,1,0,0-.51Z"/><path class="cls-1" d="M47.6,12.31H41.7a.26.26,0,0,0,0,.51h5.9a.26.26,0,1,0,0-.51Z"/><path class="cls-1" d="M47.6,13.87H41.7a.25.25,0,0,0-.25.25.26.26,0,0,0,.25.26h5.9a.26.26,0,0,0,.26-.26A.26.26,0,0,0,47.6,13.87Z"/><path class="cls-1" d="M47.6,9.21H41.7a.26.26,0,0,0,0,.51h5.9a.26.26,0,1,0,0-.51Z"/><path class="cls-1" d="M10,3.38a1.09,1.09,0,1,0,1.09,1.09A1.09,1.09,0,0,0,10,3.38ZM8.16,4.47a1.83,1.83,0,1,1,2.2,1.79V7h4.47a3.53,3.53,0,0,1,3.53,3.4h.11a1.35,1.35,0,0,1,1.35,1.34v2.67a1.35,1.35,0,0,1-1.35,1.34h-.13a3.52,3.52,0,0,1-3.51,3.16H12.28a1.8,1.8,0,0,1-.16.38,1.6,1.6,0,1,1,.18-1.13h2.53a2.78,2.78,0,0,0,2.78-2.78V10.53a2.77,2.77,0,0,0-2.78-2.78H5.13a2.78,2.78,0,0,0-2.78,2.78v9.13a.13.13,0,0,0,.21.1l1.5-1.16a2.08,2.08,0,0,1,1.29-.44H7.71a.38.38,0,0,1,0,.75H5.35a1.36,1.36,0,0,0-.83.28L3,20.35a.87.87,0,0,1-1.4-.69V15.75H1.5A1.34,1.34,0,0,1,.15,14.41V11.74A1.34,1.34,0,0,1,1.5,10.4h.11A3.53,3.53,0,0,1,5.13,7H9.61V6.26A1.83,1.83,0,0,1,8.16,4.47ZM.9,11.74a.6.6,0,0,1,.6-.6h.06V15H1.5a.6.6,0,0,1-.6-.6Zm18.17,0a.6.6,0,0,0-.6-.6h-.06V15h.06a.6.6,0,0,0,.6-.6ZM5.86,11.5a1,1,0,1,1,1.94,0v1.7a1,1,0,0,1-1.94,0Zm7.28-1a1,1,0,0,0-1,1v1.7a1,1,0,1,0,1.94,0V11.5A1,1,0,0,0,13.14,10.53Z"/><path class="cls-1" d="M50,37.89V32.33a1.16,1.16,0,0,0-1.17-1.16H33l-.08-.59a1.15,1.15,0,0,0-1.17-1H28.61a1.17,1.17,0,1,0,0,2.33h2.14l1.75,9.92a1.14,1.14,0,0,0,1.17,1H35l.5.63a1.6,1.6,0,0,0-.31.93,1.56,1.56,0,0,0,3.11,0,1.53,1.53,0,0,0-.31-.93l.51-.63h5.83l.51.63a1.53,1.53,0,0,0-.31.93,1.56,1.56,0,0,0,3.11,0,1.6,1.6,0,0,0-.31-.93l.5-.63h1a1.17,1.17,0,1,0,0-2.33H39.54L49,39.06A1.21,1.21,0,0,0,50,37.89Zm-.78-5.56v2.73H44.94V31.94h3.89a.42.42,0,0,1,.39.39ZM34.64,40.46l-.82-4.63h4.12V40Zm4.08-4.63h5.45V39l-5.45.86Zm0-.78V31.94h5.45v3.11Zm-.78-3.11v3.11H33.67l-.55-3.11Zm-.39,12.45a.78.78,0,1,1-1.55,0c0-.12,0-.2,0-.27l.43.5a.45.45,0,0,0,.31.16.36.36,0,0,0,.31-.16l.43-.5C37.52,44.19,37.55,44.27,37.55,44.39Zm-.35-1.17-.42.55-.43-.55L36,42.83h1.48Zm9.69,1.17a.78.78,0,0,1-1.56,0c0-.12,0-.2,0-.27l.43.5a.47.47,0,0,0,.31.16.35.35,0,0,0,.31-.16l.43-.5C46.85,44.19,46.89,44.27,46.89,44.39Zm-.35-1.17-.43.55-.43-.55-.31-.39h1.48Zm2.68-1.55a.37.37,0,0,1-.39.39H33.67a.42.42,0,0,1-.39-.35L31.45,31.48a.38.38,0,0,0-.39-.31H28.61a.37.37,0,0,1-.39-.39.37.37,0,0,1,.39-.39h3.11a.41.41,0,0,1,.39.35L33.94,41a.38.38,0,0,0,.39.31h14.5a.36.36,0,0,1,.39.39Zm-4.28-2.8v-3h4.28v2.06a.41.41,0,0,1-.35.39Z"/></svg>