<svg xmlns="http://www.w3.org/2000/svg" data-name="Layer 51" viewBox="0 0 100 100" x="0px" y="0px"><path d="M90.44,69a4.79,4.79,0,0,0-2.37-.13c-2.17-5.46-8.13-15.8-22.3-17-.34,0-.68,0-1-.06a52.91,52.91,0,0,0,.47-5.3c.08-.39.74-3.28,4.51-10.28,26.12-7.59,21-31.31,21-31.55a1,1,0,0,1,0-.1,1,1,0,0,0-.07-.15,1,1,0,0,0-.17-.27.56.56,0,0,1,0-.08l0,0A1.15,1.15,0,0,0,90,3.77h0a1.38,1.38,0,0,0-.4-.1H89.5C81.9,3.2,73,8.32,68.39,15.87c-3.88,6.31-4.2,13.29-.94,19.29a71.44,71.44,0,0,0-3.71,7.78,15,15,0,0,0-2.93-2.64C53.24,14.09,29.48,19.19,29.24,19.24a1.34,1.34,0,0,0-.39.16l-.06.06a1.24,1.24,0,0,0-.26.25l0,0a.36.36,0,0,0,0,.09,1.39,1.39,0,0,0-.12.28,1,1,0,0,0,0,.17s0,.05,0,.09c-.51,7.62,4.62,16.53,12.2,21.19a20.32,20.32,0,0,0,10.65,3.17,17.86,17.86,0,0,0,8.55-2.19c1.42,1.05,3,2.68,3,3.8a51.86,51.86,0,0,1-.49,5.38C50.81,52.06,42.78,58.6,38.65,63c-8.77,1-13.88,8.52-17.13,13.29-.44.65-.84,1.25-1.23,1.78C16.75,83,8.13,94.12,8.05,94.24a1.24,1.24,0,0,0,1,2H32.53a1.25,1.25,0,0,0,.94-.42l6.15-6.93c3.34,1.25,14.57,5.28,18.66,4.8,4.46-.54,22.24-6.44,23-6.69a1.28,1.28,0,0,0,.55-.37C85,83,92.21,74.23,92.21,71.4A2.53,2.53,0,0,0,90.44,69ZM88.62,7.62c.49,5.6-.2,19.31-17.16,25.4C75.61,25.45,81.38,15.41,88.62,7.62Zm-18.1,9.56c3.6-5.86,10-10.08,15.94-10.89C79,14.46,73.08,24.84,68.91,32.47,66.17,26,68.65,20.22,70.52,17.18ZM41.78,39.44c-6.07-3.73-10.4-10.41-11-16.59L57.31,40.93C50.75,43.84,44.85,41.33,41.78,39.44ZM32.94,21.28c5.91-.34,18.55.93,24.48,16.7Zm32.62,33C78.43,55.4,83.75,64.57,85.71,69.53c-2.59,1.11-5.73,3.44-9,7.3-1.54.41-7.49,1.9-10.65,1.49a58.34,58.34,0,0,1-8.95-2.76C64.81,75.41,67.84,73,69,70.72A5.21,5.21,0,0,0,68.4,65c-1.12-1.12-3.53-1.1-8.32-1.06a104.9,104.9,0,0,1-16.58-.87c-.41-.06-.81-.11-1.2-.14C47,58.64,54.94,53.43,65.56,54.32Zm14.6,30.43c-2.49.82-18.28,6-22.18,6.47-3.33.4-14.32-3.45-18.27-5a1.25,1.25,0,0,0-1.38.33L32,93.75H11.58c2.67-3.47,8.1-10.57,10.74-14.24.4-.54.82-1.16,1.27-1.83,3.7-5.44,9.28-13.65,19.54-12.13a107.07,107.07,0,0,0,17,.9c2.79,0,6,0,6.53.33a2.85,2.85,0,0,1,.1,2.83c-.73,1.48-3.89,4.72-17.47,2.93a1.25,1.25,0,0,0-.63,2.4c.53.22,13.08,5.33,17.14,5.86s11.71-1.58,12-1.67a1.16,1.16,0,0,0,.63-.41c4.41-5.39,8.41-7.4,10.5-7.49.53,0,.75.09.78.16C89.64,72.82,84.74,79.38,80.16,84.75Z"/></svg>