<svg xmlns="http://www.w3.org/2000/svg" width="338" height="63" fill="none" viewBox="0 0 338 63">
  <rect width="337" height="32" x=".5" y="30.5" fill="#003DF5" rx="9.5"/>
  <rect width="337" height="32" x=".5" y="30.5" stroke="#E3E3E3" rx="9.5"/>
  <path fill="#667085" d="m247.612 10.273 2.591 7.346h.102l2.591-7.346h1.108L250.8 19h-1.091l-3.205-8.727h1.108ZM255.227 19v-6.546h1.006V19h-1.006Zm.512-7.636a.715.715 0 0 1-.507-.2.641.641 0 0 1-.209-.482.64.64 0 0 1 .209-.482.715.715 0 0 1 .507-.2c.196 0 .363.067.503.2a.637.637 0 0 1 .213.482.638.638 0 0 1-.213.481.702.702 0 0 1-.503.2Zm6.972 2.556-.903.256a1.706 1.706 0 0 0-.251-.439 1.219 1.219 0 0 0-.444-.358c-.187-.093-.427-.14-.72-.14-.4 0-.734.092-1.001.277-.264.181-.397.413-.397.694 0 .25.091.448.273.593.182.144.466.265.852.362l.972.238c.585.143 1.021.36 1.308.652.287.29.431.664.431 1.121 0 .375-.108.71-.324 1.006a2.151 2.151 0 0 1-.895.699c-.384.17-.83.255-1.338.255-.668 0-1.22-.145-1.658-.434-.437-.29-.714-.713-.831-1.27l.955-.239c.091.352.263.617.515.793.256.176.59.264 1.002.264.469 0 .841-.1 1.116-.298.279-.202.418-.444.418-.725a.762.762 0 0 0-.239-.57c-.159-.157-.403-.273-.733-.35l-1.091-.256c-.599-.142-1.039-.362-1.321-.66-.278-.302-.417-.678-.417-1.13 0-.369.103-.696.311-.98a2.12 2.12 0 0 1 .856-.669 3.011 3.011 0 0 1 1.236-.243c.648 0 1.156.142 1.526.427.372.284.636.659.792 1.125Zm1.634 5.08v-6.546h1.005V19h-1.005Zm.511-7.636a.715.715 0 0 1-.507-.2.645.645 0 0 1-.209-.482c0-.188.07-.348.209-.482a.715.715 0 0 1 .507-.2.7.7 0 0 1 .503.2.637.637 0 0 1 .213.482.638.638 0 0 1-.213.481.7.7 0 0 1-.503.2Zm5.183 1.09v.853h-3.392v-.853h3.392Zm-2.404-1.568h1.006v6.239c0 .284.041.497.124.64a.64.64 0 0 0 .323.28c.134.046.275.069.422.069.111 0 .202-.006.273-.017l.171-.035.204.904a2.035 2.035 0 0 1-.285.077 2.11 2.11 0 0 1-.465.042 2.01 2.01 0 0 1-.835-.183 1.658 1.658 0 0 1-.673-.558c-.177-.25-.265-.566-.265-.946v-6.512Zm6.505 8.25c-.591 0-1.109-.14-1.555-.421a2.868 2.868 0 0 1-1.04-1.18c-.247-.507-.371-1.098-.371-1.774 0-.681.124-1.277.371-1.785.25-.509.597-.904 1.04-1.185.446-.281.964-.422 1.555-.422s1.108.14 1.551.422a2.82 2.82 0 0 1 1.04 1.185c.25.508.375 1.103.375 1.785 0 .677-.125 1.267-.375 1.773-.247.506-.594.9-1.04 1.18-.443.282-.96.422-1.551.422Zm0-.903c.449 0 .819-.115 1.108-.345.29-.23.505-.533.644-.908a3.48 3.48 0 0 0 .209-1.219c0-.437-.07-.845-.209-1.223a2.058 2.058 0 0 0-.644-.916c-.289-.233-.659-.35-1.108-.35-.449 0-.818.117-1.108.35a2.064 2.064 0 0 0-.643.916 3.515 3.515 0 0 0-.209 1.223c0 .438.07.844.209 1.22.139.374.354.677.643.907.29.23.659.345 1.108.345Zm4.501.767v-6.546h.972v.99h.068c.119-.325.335-.588.648-.79a1.906 1.906 0 0 1 1.057-.302c.074 0 .166.002.277.005a3.7 3.7 0 0 1 .251.012v1.023a2.968 2.968 0 0 0-.234-.038c-.12-.02-.246-.03-.38-.03a1.78 1.78 0 0 0-.852.2 1.47 1.47 0 0 0-.801 1.334V19h-1.006Zm7.823 0v-.767l2.881-3.154c.338-.369.616-.69.835-.963.219-.275.381-.534.486-.775.108-.244.162-.5.162-.767 0-.307-.074-.573-.222-.797a1.442 1.442 0 0 0-.596-.52 1.935 1.935 0 0 0-.853-.183c-.335 0-.627.07-.877.209a1.437 1.437 0 0 0-.576.575c-.133.247-.2.537-.2.87h-1.006c0-.512.118-.961.354-1.347a2.46 2.46 0 0 1 .963-.904 2.903 2.903 0 0 1 1.376-.324c.512 0 .965.108 1.36.324.395.216.704.507.929.874.224.366.336.774.336 1.223 0 .32-.058.635-.174.942-.114.304-.313.643-.597 1.018-.281.372-.672.827-1.172 1.364l-1.96 2.096v.069h4.057V19h-5.506Zm8.016-1.116a.738.738 0 0 1-.541-.226.737.737 0 0 1-.226-.542c0-.21.075-.39.226-.54a.737.737 0 0 1 .541-.227c.21 0 .39.076.541.226.151.15.226.331.226.541 0 .14-.036.268-.107.384a.79.79 0 0 1-.277.281.727.727 0 0 1-.383.103Zm0-4.415a.737.737 0 0 1-.541-.226.737.737 0 0 1-.226-.541c0-.21.075-.39.226-.541a.737.737 0 0 1 .541-.226c.21 0 .39.075.541.226.151.15.226.33.226.54 0 .14-.036.268-.107.384a.79.79 0 0 1-.277.281.727.727 0 0 1-.383.103ZM297.035 19v-.767l2.88-3.154c.338-.369.617-.69.835-.963.219-.275.381-.534.486-.775.108-.244.162-.5.162-.767a1.42 1.42 0 0 0-.221-.797 1.439 1.439 0 0 0-.597-.52 1.934 1.934 0 0 0-.852-.183c-.336 0-.628.07-.878.209a1.435 1.435 0 0 0-.575.575 1.796 1.796 0 0 0-.201.87h-1.005c0-.512.118-.961.353-1.347a2.46 2.46 0 0 1 .963-.904 2.904 2.904 0 0 1 1.377-.324c.511 0 .964.108 1.359.324.395.216.705.507.929.874.225.366.337.774.337 1.223 0 .32-.058.635-.175.942-.114.304-.312.643-.597 1.018-.281.372-.671.827-1.171 1.364l-1.961 2.096v.069h4.057V19h-5.505Zm10.112.12c-.642 0-1.189-.175-1.641-.525-.452-.352-.797-.862-1.035-1.53-.239-.67-.358-1.48-.358-2.429 0-.943.119-1.748.358-2.416.241-.67.588-1.182 1.039-1.534.455-.355 1-.533 1.637-.533.636 0 1.18.178 1.632.533.454.352.801.864 1.04 1.534.241.668.362 1.473.362 2.416 0 .95-.119 1.759-.358 2.43-.239.667-.584 1.177-1.036 1.53-.451.349-.998.523-1.64.523Zm0-.938c.636 0 1.13-.307 1.483-.92.352-.614.528-1.49.528-2.626 0-.755-.081-1.399-.243-1.93-.159-.531-.389-.936-.69-1.214a1.524 1.524 0 0 0-1.078-.418c-.631 0-1.124.31-1.479.933-.355.62-.533 1.496-.533 2.63 0 .755.08 1.397.239 1.925.159.529.388.93.686 1.206.301.276.663.414 1.087.414Zm8.182.818v-8.727h2.948c.685 0 1.245.123 1.679.37.438.245.762.576.972.993.21.418.315.884.315 1.398 0 .514-.105.982-.315 1.402a2.34 2.34 0 0 1-.963 1.006c-.435.247-.992.37-1.671.37h-2.113v-.937h2.079c.469 0 .846-.081 1.13-.243.284-.162.49-.38.618-.656a2.2 2.2 0 0 0 .196-.942c0-.35-.066-.662-.196-.937a1.4 1.4 0 0 0-.623-.648c-.287-.16-.667-.239-1.142-.239h-1.858V19h-1.056Zm7.617-8.727h1.261l2.966 7.244h.102l2.966-7.244h1.262V19h-.989v-6.63h-.085L327.701 19h-.954l-2.727-6.63h-.086V19h-.988v-8.727Z"/>
  <path fill="#fff" d="M10.12 40.364V52H8.713V40.364h1.409Zm9.34 2.909v1.136h-4.523v-1.136h4.523Zm-3.205-2.091h1.341V49.5c0 .379.055.663.165.852.113.186.257.31.431.375.179.06.366.091.563.091.148 0 .269-.007.364-.023l.227-.045.273 1.205a2.74 2.74 0 0 1-.381.102c-.163.038-.37.057-.62.057a2.7 2.7 0 0 1-1.113-.245 2.213 2.213 0 0 1-.898-.744c-.235-.333-.352-.754-.352-1.261v-8.682Zm5.95 5.568V52h-1.34V40.364h1.34v4.272h.114c.204-.45.511-.808.92-1.074.413-.268.962-.403 1.648-.403.595 0 1.115.12 1.562.358a2.41 2.41 0 0 1 1.04 1.085c.25.485.375 1.103.375 1.853V52h-1.34v-5.455c0-.693-.18-1.229-.54-1.608-.357-.382-.85-.573-1.484-.573-.439 0-.833.092-1.181.278a2.036 2.036 0 0 0-.819.813c-.197.356-.295.787-.295 1.295ZM29.517 52v-8.727h1.341V52h-1.34Zm.682-10.182a.953.953 0 0 1-.676-.267.858.858 0 0 1-.279-.642c0-.25.093-.464.279-.642a.954.954 0 0 1 .676-.267c.261 0 .485.089.67.267a.85.85 0 0 1 .285.642.85.85 0 0 1-.285.642.934.934 0 0 1-.67.267Zm3.656 4.932V52h-1.34v-8.727h1.295v1.363h.113c.205-.443.515-.799.932-1.068.417-.273.955-.409 1.614-.409.59 0 1.108.121 1.55.364.444.238.789.602 1.035 1.09.246.486.37 1.1.37 1.842V52h-1.342v-5.455c0-.685-.178-1.22-.534-1.602-.356-.386-.845-.58-1.466-.58-.428 0-.81.093-1.147.279a1.993 1.993 0 0 0-.79.813c-.193.356-.29.787-.29 1.295Zm8.469 2.068L42.3 47.16h.273l3.818-3.886h1.659l-4.068 4.113h-.114l-1.545 1.432ZM41.074 52V40.364h1.34V52h-1.34Zm5.545 0-3.41-4.318.955-.932 4.16 5.25h-1.705Zm6.058 0v-8.727h1.34V52h-1.34Zm.681-10.182a.953.953 0 0 1-.676-.267.858.858 0 0 1-.278-.642.86.86 0 0 1 .278-.642.954.954 0 0 1 .676-.267.93.93 0 0 1 .67.267.85.85 0 0 1 .285.642.85.85 0 0 1-.284.642.934.934 0 0 1-.67.267Zm6.111 1.455v1.136h-4.523v-1.136h4.523Zm-3.205-2.091h1.341V49.5c0 .379.055.663.165.852.114.186.258.31.432.375.178.06.366.091.562.091.148 0 .27-.007.364-.023l.227-.045.273 1.205a2.731 2.731 0 0 1-.38.102c-.163.038-.37.057-.62.057a2.7 2.7 0 0 1-1.114-.245 2.213 2.213 0 0 1-.897-.744c-.235-.333-.353-.754-.353-1.261v-8.682Zm5.581-.818v4h-1.25v-4h1.25Zm7.77 4.863-1.205.341a2.235 2.235 0 0 0-.335-.585 1.626 1.626 0 0 0-.591-.477c-.25-.125-.57-.188-.96-.188-.534 0-.98.123-1.335.37-.353.242-.529.55-.529.926 0 .333.121.596.364.79.242.193.621.354 1.136.482l1.296.319c.78.189 1.361.479 1.744.869.382.386.574.884.574 1.494 0 .5-.144.947-.432 1.341-.284.394-.682.705-1.193.932-.512.227-1.106.34-1.784.34-.89 0-1.627-.192-2.21-.579-.584-.386-.953-.95-1.108-1.693l1.272-.318c.121.47.35.822.688 1.057.34.235.786.352 1.335.352.625 0 1.121-.133 1.489-.398.37-.269.556-.59.556-.966 0-.303-.106-.556-.318-.761-.212-.208-.538-.364-.977-.466l-1.455-.34c-.799-.19-1.386-.484-1.76-.882-.372-.401-.558-.903-.558-1.505 0-.493.139-.928.415-1.307a2.82 2.82 0 0 1 1.142-.892c.485-.216 1.034-.324 1.648-.324.863 0 1.541.19 2.034.568.496.38.848.88 1.057 1.5Zm7.645 6.978a3.545 3.545 0 0 1-1.505-.313 2.583 2.583 0 0 1-1.074-.915c-.265-.401-.398-.886-.398-1.454 0-.5.099-.906.296-1.216.197-.315.46-.56.79-.739a4.15 4.15 0 0 1 1.09-.398c.402-.09.805-.162 1.21-.215.53-.069.96-.12 1.29-.154.334-.038.576-.1.728-.187.155-.087.233-.239.233-.455v-.045c0-.561-.154-.997-.46-1.307-.304-.31-.764-.466-1.381-.466-.64 0-1.142.14-1.506.42-.364.28-.62.58-.767.898l-1.273-.454c.227-.53.53-.944.91-1.24a3.411 3.411 0 0 1 1.25-.624 5.19 5.19 0 0 1 1.34-.182c.28 0 .602.034.966.102a3.09 3.09 0 0 1 1.063.404c.344.204.63.513.858.926.227.413.34.966.34 1.659V52h-1.34v-1.182h-.069a2.33 2.33 0 0 1-.454.608c-.212.216-.495.4-.847.551-.352.152-.782.228-1.29.228ZM77.465 51c.53 0 .977-.104 1.34-.313a2.127 2.127 0 0 0 1.114-1.846v-1.227c-.056.068-.181.13-.374.187-.19.053-.41.1-.66.142a29.874 29.874 0 0 1-1.284.17 5.19 5.19 0 0 0-.977.222 1.67 1.67 0 0 0-.727.45c-.182.196-.273.465-.273.806 0 .466.172.818.517 1.057.349.235.79.352 1.324.352Zm10.484-4.25V52h-1.341v-8.727h1.295v1.363h.114c.205-.443.515-.799.932-1.068.416-.273.954-.409 1.613-.409.591 0 1.108.121 1.552.364.443.238.787.602 1.034 1.09.246.486.369 1.1.369 1.842V52h-1.34v-5.455c0-.685-.179-1.22-.535-1.602-.356-.386-.845-.58-1.466-.58-.428 0-.81.093-1.148.279a1.993 1.993 0 0 0-.79.813c-.193.356-.29.787-.29 1.295Zm12.718 1.682v-5.16h1.341V52h-1.341v-1.477h-.091c-.204.443-.522.82-.954 1.13-.432.307-.978.46-1.637.46-.545 0-1.03-.119-1.454-.357-.424-.243-.758-.606-1-1.091-.243-.489-.364-1.104-.364-1.847v-5.545h1.341v5.454c0 .637.178 1.144.534 1.523.36.379.818.568 1.375.568.334 0 .673-.085 1.017-.255.349-.171.64-.432.875-.785.239-.352.358-.8.358-1.346Zm6.793-5.16v1.137h-4.523v-1.136h4.523Zm-3.205-2.09h1.341V49.5c0 .379.055.663.165.852a.85.85 0 0 0 .432.375c.178.06.365.091.562.091.148 0 .269-.007.364-.023l.227-.045.273 1.205a2.733 2.733 0 0 1-.381.102 2.8 2.8 0 0 1-.619.057 2.7 2.7 0 0 1-1.114-.245 2.215 2.215 0 0 1-.898-.744c-.235-.333-.352-.754-.352-1.261v-8.682ZM108.677 52v-8.727h1.295v1.318h.091c.159-.432.447-.782.864-1.051a2.54 2.54 0 0 1 1.409-.404c.098 0 .221.002.369.006s.26.01.335.017v1.364a3.926 3.926 0 0 0-.312-.051 3.08 3.08 0 0 0-.506-.04c-.424 0-.803.089-1.136.267a1.955 1.955 0 0 0-1.068 1.778V52h-1.341Zm5.153 0v-8.727h1.341V52h-1.341Zm.682-10.182a.955.955 0 0 1-.677-.267.86.86 0 0 1-.278-.642.86.86 0 0 1 .278-.642.955.955 0 0 1 .677-.267c.261 0 .484.089.67.267a.851.851 0 0 1 .284.642c0 .25-.095.464-.284.642a.934.934 0 0 1-.67.267Zm5.974 10.364c-.841 0-1.567-.186-2.176-.557a3.742 3.742 0 0 1-1.404-1.568c-.326-.674-.488-1.459-.488-2.352 0-.894.162-1.682.488-2.364.33-.686.788-1.22 1.375-1.602.591-.387 1.28-.58 2.068-.58.455 0 .904.076 1.347.227.443.152.847.398 1.21.739.364.337.654.784.87 1.34.215.558.323 1.243.323 2.058v.568h-6.727v-1.16h5.364c0-.492-.099-.931-.296-1.317a2.223 2.223 0 0 0-.829-.915c-.356-.224-.777-.335-1.262-.335-.534 0-.996.132-1.386.397a2.615 2.615 0 0 0-.892 1.023 3.01 3.01 0 0 0-.313 1.352v.773c0 .66.114 1.218.341 1.676.231.455.552.801.961 1.04.409.235.884.352 1.426.352.352 0 .67-.049.954-.147.288-.103.536-.254.745-.455.208-.205.369-.458.483-.761l1.295.363c-.136.44-.366.826-.687 1.16a3.35 3.35 0 0 1-1.194.772 4.42 4.42 0 0 1-1.596.273Zm6.194-5.432V52h-1.341v-8.727h1.296v1.363h.113c.205-.443.515-.799.932-1.068.417-.273.955-.409 1.614-.409.591 0 1.108.121 1.551.364a2.45 2.45 0 0 1 1.034 1.09c.246.486.369 1.1.369 1.842V52h-1.341v-5.455c0-.685-.178-1.22-.534-1.602-.356-.386-.844-.58-1.466-.58-.428 0-.81.093-1.147.279a1.988 1.988 0 0 0-.79.813c-.193.356-.29.787-.29 1.295Zm11.014-3.477v1.136h-4.523v-1.136h4.523Zm-3.205-2.091h1.341V49.5c0 .379.055.663.165.852.114.186.258.31.432.375.178.06.365.091.562.091.148 0 .269-.007.364-.023l.227-.045.273 1.205a2.733 2.733 0 0 1-.381.102 2.8 2.8 0 0 1-.619.057 2.7 2.7 0 0 1-1.114-.245 2.212 2.212 0 0 1-.897-.744c-.235-.333-.353-.754-.353-1.261v-8.682ZM142.611 52v-8.727h1.341V52h-1.341Zm.682-10.182a.951.951 0 0 1-.676-.267.857.857 0 0 1-.279-.642c0-.25.093-.464.279-.642a.951.951 0 0 1 .676-.267c.261 0 .485.089.67.267.19.178.284.392.284.642s-.094.464-.284.642a.932.932 0 0 1-.67.267Zm8.497 3.41-1.205.34a2.233 2.233 0 0 0-.335-.585 1.628 1.628 0 0 0-.591-.477c-.25-.125-.57-.188-.96-.188-.534 0-.979.123-1.335.37-.353.242-.529.55-.529.926 0 .333.121.596.364.79.242.193.621.354 1.136.482l1.296.319c.78.189 1.361.479 1.744.869.383.386.574.884.574 1.494 0 .5-.144.947-.432 1.341-.284.394-.682.705-1.193.932-.512.227-1.106.34-1.784.34-.89 0-1.627-.192-2.211-.579-.583-.386-.952-.95-1.107-1.693l1.272-.318c.121.47.351.822.688 1.057.341.235.786.352 1.335.352.625 0 1.121-.133 1.489-.398.371-.269.556-.59.556-.966 0-.303-.106-.556-.318-.761-.212-.208-.538-.364-.977-.466l-1.455-.34c-.799-.19-1.386-.484-1.761-.882-.371-.401-.557-.903-.557-1.505 0-.493.139-.928.415-1.307a2.82 2.82 0 0 1 1.142-.892c.485-.216 1.034-.324 1.648-.324.863 0 1.541.19 2.034.568.496.38.848.88 1.057 1.5Zm7.559 0-1.204.34a2.238 2.238 0 0 0-.336-.585 1.628 1.628 0 0 0-.591-.477c-.25-.125-.57-.188-.96-.188-.534 0-.979.123-1.335.37-.352.242-.528.55-.528.926 0 .333.121.596.363.79.243.193.621.354 1.137.482l1.295.319c.78.189 1.362.479 1.744.869.383.386.574.884.574 1.494 0 .5-.144.947-.432 1.341-.284.394-.681.705-1.193.932-.511.227-1.106.34-1.784.34-.89 0-1.627-.192-2.21-.579-.583-.386-.953-.95-1.108-1.693l1.273-.318c.121.47.35.822.687 1.057.341.235.786.352 1.335.352.625 0 1.122-.133 1.489-.398.371-.269.557-.59.557-.966 0-.303-.106-.556-.318-.761-.212-.208-.538-.364-.978-.466l-1.454-.34c-.799-.19-1.387-.484-1.762-.882-.371-.401-.556-.903-.556-1.505 0-.493.138-.928.414-1.307a2.828 2.828 0 0 1 1.142-.892c.485-.216 1.035-.324 1.648-.324.864 0 1.542.19 2.034.568.496.38.849.88 1.057 1.5Zm6.878 3.204v-5.16h1.341V52h-1.341v-1.477h-.091c-.205.443-.523.82-.955 1.13-.432.307-.977.46-1.636.46-.546 0-1.03-.119-1.455-.357-.424-.243-.757-.606-1-1.091-.242-.489-.363-1.104-.363-1.847v-5.545h1.341v5.454c0 .637.178 1.144.534 1.523.359.379.818.568 1.375.568a2.29 2.29 0 0 0 1.017-.255c.348-.171.64-.432.875-.785.238-.352.358-.8.358-1.346Zm6.656 3.75c-.841 0-1.567-.186-2.177-.557a3.74 3.74 0 0 1-1.403-1.568c-.326-.674-.489-1.459-.489-2.352 0-.894.163-1.682.489-2.364.33-.686.788-1.22 1.375-1.602.591-.387 1.28-.58 2.068-.58.455 0 .904.076 1.347.227a3.34 3.34 0 0 1 1.21.739c.364.337.653.784.869 1.34.216.558.324 1.243.324 2.058v.568h-6.727v-1.16h5.364c0-.492-.099-.931-.296-1.317a2.23 2.23 0 0 0-.829-.915c-.356-.224-.777-.335-1.262-.335-.534 0-.996.132-1.386.397a2.615 2.615 0 0 0-.892 1.023 3.01 3.01 0 0 0-.313 1.352v.773c0 .66.114 1.218.341 1.676.231.455.551.801.96 1.04.41.235.885.352 1.427.352.352 0 .67-.049.954-.147.288-.103.536-.254.744-.455.209-.205.37-.458.483-.761l1.296.363a2.87 2.87 0 0 1-.688 1.16 3.344 3.344 0 0 1-1.193.772 4.42 4.42 0 0 1-1.596.273Zm5.83-.091c-.28 0-.521-.1-.721-.301a.983.983 0 0 1-.301-.722c0-.28.1-.52.301-.721a.982.982 0 0 1 .721-.302c.281 0 .521.1.722.302.201.2.301.44.301.721a.96.96 0 0 1-.142.512c-.091.155-.214.28-.369.375a.976.976 0 0 1-.512.136Zm8.625-.091-3.182-11.636h1.432l2.432 9.477h.113l2.477-9.477h1.591l2.478 9.477h.113l2.432-9.477h1.432L195.474 52h-1.454l-2.569-9.273h-.091L188.792 52h-1.454Zm13.433-5.25V52h-1.341V40.364h1.341v4.272h.113c.205-.45.512-.808.921-1.074.413-.268.962-.403 1.647-.403.595 0 1.116.12 1.563.358a2.41 2.41 0 0 1 1.04 1.085c.25.485.375 1.103.375 1.853V52h-1.341v-5.455c0-.693-.18-1.229-.54-1.608-.356-.382-.85-.573-1.483-.573-.439 0-.833.092-1.182.278a2.04 2.04 0 0 0-.818.813c-.197.356-.295.787-.295 1.295Zm9.88 5.455a3.548 3.548 0 0 1-1.506-.313 2.585 2.585 0 0 1-1.073-.915c-.266-.401-.398-.886-.398-1.454 0-.5.098-.906.295-1.216.197-.315.46-.56.79-.739.33-.178.693-.31 1.091-.398.401-.09.805-.162 1.21-.215.53-.069.96-.12 1.29-.154.333-.038.576-.1.727-.187.156-.087.233-.239.233-.455v-.045c0-.561-.153-.997-.46-1.307-.303-.31-.763-.466-1.381-.466-.64 0-1.142.14-1.505.42-.364.28-.62.58-.767.898l-1.273-.454c.227-.53.53-.944.909-1.24a3.411 3.411 0 0 1 1.25-.624 5.184 5.184 0 0 1 1.341-.182c.28 0 .602.034.966.102.367.065.721.2 1.062.404.345.204.631.513.858.926.227.413.341.966.341 1.659V52h-1.341v-1.182h-.068c-.091.19-.242.392-.455.608-.212.216-.494.4-.846.551-.352.152-.782.228-1.29.228Zm.205-1.205c.53 0 .977-.104 1.341-.313a2.131 2.131 0 0 0 1.113-1.846v-1.227c-.057.068-.182.13-.375.187a6.29 6.29 0 0 1-.659.142 29.629 29.629 0 0 1-1.284.17 5.19 5.19 0 0 0-.977.222 1.68 1.68 0 0 0-.728.45c-.181.196-.272.465-.272.806 0 .466.172.818.517 1.057.348.235.79.352 1.324.352Zm9.238-7.727v1.136h-4.523v-1.136h4.523Zm-3.205-2.091h1.341V49.5c0 .379.055.663.165.852.114.186.258.31.432.375.178.06.365.091.562.091.148 0 .269-.007.364-.023l.227-.045.273 1.205a2.733 2.733 0 0 1-.381.102 2.793 2.793 0 0 1-.619.057 2.7 2.7 0 0 1-1.114-.245 2.212 2.212 0 0 1-.897-.744c-.235-.333-.353-.754-.353-1.261v-8.682Zm14.304 4.045-1.205.341a2.206 2.206 0 0 0-.335-.585 1.628 1.628 0 0 0-.591-.477c-.25-.125-.57-.188-.96-.188-.534 0-.979.123-1.335.37-.353.242-.529.55-.529.926 0 .333.121.596.364.79.242.193.621.354 1.136.482l1.296.319c.78.189 1.361.479 1.744.869.383.386.574.884.574 1.494 0 .5-.144.947-.432 1.341-.284.394-.682.705-1.193.932-.511.227-1.106.34-1.784.34-.89 0-1.627-.192-2.21-.579-.584-.386-.953-.95-1.108-1.693l1.272-.318c.122.47.351.822.688 1.057.341.235.786.352 1.335.352.625 0 1.121-.133 1.489-.398.371-.269.557-.59.557-.966 0-.303-.107-.556-.319-.761-.212-.208-.538-.364-.977-.466l-1.454-.34c-.8-.19-1.387-.484-1.762-.882-.371-.401-.557-.903-.557-1.505 0-.493.139-.928.415-1.307a2.82 2.82 0 0 1 1.142-.892c.485-.216 1.034-.324 1.648-.324.864 0 1.542.19 2.034.568.496.38.848.88 1.057 1.5Zm2.718 1.523V52h-1.341V40.364h1.341v4.272h.114c.204-.45.511-.808.92-1.074.413-.268.963-.403 1.648-.403.595 0 1.116.12 1.563.358.447.235.793.597 1.039 1.085.25.485.375 1.103.375 1.853V52h-1.341v-5.455c0-.693-.179-1.229-.539-1.608-.356-.382-.851-.573-1.483-.573-.44 0-.834.092-1.182.278a2.035 2.035 0 0 0-.818.813c-.197.356-.296.787-.296 1.295Zm10.858 5.432c-.788 0-1.479-.188-2.074-.563-.591-.375-1.053-.9-1.386-1.574-.33-.674-.495-1.462-.495-2.363 0-.91.165-1.703.495-2.38.333-.679.795-1.205 1.386-1.58.595-.375 1.286-.563 2.074-.563.788 0 1.477.188 2.068.563.595.375 1.057.901 1.387 1.58.333.677.5 1.47.5 2.38 0 .901-.167 1.69-.5 2.363-.33.675-.792 1.2-1.387 1.574-.591.375-1.28.563-2.068.563Zm0-1.205c.598 0 1.091-.153 1.477-.46.387-.307.673-.71.858-1.21.186-.5.279-1.042.279-1.625 0-.584-.093-1.127-.279-1.63a2.74 2.74 0 0 0-.858-1.222c-.386-.311-.879-.466-1.477-.466-.599 0-1.091.155-1.477.466a2.74 2.74 0 0 0-.858 1.221 4.672 4.672 0 0 0-.279 1.63c0 .584.093 1.126.279 1.626.185.5.471.903.858 1.21.386.307.878.46 1.477.46Zm10.701-2.545v-5.16h1.341V52h-1.341v-1.477h-.091c-.204.443-.522.82-.954 1.13-.432.307-.977.46-1.636.46-.546 0-1.031-.119-1.455-.357-.424-.243-.758-.606-1-1.091-.242-.489-.364-1.104-.364-1.847v-5.545h1.341v5.454c0 .637.178 1.144.534 1.523.36.379.819.568 1.375.568.334 0 .673-.085 1.017-.255.349-.171.641-.432.875-.785.239-.352.358-.8.358-1.346Zm4.338-8.068V52h-1.341V40.364h1.341Zm4.952 11.818c-.728 0-1.37-.184-1.927-.551-.556-.371-.992-.894-1.306-1.569-.315-.677-.472-1.479-.472-2.403 0-.917.157-1.712.472-2.386.314-.675.752-1.195 1.312-1.563.561-.367 1.208-.55 1.943-.55.568 0 1.017.094 1.347.283.333.186.587.398.761.637.178.234.317.428.415.58h.114v-4.296h1.341V52h-1.296v-1.34h-.159a8.7 8.7 0 0 1-.42.601c-.182.239-.442.453-.779.642-.337.186-.786.279-1.346.279Zm.181-1.205c.538 0 .993-.14 1.364-.42.371-.284.653-.676.847-1.176.193-.504.289-1.086.289-1.745 0-.651-.094-1.221-.284-1.71-.189-.492-.469-.875-.841-1.148-.371-.276-.829-.414-1.375-.414-.568 0-1.041.146-1.42.437-.375.288-.657.68-.847 1.176a4.689 4.689 0 0 0-.278 1.66c0 .62.095 1.185.284 1.693.193.503.477.905.852 1.204.379.296.849.443 1.409.443Zm10.952-10.613V52h-1.41V40.364h1.41Zm8.838 11.818c-.727 0-1.369-.184-1.926-.551-.556-.371-.992-.894-1.306-1.569-.315-.677-.472-1.479-.472-2.403 0-.917.157-1.712.472-2.386.314-.675.751-1.195 1.312-1.563.561-.367 1.208-.55 1.943-.55.568 0 1.017.094 1.347.283.333.186.587.398.761.637.178.234.316.428.415.58h.114v-4.296h1.34V52h-1.295v-1.34h-.159a8.77 8.77 0 0 1-.421.601c-.181.239-.441.453-.778.642-.337.186-.786.279-1.347.279Zm.182-1.205c.538 0 .993-.14 1.364-.42.371-.284.653-.676.847-1.176.193-.504.289-1.086.289-1.745 0-.651-.094-1.221-.284-1.71-.189-.492-.47-.875-.841-1.148-.371-.276-.829-.414-1.375-.414-.568 0-1.041.146-1.42.437-.375.288-.657.68-.847 1.176a4.689 4.689 0 0 0-.278 1.66c0 .62.095 1.185.284 1.693.193.503.477.905.852 1.204.379.296.849.443 1.409.443Zm9.206 1.205c-.788 0-1.479-.188-2.074-.563-.591-.375-1.053-.9-1.386-1.574-.33-.674-.495-1.462-.495-2.363 0-.91.165-1.703.495-2.38.333-.679.795-1.205 1.386-1.58.595-.375 1.286-.563 2.074-.563.788 0 1.477.188 2.068.563.595.375 1.057.901 1.387 1.58.333.677.5 1.47.5 2.38 0 .901-.167 1.69-.5 2.363-.33.675-.792 1.2-1.387 1.574-.591.375-1.28.563-2.068.563Zm0-1.205c.598 0 1.091-.153 1.477-.46.387-.307.673-.71.858-1.21.186-.5.279-1.042.279-1.625 0-.584-.093-1.127-.279-1.63a2.74 2.74 0 0 0-.858-1.222c-.386-.311-.879-.466-1.477-.466-.599 0-1.091.155-1.477.466a2.74 2.74 0 0 0-.858 1.221 4.672 4.672 0 0 0-.279 1.63c0 .584.093 1.126.279 1.626.185.5.471.903.858 1.21.386.307.878.46 1.477.46Zm6.951-2.25v-.068c.008-.723.084-1.3.228-1.727.144-.428.348-.775.613-1.04s.584-.51.955-.733a2.97 2.97 0 0 0 .602-.483c.178-.19.318-.407.421-.653.106-.247.159-.52.159-.819a1.75 1.75 0 0 0-.262-.965 1.751 1.751 0 0 0-.699-.631 2.114 2.114 0 0 0-.971-.222c-.311 0-.61.065-.898.194a1.735 1.735 0 0 0-.721.608c-.194.276-.305.638-.336 1.085h-1.432c.031-.644.197-1.195.5-1.654a3.014 3.014 0 0 1 1.211-1.05 3.811 3.811 0 0 1 1.676-.364c.667 0 1.246.132 1.738.397.497.265.879.63 1.148 1.091.273.462.409.989.409 1.58 0 .416-.064.793-.193 1.13a2.795 2.795 0 0 1-.545.904c-.235.265-.519.5-.853.704a3.54 3.54 0 0 0-.801.66 2.078 2.078 0 0 0-.437.812c-.091.314-.14.706-.148 1.176v.068h-1.364Zm.728 3.364a.985.985 0 0 1-.722-.301.983.983 0 0 1-.301-.722c0-.28.1-.52.301-.721a.984.984 0 0 1 .722-.302c.28 0 .52.1.721.302.201.2.301.44.301.721a.96.96 0 0 1-.142.512c-.091.155-.214.28-.369.375a.972.972 0 0 1-.511.136Z"/>
</svg>
