<svg id="Layer_1" data-name="Layer 1" xmlns="http://www.w3.org/2000/svg" viewBox="0 0 25 25"><defs><style>.cls-1{fill:#010101;fill-rule:evenodd;}</style></defs><path class="cls-1" d="M12.53,2.09A1.38,1.38,0,1,0,13.9,3.47,1.38,1.38,0,0,0,12.53,2.09ZM10.21,3.47A2.32,2.32,0,1,1,13,5.74v1h5.68A4.47,4.47,0,0,1,23.15,11h.15A1.71,1.71,0,0,1,25,12.7v3.38a1.71,1.71,0,0,1-1.7,1.71h-.17a4.48,4.48,0,0,1-4.45,4H15.44a1.91,1.91,0,0,1-.21.49,2,2,0,1,1-.74-2.78,2,2,0,0,1,1,1.34h3.22a3.53,3.53,0,0,0,3.53-3.53V11.16a3.53,3.53,0,0,0-3.53-3.53H6.37a3.52,3.52,0,0,0-3.52,3.53V22.74a.15.15,0,0,0,.25.13L5,21.4a2.71,2.71,0,0,1,1.64-.56h3a.48.48,0,0,1,0,.95h-3a1.68,1.68,0,0,0-1.06.36L3.68,23.62a1.1,1.1,0,0,1-1.78-.87v-5H1.76A1.72,1.72,0,0,1,.05,16.08V12.7A1.72,1.72,0,0,1,1.76,11H1.9a4.47,4.47,0,0,1,4.47-4.3h5.68v-1a2.32,2.32,0,0,1-1.84-2.27ZM1,12.7a.76.76,0,0,1,.76-.76h.07v4.9H1.76A.76.76,0,0,1,1,16.08Zm23.05,0a.76.76,0,0,0-.75-.76h-.08v4.9h.08a.76.76,0,0,0,.75-.76ZM7.3,12.39a1.23,1.23,0,0,1,2.46,0v2.15a1.23,1.23,0,0,1-2.46,0Zm9.23-1.23a1.23,1.23,0,0,0-1.23,1.23v2.15a1.23,1.23,0,0,0,2.46,0V12.39A1.23,1.23,0,0,0,16.53,11.16Z"/></svg>