<svg xmlns="http://www.w3.org/2000/svg" width="363" height="85" fill="none" viewBox="0 0 363 85">
  <circle cx="14" cy="15" r="13.5" fill="#fff" stroke="#E3E3E3"/>
  <path fill="#003DF5" d="M17.044 8.913h-6.087a3.038 3.038 0 0 0-3.044 3.031v4.249a3.038 3.038 0 0 0 3.044 3.031h.913a.7.7 0 0 1 .487.244l.913 1.211c.401.536 1.059.536 1.46 0l.913-1.211a.617.617 0 0 1 .488-.244h.913a3.038 3.038 0 0 0 3.043-3.031v-4.249a3.038 3.038 0 0 0-3.043-3.031ZM11.565 15a.607.607 0 0 1-.608-.609.61.61 0 0 1 .608-.608.61.61 0 0 1 .609.608.607.607 0 0 1-.609.609ZM14 15a.607.607 0 0 1-.609-.609.61.61 0 0 1 .609-.608.61.61 0 0 1 .609.608A.607.607 0 0 1 14 15Zm2.435 0a.607.607 0 0 1-.609-.609.61.61 0 0 1 .609-.608.61.61 0 0 1 .609.608.607.607 0 0 1-.61.609Z"/>
  <path fill="#667085" d="M36.415 19h-1.108l3.204-8.727h1.091L42.807 19h-1.108l-2.608-7.347h-.068L36.415 19Zm.409-3.41h4.466v.938h-4.466v-.937Zm9.848 6c-.486 0-.903-.062-1.253-.187a2.659 2.659 0 0 1-.873-.485 2.655 2.655 0 0 1-.55-.64l.8-.562c.092.12.207.256.346.409.14.156.33.291.571.405.244.116.564.174.959.174.528 0 .964-.127 1.308-.383.344-.256.516-.656.516-1.202v-1.33h-.086a4.93 4.93 0 0 1-.315.444 1.789 1.789 0 0 1-.58.464c-.25.134-.587.2-1.014.2a2.731 2.731 0 0 1-1.423-.374 2.63 2.63 0 0 1-.993-1.091c-.241-.477-.362-1.057-.362-1.739 0-.67.118-1.254.354-1.751.236-.5.564-.887.984-1.16.42-.275.906-.413 1.458-.413.426 0 .764.071 1.014.213.252.14.446.299.58.478.136.176.24.32.315.434h.102v-1.04h.971v6.733c0 .563-.127 1.02-.383 1.373a2.184 2.184 0 0 1-1.023.78 3.86 3.86 0 0 1-1.423.25Zm-.034-3.596c.403 0 .744-.092 1.023-.277.278-.184.49-.45.634-.796.145-.347.218-.762.218-1.245a3.39 3.39 0 0 0-.213-1.248 1.874 1.874 0 0 0-.631-.849c-.278-.204-.622-.306-1.031-.306-.426 0-.782.108-1.066.324a1.972 1.972 0 0 0-.635.869 3.36 3.36 0 0 0-.208 1.21c0 .455.07.857.213 1.206.145.347.358.62.639.818.284.196.636.294 1.057.294ZM51.342 19v-6.546h.972v.99h.068c.12-.325.335-.588.648-.79a1.907 1.907 0 0 1 1.057-.302 10.941 10.941 0 0 1 .528.017v1.023a2.99 2.99 0 0 0-.234-.038c-.12-.02-.246-.03-.38-.03-.318 0-.602.067-.852.2a1.47 1.47 0 0 0-.801 1.334V19h-1.006Zm4.465 0v-6.546h1.006V19h-1.006Zm.511-7.636a.715.715 0 0 1-.507-.2.644.644 0 0 1-.208-.482c0-.188.07-.348.208-.482a.715.715 0 0 1 .508-.2.7.7 0 0 1 .502.2.637.637 0 0 1 .213.482.638.638 0 0 1-.213.481.7.7 0 0 1-.502.2ZM65.814 13h-1.057a2.197 2.197 0 0 0-.89-1.38 2.387 2.387 0 0 0-.73-.359 2.909 2.909 0 0 0-.834-.119c-.529 0-1.008.134-1.436.4-.427.268-.766.661-1.019 1.181-.25.52-.375 1.158-.375 1.913 0 .756.125 1.394.375 1.914.253.52.592.913 1.019 1.18.428.267.907.4 1.436.4.29 0 .568-.04.835-.119.267-.08.51-.197.729-.353a2.245 2.245 0 0 0 .89-1.385h1.057a3.52 3.52 0 0 1-.435 1.197 3.274 3.274 0 0 1-1.836 1.458c-.387.127-.8.191-1.24.191-.745 0-1.407-.181-1.986-.545-.58-.364-1.036-.88-1.368-1.551-.332-.67-.499-1.466-.499-2.387 0-.92.166-1.715.499-2.386.332-.67.788-1.188 1.368-1.551.58-.364 1.241-.546 1.986-.546.44 0 .853.064 1.24.192.389.128.74.316 1.052.563.313.244.574.542.784.895.21.349.355.748.435 1.197Zm4.23 6.136c-.59 0-1.109-.14-1.555-.421a2.866 2.866 0 0 1-1.04-1.18c-.247-.507-.37-1.098-.37-1.774 0-.681.123-1.277.37-1.785a2.86 2.86 0 0 1 1.04-1.185c.446-.281.965-.422 1.555-.422.591 0 1.108.14 1.552.422.445.281.792.676 1.04 1.185.25.508.374 1.103.374 1.785 0 .677-.125 1.267-.375 1.773-.247.506-.594.9-1.04 1.18-.443.282-.96.422-1.55.422Zm0-.903c.45 0 .819-.115 1.108-.345.29-.23.505-.533.644-.908s.209-.781.209-1.219c0-.437-.07-.845-.21-1.223a2.06 2.06 0 0 0-.643-.916c-.29-.233-.659-.35-1.108-.35-.448 0-.818.117-1.108.35-.29.233-.504.539-.643.916a3.51 3.51 0 0 0-.209 1.223c0 .438.07.844.209 1.22.14.374.354.677.643.907.29.23.66.345 1.108.345Zm5.507-3.17V19h-1.005v-6.546h.971v1.023h.085c.154-.332.387-.6.7-.8.312-.205.715-.308 1.21-.308.442 0 .83.091 1.163.273.332.179.59.452.775.818.185.364.277.824.277 1.38V19h-1.005v-4.09c0-.515-.134-.916-.401-1.203-.267-.29-.633-.434-1.1-.434-.32 0-.607.07-.86.209-.25.139-.448.342-.593.609-.144.267-.217.59-.217.972Zm7.02 0V19h-1.006v-6.546h.972v1.023h.085c.153-.332.386-.6.699-.8.312-.205.716-.308 1.21-.308.443 0 .83.091 1.163.273.333.179.591.452.776.818.184.364.277.824.277 1.38V19H85.74v-4.09c0-.515-.133-.916-.4-1.203-.267-.29-.634-.434-1.1-.434-.32 0-.608.07-.86.209-.25.139-.448.342-.593.609-.145.267-.217.59-.217.972Zm8.758 4.073c-.63 0-1.175-.139-1.632-.417a2.803 2.803 0 0 1-1.053-1.176c-.244-.506-.366-1.094-.366-1.765 0-.67.122-1.261.366-1.772a2.89 2.89 0 0 1 1.031-1.202c.444-.29.96-.435 1.552-.435.34 0 .677.057 1.01.17.332.114.634.3.907.555.273.253.49.588.652 1.005.162.418.243.932.243 1.543v.426h-5.045v-.87h4.022c0-.369-.074-.698-.221-.988a1.67 1.67 0 0 0-.622-.686 1.743 1.743 0 0 0-.946-.251c-.401 0-.748.1-1.04.298a1.97 1.97 0 0 0-.67.767 2.253 2.253 0 0 0-.234 1.014v.58c0 .494.086.913.256 1.257.173.34.413.6.72.78.307.176.664.264 1.07.264a2.2 2.2 0 0 0 .716-.11c.216-.078.402-.191.558-.342.156-.153.277-.343.362-.57l.972.272c-.102.33-.274.62-.516.87-.241.246-.54.44-.895.579a3.318 3.318 0 0 1-1.197.204Zm6.899 0c-.614 0-1.142-.145-1.585-.434a2.833 2.833 0 0 1-1.023-1.198c-.239-.508-.358-1.09-.358-1.743 0-.664.122-1.251.367-1.76.247-.51.59-.91 1.03-1.197.444-.29.961-.435 1.552-.435.46 0 .875.085 1.244.256.37.17.672.41.908.716.236.307.382.665.439 1.074h-1.006a1.56 1.56 0 0 0-.511-.793c-.262-.233-.614-.35-1.057-.35a1.77 1.77 0 0 0-1.031.307 1.998 1.998 0 0 0-.686.857c-.162.367-.243.797-.243 1.291 0 .506.08.946.238 1.321.162.375.39.667.682.874.296.207.642.311 1.04.311.261 0 .499-.046.712-.136a1.467 1.467 0 0 0 .856-1.006h1.006a2.336 2.336 0 0 1-.422 1.044 2.36 2.36 0 0 1-.882.733c-.364.179-.787.268-1.27.268Zm6.891-6.681v.852h-3.392v-.853h3.392Zm-2.404-1.569h1.006v6.239c0 .284.041.497.123.64a.648.648 0 0 0 .324.28c.134.046.274.069.422.069.111 0 .202-.006.273-.017l.17-.035.205.904a2.017 2.017 0 0 1-.286.077 2.1 2.1 0 0 1-.464.042c-.284 0-.563-.06-.835-.183a1.66 1.66 0 0 1-.674-.558c-.176-.25-.264-.566-.264-.946v-6.512Zm10.121 8.233c-.642 0-1.189-.174-1.641-.524-.451-.352-.797-.862-1.035-1.53-.239-.67-.358-1.48-.358-2.429 0-.943.119-1.748.358-2.416.241-.67.588-1.182 1.04-1.534.454-.355 1-.533 1.636-.533.636 0 1.18.178 1.632.533.455.352.801.864 1.04 1.534.241.668.362 1.473.362 2.416 0 .95-.119 1.759-.358 2.43-.239.667-.584 1.177-1.035 1.53-.452.349-.999.523-1.641.523Zm0-.937c.636 0 1.131-.307 1.483-.92.352-.614.528-1.49.528-2.626 0-.755-.081-1.399-.243-1.93-.159-.531-.389-.936-.69-1.214a1.524 1.524 0 0 0-1.078-.418c-.631 0-1.124.31-1.479.933-.355.62-.532 1.496-.532 2.63 0 .755.079 1.397.238 1.925.159.529.388.93.686 1.206.301.276.664.414 1.087.414Zm4.653.818v-.767l2.881-3.154c.338-.369.617-.69.835-.963.219-.275.381-.534.486-.775.108-.244.162-.5.162-.767a1.414 1.414 0 0 0-.818-1.317 1.934 1.934 0 0 0-.852-.183c-.336 0-.628.07-.878.209a1.444 1.444 0 0 0-.576.575c-.133.247-.2.537-.2.87h-1.006c0-.512.118-.961.354-1.347a2.46 2.46 0 0 1 .963-.904 2.904 2.904 0 0 1 1.377-.324c.511 0 .964.108 1.359.324.395.216.705.507.929.874a2.3 2.3 0 0 1 .337 1.223c0 .32-.059.635-.175.942-.114.304-.313.643-.597 1.018-.281.372-.672.827-1.172 1.364l-1.96 2.096v.069h4.057V19h-5.506Zm8.016-1.116a.738.738 0 0 1-.541-.226.737.737 0 0 1-.226-.542c0-.21.075-.39.226-.54a.737.737 0 0 1 .541-.227.74.74 0 0 1 .541.226c.151.15.226.331.226.541 0 .14-.035.268-.107.384a.79.79 0 0 1-.277.281.727.727 0 0 1-.383.103Zm0-4.415a.737.737 0 0 1-.541-.226.737.737 0 0 1-.226-.541c0-.21.075-.39.226-.541a.737.737 0 0 1 .541-.226c.21 0 .391.075.541.226.151.15.226.33.226.54 0 .14-.035.268-.107.384a.79.79 0 0 1-.277.281.727.727 0 0 1-.383.103Zm5.623-3.196V19h-1.057v-7.62h-.051l-2.131 1.415v-1.073l2.182-1.45h1.057Zm5.305 8.846c-.585 0-1.102-.103-1.551-.31a2.54 2.54 0 0 1-1.044-.866c-.25-.37-.374-.79-.371-1.261a2.314 2.314 0 0 1 .823-1.811c.258-.213.547-.348.865-.405v-.051a1.683 1.683 0 0 1-.997-.703 2.13 2.13 0 0 1-.367-1.24 2.11 2.11 0 0 1 .337-1.19c.227-.349.54-.624.937-.826a3.003 3.003 0 0 1 1.368-.303c.506 0 .958.101 1.355.303.398.202.711.477.938.827.23.35.346.745.349 1.189a2.162 2.162 0 0 1-.379 1.24c-.247.36-.575.595-.984.703v.05a1.8 1.8 0 0 1 .852.406c.253.21.454.473.605.788.151.313.227.653.23 1.023a2.211 2.211 0 0 1-.383 1.261 2.54 2.54 0 0 1-1.044.865c-.444.208-.956.311-1.539.311Zm0-.937c.395 0 .736-.064 1.023-.192.287-.128.508-.308.665-.541.156-.233.236-.506.238-.818a1.567 1.567 0 0 0-.255-.874 1.743 1.743 0 0 0-.686-.596 2.155 2.155 0 0 0-.985-.218c-.372 0-.704.073-.997.218-.29.144-.518.343-.686.596a1.536 1.536 0 0 0-.243.874c-.003.312.073.585.226.818.156.233.379.413.669.541.29.128.634.192 1.031.192Zm0-4.142c.313 0 .59-.063.831-.188a1.42 1.42 0 0 0 .789-1.312 1.46 1.46 0 0 0-.209-.771 1.362 1.362 0 0 0-.567-.512 1.845 1.845 0 0 0-.844-.183 1.89 1.89 0 0 0-.856.183c-.245.12-.434.29-.567.511a1.418 1.418 0 0 0-.196.772c-.003.3.064.564.2.788.139.225.331.4.575.524.245.125.526.188.844.188Zm8.128 4.96v-8.727h2.949c.684 0 1.244.123 1.679.37.437.245.761.576.971.993.21.418.315.884.315 1.398 0 .514-.105.982-.315 1.402a2.34 2.34 0 0 1-.963 1.006c-.435.247-.991.37-1.67.37h-2.114v-.937h2.08c.468 0 .845-.081 1.129-.243.284-.162.49-.38.618-.656a2.2 2.2 0 0 0 .196-.942c0-.35-.066-.662-.196-.937a1.403 1.403 0 0 0-.622-.648c-.287-.16-.668-.239-1.143-.239h-1.857V19h-1.057Zm7.617-8.727h1.261l2.966 7.244h.102l2.966-7.244h1.262V19h-.989v-6.63h-.085L156.934 19h-.955l-2.727-6.63h-.085V19h-.989v-8.727Z"/>
  <rect width="327" height="54" x="35.5" y="30.5" fill="#fff" stroke="#E3E3E3" rx="9.5"/>
  <path fill="#667085" d="M44.508 52V40.364h1.409v5.181h6.204v-5.181h1.41V52h-1.41v-5.205h-6.204V52h-1.41Zm11.662 0v-8.727h1.34V52h-1.34Zm.682-10.182a.953.953 0 0 1-.676-.267.858.858 0 0 1-.279-.642c0-.25.093-.464.279-.642a.953.953 0 0 1 .676-.267c.261 0 .484.089.67.267a.85.85 0 0 1 .284.642.85.85 0 0 1-.284.642.934.934 0 0 1-.67.267Zm11.41 1.455v1.136H63.74v-1.136h4.523Zm-3.204-2.091h1.34V49.5c0 .379.055.663.165.852.114.186.258.31.432.375.178.06.366.091.563.091.147 0 .268-.007.363-.023l.227-.045.273 1.205a2.72 2.72 0 0 1-.38.102c-.163.038-.37.057-.62.057-.379 0-.75-.082-1.113-.245a2.213 2.213 0 0 1-.898-.744c-.235-.333-.352-.754-.352-1.261v-8.682Zm6.75 5.568V52h-1.341V40.364h1.34v4.272h.114c.205-.45.512-.808.92-1.074.413-.268.963-.403 1.648-.403.595 0 1.116.12 1.563.358.447.235.793.597 1.04 1.085.25.485.375 1.103.375 1.853V52h-1.341v-5.455c0-.693-.18-1.229-.54-1.608-.356-.382-.85-.573-1.483-.573-.44 0-.833.092-1.182.278a2.036 2.036 0 0 0-.818.813c-.197.356-.295.787-.295 1.295Zm11.77 5.432c-.84 0-1.565-.186-2.175-.557a3.738 3.738 0 0 1-1.404-1.568c-.325-.674-.488-1.459-.488-2.352 0-.894.163-1.682.488-2.364.33-.686.788-1.22 1.375-1.602.591-.387 1.28-.58 2.069-.58.454 0 .903.076 1.346.227.443.152.847.398 1.21.739.364.337.654.784.87 1.34.216.558.323 1.243.323 2.058v.568h-6.727v-1.16h5.364c0-.492-.099-.931-.296-1.317a2.226 2.226 0 0 0-.83-.915c-.355-.224-.776-.335-1.26-.335-.535 0-.997.132-1.387.397a2.615 2.615 0 0 0-.892 1.023c-.208.42-.312.871-.312 1.352v.773c0 .66.113 1.218.34 1.676.232.455.552.801.96 1.04.41.235.885.352 1.427.352.352 0 .67-.049.954-.147.288-.103.536-.254.745-.455.208-.205.37-.458.483-.761l1.295.363a2.87 2.87 0 0 1-.687 1.16c-.322.329-.72.587-1.194.772a4.426 4.426 0 0 1-1.596.273ZM89.233 52v-8.727h1.296v1.318h.09c.16-.432.448-.782.864-1.051a2.541 2.541 0 0 1 1.41-.404c.098 0 .221.002.369.006.147.004.26.01.335.017v1.364a3.999 3.999 0 0 0-.313-.051 3.077 3.077 0 0 0-.505-.04c-.425 0-.803.089-1.137.267-.33.174-.59.416-.784.727a1.96 1.96 0 0 0-.284 1.051V52h-1.34Zm9.347.182c-.841 0-1.566-.186-2.176-.557A3.738 3.738 0 0 1 95 50.057c-.325-.674-.488-1.459-.488-2.352 0-.894.163-1.682.488-2.364.33-.686.788-1.22 1.375-1.602.591-.387 1.28-.58 2.069-.58.454 0 .903.076 1.346.227.443.152.847.398 1.21.739.364.337.654.784.87 1.34.216.558.324 1.243.324 2.058v.568h-6.728v-1.16h5.364c0-.492-.099-.931-.296-1.317a2.222 2.222 0 0 0-.83-.915c-.355-.224-.776-.335-1.26-.335-.535 0-.997.132-1.387.397a2.615 2.615 0 0 0-.892 1.023c-.208.42-.312.871-.312 1.352v.773c0 .66.113 1.218.34 1.676.232.455.552.801.96 1.04.41.235.885.352 1.427.352.352 0 .67-.049.954-.147.288-.103.536-.254.745-.455.208-.205.369-.458.483-.761l1.295.363a2.87 2.87 0 0 1-.687 1.16 3.35 3.35 0 0 1-1.194.772 4.421 4.421 0 0 1-1.596.273Zm7.426-11.818-.114 8.363h-1.318l-.113-8.363h1.545Zm-.773 11.727c-.28 0-.521-.1-.721-.301a.983.983 0 0 1-.301-.722c0-.28.1-.52.301-.721a.982.982 0 0 1 .721-.302c.281 0 .521.1.722.302.201.2.301.44.301.721a.96.96 0 0 1-.142.512c-.091.155-.214.28-.369.375a.976.976 0 0 1-.512.136Zm8.135-.091V40.364h1.409v5.181h6.205v-5.181h1.409V52h-1.409v-5.205h-6.205V52h-1.409Zm15.208.182c-.788 0-1.48-.188-2.074-.563-.591-.375-1.053-.9-1.387-1.574-.329-.674-.494-1.462-.494-2.363 0-.91.165-1.703.494-2.38.334-.679.796-1.205 1.387-1.58.594-.375 1.286-.563 2.074-.563.787 0 1.477.188 2.068.563.594.375 1.057.901 1.386 1.58.333.677.5 1.47.5 2.38 0 .901-.167 1.69-.5 2.363a3.77 3.77 0 0 1-1.386 1.574c-.591.375-1.281.563-2.068.563Zm0-1.205c.598 0 1.091-.153 1.477-.46a2.72 2.72 0 0 0 .858-1.21c.185-.5.278-1.042.278-1.625 0-.584-.093-1.127-.278-1.63a2.755 2.755 0 0 0-.858-1.222c-.386-.311-.879-.466-1.477-.466-.599 0-1.091.155-1.478.466-.386.31-.672.717-.858 1.221a4.695 4.695 0 0 0-.278 1.63c0 .584.093 1.126.278 1.626.186.5.472.903.858 1.21.387.307.879.46 1.478.46Zm7.68 1.023-2.659-8.727h1.409l1.887 6.681h.091l1.863-6.681h1.432l1.841 6.659h.091l1.886-6.66h1.409L142.847 52h-1.318l-1.909-6.705h-.136L137.575 52h-1.319Zm19.069.182c-.819 0-1.523-.193-2.114-.58a3.783 3.783 0 0 1-1.364-1.596c-.318-.678-.477-1.453-.477-2.324 0-.887.163-1.669.489-2.347.329-.682.788-1.214 1.375-1.596.591-.387 1.28-.58 2.068-.58a3.91 3.91 0 0 1 1.659.341c.492.227.896.545 1.21.955.315.409.51.886.585 1.431h-1.34c-.103-.397-.33-.75-.682-1.056-.349-.311-.818-.466-1.409-.466-.523 0-.981.136-1.375.409-.391.269-.695.65-.915 1.142-.216.488-.324 1.062-.324 1.721 0 .675.106 1.262.318 1.762.216.5.519.888.909 1.164.394.277.856.415 1.387.415.348 0 .664-.06.948-.181.285-.122.525-.296.722-.523.197-.228.337-.5.421-.819h1.34a3.1 3.1 0 0 1-.562 1.393 3.158 3.158 0 0 1-1.176.977c-.485.239-1.049.358-1.693.358Zm7.96.023a3.548 3.548 0 0 1-1.506-.313 2.582 2.582 0 0 1-1.074-.915c-.265-.401-.397-.886-.397-1.454 0-.5.098-.906.295-1.216.197-.315.46-.56.79-.739a4.14 4.14 0 0 1 1.091-.398c.401-.09.805-.162 1.21-.215.53-.069.96-.12 1.29-.154.333-.038.575-.1.727-.187.155-.087.233-.239.233-.455v-.045c0-.561-.153-.997-.46-1.307-.303-.31-.764-.466-1.381-.466-.64 0-1.142.14-1.506.42-.363.28-.619.58-.767.898l-1.272-.454c.227-.53.53-.944.909-1.24a3.411 3.411 0 0 1 1.25-.624 5.184 5.184 0 0 1 1.341-.182c.28 0 .602.034.965.102.368.065.722.2 1.063.404.345.204.631.513.858.926.227.413.341.966.341 1.659V52h-1.341v-1.182h-.068a2.36 2.36 0 0 1-.455.608c-.212.216-.494.4-.846.551-.353.152-.783.228-1.29.228Zm.204-1.205c.531 0 .978-.104 1.341-.313a2.128 2.128 0 0 0 1.114-1.846v-1.227c-.057.068-.182.13-.375.187a6.29 6.29 0 0 1-.659.142 29.629 29.629 0 0 1-1.284.17c-.349.046-.674.12-.978.222a1.687 1.687 0 0 0-.727.45c-.182.196-.273.465-.273.806 0 .466.173.818.518 1.057.348.235.789.352 1.323.352Zm7.584-4.25V52h-1.341v-8.727h1.296v1.363h.113a2.5 2.5 0 0 1 .932-1.068c.417-.273.955-.409 1.614-.409.591 0 1.108.121 1.551.364a2.45 2.45 0 0 1 1.034 1.09c.246.486.369 1.1.369 1.842V52H175.3v-5.455c0-.685-.178-1.22-.534-1.602-.356-.386-.844-.58-1.466-.58-.428 0-.81.093-1.147.279a1.988 1.988 0 0 0-.79.813c-.193.356-.29.787-.29 1.295Zm14.11-6.386V52h-1.41V40.364h1.41Zm9.711 11.84a3.54 3.54 0 0 1-1.505-.312 2.582 2.582 0 0 1-1.074-.915c-.265-.401-.398-.886-.398-1.454 0-.5.098-.906.295-1.216a2.09 2.09 0 0 1 .79-.739c.33-.178.693-.31 1.091-.398.402-.09.805-.162 1.21-.215.531-.069.961-.12 1.29-.154.333-.038.576-.1.727-.187.156-.087.233-.239.233-.455v-.045c0-.561-.153-.997-.46-1.307-.303-.31-.763-.466-1.381-.466-.64 0-1.142.14-1.505.42-.364.28-.62.58-.767.898l-1.273-.454c.227-.53.53-.944.909-1.24a3.419 3.419 0 0 1 1.25-.624 5.196 5.196 0 0 1 1.341-.182c.28 0 .602.034.966.102.367.065.721.2 1.062.404.345.204.631.513.858.926.228.413.341.966.341 1.659V52h-1.341v-1.182h-.068c-.091.19-.242.392-.454.608-.213.216-.495.4-.847.551-.352.152-.782.228-1.29.228Zm.205-1.204c.53 0 .977-.104 1.341-.313a2.124 2.124 0 0 0 1.113-1.846v-1.227c-.057.068-.182.13-.375.187a6.29 6.29 0 0 1-.659.142 30.27 30.27 0 0 1-1.284.17 5.19 5.19 0 0 0-.977.222 1.681 1.681 0 0 0-.727.45c-.182.196-.273.465-.273.806 0 .466.172.818.517 1.057.348.235.79.352 1.324.352Zm12.424-5.773-1.204.341a2.262 2.262 0 0 0-.335-.585 1.628 1.628 0 0 0-.591-.477c-.25-.125-.57-.188-.96-.188-.535 0-.98.123-1.336.37-.352.242-.528.55-.528.926 0 .333.121.596.364.79.242.193.621.354 1.136.482l1.295.319c.781.189 1.362.479 1.745.869.382.386.574.884.574 1.494 0 .5-.144.947-.432 1.341-.284.394-.682.705-1.193.932-.512.227-1.106.34-1.785.34-.89 0-1.626-.192-2.21-.579-.583-.386-.952-.95-1.108-1.693l1.273-.318c.121.47.35.822.688 1.057.34.235.786.352 1.335.352.625 0 1.121-.133 1.488-.398.372-.269.557-.59.557-.966 0-.303-.106-.556-.318-.761-.212-.208-.538-.364-.977-.466l-1.455-.34c-.799-.19-1.386-.484-1.761-.882-.371-.401-.557-.903-.557-1.505 0-.493.138-.928.415-1.307a2.82 2.82 0 0 1 1.142-.892c.485-.216 1.034-.324 1.648-.324.863 0 1.541.19 2.034.568a3.06 3.06 0 0 1 1.056 1.5Zm8.36 0-1.205.341a2.206 2.206 0 0 0-.335-.585 1.628 1.628 0 0 0-.591-.477c-.25-.125-.57-.188-.96-.188-.534 0-.979.123-1.335.37-.353.242-.529.55-.529.926 0 .333.122.596.364.79.242.193.621.354 1.136.482l1.296.319c.78.189 1.361.479 1.744.869.383.386.574.884.574 1.494 0 .5-.144.947-.432 1.341-.284.394-.682.705-1.193.932-.511.227-1.106.34-1.784.34-.89 0-1.627-.192-2.21-.579-.584-.386-.953-.95-1.108-1.693l1.272-.318c.122.47.351.822.688 1.057.341.235.786.352 1.335.352.625 0 1.121-.133 1.489-.398.371-.269.557-.59.557-.966 0-.303-.106-.556-.319-.761-.212-.208-.537-.364-.977-.466l-1.454-.34c-.8-.19-1.387-.484-1.762-.882-.371-.401-.557-.903-.557-1.505 0-.493.139-.928.415-1.307a2.82 2.82 0 0 1 1.142-.892c.485-.216 1.034-.324 1.648-.324.864 0 1.542.19 2.034.568.496.38.849.88 1.057 1.5ZM218.06 52v-8.727h1.341V52h-1.341Zm.682-10.182a.953.953 0 0 1-.676-.267.856.856 0 0 1-.278-.642c0-.25.092-.464.278-.642a.953.953 0 0 1 .676-.267c.262 0 .485.089.671.267a.851.851 0 0 1 .284.642c0 .25-.095.464-.284.642a.934.934 0 0 1-.671.267Zm9.297 3.41-1.204.34a2.238 2.238 0 0 0-.336-.585 1.628 1.628 0 0 0-.591-.477c-.25-.125-.57-.188-.96-.188-.534 0-.979.123-1.335.37-.352.242-.528.55-.528.926 0 .333.121.596.363.79.243.193.621.354 1.137.482l1.295.319c.78.189 1.362.479 1.744.869.383.386.574.884.574 1.494 0 .5-.144.947-.432 1.341-.284.394-.681.705-1.193.932-.511.227-1.106.34-1.784.34-.89 0-1.627-.192-2.21-.579-.583-.386-.953-.95-1.108-1.693l1.273-.318c.121.47.35.822.687 1.057.341.235.786.352 1.335.352.625 0 1.122-.133 1.489-.398.371-.269.557-.59.557-.966 0-.303-.106-.556-.318-.761-.212-.208-.538-.364-.978-.466l-1.454-.34c-.799-.19-1.387-.484-1.762-.882-.371-.401-.556-.903-.556-1.505 0-.493.138-.928.414-1.307a2.828 2.828 0 0 1 1.142-.892c.485-.216 1.035-.324 1.648-.324.864 0 1.542.19 2.034.568.496.38.849.88 1.057 1.5Zm5.973-1.955v1.136h-4.523v-1.136h4.523Zm-3.204-2.091h1.34V49.5c0 .379.055.663.165.852.114.186.258.31.432.375.178.06.366.091.563.091.147 0 .269-.007.363-.023l.227-.045.273 1.205a2.753 2.753 0 0 1-.38.102c-.163.038-.37.057-.62.057-.379 0-.75-.082-1.113-.245a2.208 2.208 0 0 1-.898-.744c-.235-.333-.352-.754-.352-1.261v-8.682Zm10.585 14.09c-.227 0-.43-.018-.608-.056a1.597 1.597 0 0 1-.369-.102l.34-1.182c.326.083.614.113.864.09.25-.022.472-.134.665-.334.197-.198.377-.518.54-.96l.25-.683-3.228-8.772h1.455l2.409 6.954h.091l2.409-6.954h1.455l-3.705 10c-.167.45-.373.824-.619 1.119-.247.3-.533.52-.858.665a2.646 2.646 0 0 1-1.091.216Zm11.275-3.09c-.788 0-1.479-.188-2.074-.563-.59-.375-1.053-.9-1.386-1.574-.329-.674-.494-1.462-.494-2.363 0-.91.165-1.703.494-2.38.333-.679.796-1.205 1.386-1.58.595-.375 1.286-.563 2.074-.563.788 0 1.478.188 2.069.563.594.375 1.056.901 1.386 1.58.333.677.5 1.47.5 2.38 0 .901-.167 1.69-.5 2.363-.33.675-.792 1.2-1.386 1.574-.591.375-1.281.563-2.069.563Zm0-1.205c.599 0 1.091-.153 1.478-.46a2.72 2.72 0 0 0 .858-1.21c.185-.5.278-1.042.278-1.625 0-.584-.093-1.127-.278-1.63a2.755 2.755 0 0 0-.858-1.222c-.387-.311-.879-.466-1.478-.466-.598 0-1.091.155-1.477.466-.386.31-.672.717-.858 1.221a4.695 4.695 0 0 0-.278 1.63c0 .584.093 1.126.278 1.626.186.5.472.903.858 1.21.386.307.879.46 1.477.46Zm11.502-2.545v-5.16h1.341V52h-1.341v-1.477h-.091c-.205.443-.523.82-.955 1.13-.431.307-.977.46-1.636.46a2.92 2.92 0 0 1-1.455-.357c-.424-.243-.757-.606-1-1.091-.242-.489-.363-1.104-.363-1.847v-5.545h1.341v5.454c0 .637.178 1.144.534 1.523.36.379.818.568 1.375.568a2.29 2.29 0 0 0 1.017-.255c.348-.171.64-.432.875-.785.238-.352.358-.8.358-1.346ZM274.444 52l-2.659-8.727h1.409l1.886 6.681h.091l1.864-6.681h1.432l1.841 6.659h.09l1.887-6.66h1.409L281.035 52h-1.318l-1.909-6.705h-.137L275.762 52h-1.318Zm11.023 0v-8.727h1.341V52h-1.341Zm.681-10.182a.954.954 0 0 1-.676-.267.86.86 0 0 1-.278-.642.86.86 0 0 1 .278-.642.955.955 0 0 1 .676-.267c.262 0 .485.089.671.267a.851.851 0 0 1 .284.642c0 .25-.095.464-.284.642a.934.934 0 0 1-.671.267Zm6.911 1.455v1.136h-4.523v-1.136h4.523Zm-3.205-2.091h1.341V49.5c0 .379.055.663.165.852.114.186.258.31.432.375.178.06.365.091.562.091.148 0 .269-.007.364-.023l.227-.045.273 1.205a2.733 2.733 0 0 1-.381.102 2.793 2.793 0 0 1-.619.057 2.7 2.7 0 0 1-1.114-.245 2.212 2.212 0 0 1-.897-.744c-.235-.333-.353-.754-.353-1.261v-8.682Zm6.75 5.568V52h-1.34V40.364h1.34v4.272h.114c.205-.45.511-.808.921-1.074.412-.268.962-.403 1.647-.403.595 0 1.116.12 1.563.358.447.235.793.597 1.04 1.085.25.485.375 1.103.375 1.853V52h-1.341v-5.455c0-.693-.18-1.229-.54-1.608-.356-.382-.851-.573-1.483-.573-.44 0-.833.092-1.182.278a2.035 2.035 0 0 0-.818.813c-.197.356-.296.787-.296 1.295ZM45.19 79.273c-.228 0-.43-.02-.608-.057a1.604 1.604 0 0 1-.37-.102l.341-1.182c.326.083.614.114.864.09.25-.022.471-.134.665-.335.197-.197.377-.516.54-.96l.25-.681-3.228-8.773H45.1l2.409 6.954h.09l2.41-6.954h1.454l-3.704 10a3.78 3.78 0 0 1-.62 1.119c-.246.3-.532.52-.857.665a2.645 2.645 0 0 1-1.091.216Zm11.275-3.091c-.788 0-1.479-.188-2.074-.563-.59-.375-1.053-.9-1.386-1.573-.33-.675-.494-1.463-.494-2.364 0-.91.164-1.703.494-2.38.333-.679.795-1.205 1.386-1.58.595-.375 1.286-.563 2.074-.563.788 0 1.477.188 2.068.563.595.375 1.057.901 1.387 1.58.333.677.5 1.47.5 2.38 0 .901-.167 1.69-.5 2.364a3.77 3.77 0 0 1-1.387 1.573c-.59.375-1.28.563-2.068.563Zm0-1.205c.599 0 1.091-.153 1.477-.46.387-.307.673-.71.858-1.21.186-.5.279-1.042.279-1.625 0-.584-.093-1.127-.279-1.63a2.749 2.749 0 0 0-.857-1.223c-.387-.31-.88-.465-1.478-.465s-1.09.155-1.477.465a2.757 2.757 0 0 0-.858 1.222 4.681 4.681 0 0 0-.278 1.63c0 .584.092 1.126.278 1.626.186.5.472.903.858 1.21.386.307.879.46 1.477.46Zm11.502-2.545v-5.16h1.34V76h-1.34v-1.477h-.091c-.205.443-.523.82-.955 1.13-.432.307-.977.46-1.636.46-.546 0-1.03-.119-1.455-.357-.424-.243-.757-.606-1-1.091-.242-.489-.363-1.104-.363-1.847v-5.545h1.34v5.454c0 .637.179 1.144.535 1.523.36.379.818.568 1.375.568a2.29 2.29 0 0 0 1.017-.255c.348-.171.64-.432.875-.785.238-.352.358-.8.358-1.346ZM71.763 76v-8.727h1.296v1.318h.09c.16-.432.448-.782.864-1.051a2.542 2.542 0 0 1 1.41-.404c.098 0 .221.002.369.006s.26.01.335.017v1.364a4.016 4.016 0 0 0-.312-.051 3.077 3.077 0 0 0-.506-.04c-.424 0-.803.089-1.136.267-.33.174-.591.416-.785.727a1.96 1.96 0 0 0-.284 1.051V76h-1.34Zm13.022.204a3.545 3.545 0 0 1-1.506-.312 2.583 2.583 0 0 1-1.074-.915c-.265-.401-.397-.886-.397-1.454 0-.5.098-.906.295-1.216.197-.315.46-.56.79-.739a4.15 4.15 0 0 1 1.09-.397c.402-.092.806-.163 1.21-.217.531-.068.961-.119 1.29-.153.334-.038.576-.1.728-.187.155-.088.233-.239.233-.455v-.045c0-.561-.154-.997-.46-1.307-.303-.31-.764-.466-1.381-.466-.64 0-1.142.14-1.506.42-.363.28-.619.58-.767.898l-1.272-.455c.227-.53.53-.943.909-1.238.382-.3.799-.508 1.25-.625a5.19 5.19 0 0 1 1.34-.182c.28 0 .603.034.966.102a3.09 3.09 0 0 1 1.063.404c.345.204.63.513.858.926.227.413.34.966.34 1.659V76h-1.34v-1.182h-.068a2.36 2.36 0 0 1-.455.608c-.212.216-.494.4-.846.551-.353.152-.783.227-1.29.227ZM84.989 75c.53 0 .978-.104 1.341-.313a2.127 2.127 0 0 0 1.114-1.846v-1.227c-.057.068-.182.13-.375.187-.19.053-.41.1-.66.142a29.81 29.81 0 0 1-1.283.17c-.349.046-.675.12-.978.222a1.682 1.682 0 0 0-.727.45c-.182.196-.273.465-.273.806 0 .466.173.818.517 1.057.349.235.79.352 1.324.352Zm9.766 4.454c-.648 0-1.204-.083-1.67-.25a3.541 3.541 0 0 1-1.165-.647 3.542 3.542 0 0 1-.733-.853l1.068-.75c.121.16.275.342.46.546.186.208.44.388.762.54.325.155.751.233 1.278.233.705 0 1.286-.17 1.744-.512.459-.34.688-.875.688-1.602v-1.773h-.114c-.098.16-.238.356-.42.591-.178.231-.436.438-.773.62-.333.178-.784.267-1.352.267a3.646 3.646 0 0 1-1.898-.5c-.557-.334-.998-.819-1.324-1.455-.322-.636-.483-1.409-.483-2.318 0-.894.157-1.672.472-2.335.314-.667.752-1.182 1.312-1.546.56-.367 1.209-.55 1.944-.55.568 0 1.018.094 1.352.283.337.186.594.398.772.636.182.235.322.429.42.58h.137v-1.386h1.296v8.977c0 .75-.17 1.36-.512 1.83-.337.473-.791.82-1.363 1.04-.568.223-1.201.334-1.898.334Zm-.045-4.795c.537 0 .992-.123 1.363-.37.371-.245.654-.6.847-1.062.193-.462.29-1.015.29-1.659 0-.629-.095-1.183-.284-1.665-.19-.48-.47-.858-.841-1.13-.372-.273-.83-.41-1.375-.41-.569 0-1.042.145-1.42.433a2.629 2.629 0 0 0-.848 1.158 4.482 4.482 0 0 0-.278 1.614c0 .606.095 1.142.284 1.608.193.462.478.826.853 1.091.378.261.848.392 1.409.392ZM100.982 76v-8.727h1.296v1.318h.091c.159-.432.447-.782.863-1.051a2.544 2.544 0 0 1 1.409-.404c.099 0 .222.002.37.006.147.004.259.01.335.017v1.364a4.073 4.073 0 0 0-.313-.051 3.068 3.068 0 0 0-.505-.04c-.425 0-.803.089-1.137.267a2.016 2.016 0 0 0-.784.727 1.964 1.964 0 0 0-.284 1.051V76h-1.341Zm5.953 0v-8.727h1.341V76h-1.341Zm.682-10.182a.953.953 0 0 1-.676-.267.856.856 0 0 1-.278-.642c0-.25.092-.464.278-.642a.953.953 0 0 1 .676-.267c.262 0 .485.089.671.267a.851.851 0 0 1 .284.642c0 .25-.095.464-.284.642a.934.934 0 0 1-.671.267Zm6.661 10.364c-.818 0-1.523-.193-2.114-.58a3.783 3.783 0 0 1-1.364-1.596c-.318-.678-.477-1.453-.477-2.324 0-.886.163-1.669.489-2.347.329-.682.788-1.214 1.375-1.596.591-.387 1.28-.58 2.068-.58a3.91 3.91 0 0 1 1.659.341 3.17 3.17 0 0 1 1.21.954c.315.41.51.887.586 1.432h-1.341c-.103-.397-.33-.75-.682-1.056-.349-.311-.818-.466-1.409-.466-.523 0-.981.136-1.375.409-.39.269-.695.65-.915 1.142-.216.488-.324 1.062-.324 1.721 0 .675.106 1.262.318 1.762.216.5.519.888.909 1.165.394.276.856.414 1.387.414a2.4 2.4 0 0 0 .949-.181c.284-.122.524-.296.721-.523.197-.227.337-.5.421-.819h1.341c-.076.516-.264.98-.563 1.393a3.142 3.142 0 0 1-1.176.977c-.485.239-1.049.358-1.693.358Zm10.892-3.75v-5.16h1.341V76h-1.341v-1.477h-.091c-.205.443-.523.82-.955 1.13-.431.307-.977.46-1.636.46a2.92 2.92 0 0 1-1.455-.357c-.424-.243-.757-.606-1-1.091-.242-.489-.363-1.104-.363-1.847v-5.545h1.341v5.454c0 .637.178 1.144.534 1.523.36.379.818.568 1.375.568a2.29 2.29 0 0 0 1.017-.255c.348-.171.64-.432.875-.785.238-.352.358-.8.358-1.346Zm5.138-8.068V76h-1.341V64.364h1.341Zm6.251 2.909v1.136h-4.523v-1.136h4.523Zm-3.205-2.091h1.341V73.5c0 .379.055.663.165.852.114.186.258.31.432.375.178.06.365.091.562.091.148 0 .269-.007.364-.022l.227-.046.273 1.204a2.733 2.733 0 0 1-.381.103 2.793 2.793 0 0 1-.619.057 2.7 2.7 0 0 1-1.114-.245 2.212 2.212 0 0 1-.897-.744c-.235-.333-.353-.754-.353-1.261v-8.682Zm10.722 7.25v-5.16h1.341V76h-1.341v-1.477h-.091a2.86 2.86 0 0 1-.954 1.13c-.432.307-.978.46-1.637.46-.545 0-1.03-.119-1.454-.357-.425-.243-.758-.606-1-1.091-.243-.489-.364-1.104-.364-1.847v-5.545h1.341v5.454c0 .637.178 1.144.534 1.523.36.379.818.568 1.375.568a2.29 2.29 0 0 0 1.017-.255c.349-.171.64-.432.875-.785.239-.352.358-.8.358-1.346ZM147.873 76v-8.727h1.295v1.318h.091c.159-.432.447-.782.864-1.051a2.541 2.541 0 0 1 1.409-.404c.098 0 .222.002.369.006.148.004.26.01.336.017v1.364a4.073 4.073 0 0 0-.313-.051 3.08 3.08 0 0 0-.506-.04c-.424 0-.803.089-1.136.267a2.01 2.01 0 0 0-.784.727 1.964 1.964 0 0 0-.284 1.051V76h-1.341Zm8.521.204a3.54 3.54 0 0 1-1.505-.312 2.582 2.582 0 0 1-1.074-.915c-.265-.401-.398-.886-.398-1.454 0-.5.098-.906.295-1.216a2.09 2.09 0 0 1 .79-.739 4.15 4.15 0 0 1 1.091-.397c.402-.092.805-.163 1.21-.217.531-.068.961-.119 1.29-.153.333-.038.576-.1.727-.187.156-.088.233-.239.233-.455v-.045c0-.561-.153-.997-.46-1.307-.303-.31-.763-.466-1.381-.466-.64 0-1.142.14-1.505.42-.364.28-.62.58-.767.898l-1.273-.455c.227-.53.53-.943.909-1.238a3.39 3.39 0 0 1 1.25-.625 5.196 5.196 0 0 1 1.341-.182c.28 0 .602.034.966.102.367.065.721.2 1.062.404.345.204.631.513.858.926.228.413.341.966.341 1.659V76h-1.341v-1.182h-.068c-.091.19-.242.392-.454.608-.213.216-.495.4-.847.551-.352.152-.782.227-1.29.227Zm.205-1.204c.53 0 .977-.104 1.341-.313a2.124 2.124 0 0 0 1.113-1.846v-1.227c-.057.068-.182.13-.375.187a6.29 6.29 0 0 1-.659.142 30.27 30.27 0 0 1-1.284.17 5.19 5.19 0 0 0-.977.222 1.681 1.681 0 0 0-.727.45c-.182.196-.273.465-.273.806 0 .466.172.818.517 1.057.348.235.79.352 1.324.352Zm7.584-10.636V76h-1.341V64.364h1.341Zm12.91 14.909v-4.614h-.114c-.098.16-.238.36-.42.602-.182.239-.441.453-.778.642-.338.186-.786.279-1.347.279-.727 0-1.369-.184-1.926-.551-.557-.371-.993-.894-1.307-1.569-.314-.677-.472-1.479-.472-2.403 0-.917.158-1.712.472-2.386.314-.674.752-1.195 1.313-1.563.56-.367 1.208-.55 1.943-.55.568 0 1.017.094 1.346.283.334.186.587.398.762.636.178.235.316.429.414.58h.16v-1.386h1.295v12h-1.341Zm-2.477-4.296c.538 0 .992-.14 1.363-.42.372-.284.654-.676.847-1.176.193-.504.29-1.085.29-1.745 0-.651-.095-1.221-.284-1.71-.19-.492-.47-.875-.841-1.148-.371-.276-.83-.414-1.375-.414-.568 0-1.042.145-1.421.437-.375.288-.657.68-.846 1.176a4.666 4.666 0 0 0-.279 1.66c0 .62.095 1.185.284 1.692.194.504.478.906.853 1.205.378.295.848.443 1.409.443Zm11.773-2.545v-5.16h1.34V76h-1.34v-1.477h-.091c-.205.443-.523.82-.955 1.13-.432.307-.977.46-1.636.46-.546 0-1.031-.119-1.455-.357-.424-.243-.757-.606-1-1.091-.242-.489-.363-1.104-.363-1.847v-5.545h1.34v5.454c0 .637.178 1.144.535 1.523.359.379.818.568 1.375.568a2.29 2.29 0 0 0 1.017-.255c.348-.171.64-.432.875-.785.238-.352.358-.8.358-1.346Zm7.455 3.75c-.84 0-1.566-.186-2.176-.557a3.733 3.733 0 0 1-1.403-1.568c-.326-.674-.489-1.459-.489-2.353 0-.893.163-1.681.489-2.363.329-.686.788-1.22 1.375-1.602.591-.387 1.28-.58 2.068-.58.455 0 .904.076 1.347.227a3.34 3.34 0 0 1 1.21.739c.364.337.653.784.869 1.34.216.558.324 1.243.324 2.058v.568h-6.727v-1.16h5.363c0-.492-.098-.931-.295-1.317a2.225 2.225 0 0 0-.83-.915c-.356-.224-.776-.335-1.261-.335-.534 0-.996.132-1.386.397a2.608 2.608 0 0 0-.892 1.023c-.209.42-.313.871-.313 1.352v.773c0 .66.114 1.218.341 1.676.231.455.551.801.96 1.04.409.235.885.352 1.426.352a2.9 2.9 0 0 0 .955-.148 2.03 2.03 0 0 0 .744-.454c.209-.204.37-.458.483-.761l1.296.363a2.88 2.88 0 0 1-.688 1.16 3.344 3.344 0 0 1-1.193.772 4.426 4.426 0 0 1-1.597.273Zm11.836-6.955-1.205.341a2.233 2.233 0 0 0-.335-.585 1.628 1.628 0 0 0-.591-.477c-.25-.125-.57-.188-.96-.188-.534 0-.979.123-1.335.37-.353.242-.529.55-.529.926 0 .333.121.596.364.79.242.193.621.354 1.136.482l1.296.319c.78.189 1.361.479 1.744.869.383.386.574.884.574 1.494 0 .5-.144.947-.432 1.341-.284.394-.682.705-1.193.932-.512.227-1.106.34-1.784.34-.89 0-1.627-.192-2.211-.579-.583-.386-.952-.95-1.107-1.693l1.272-.318c.121.47.351.822.688 1.057.341.235.786.352 1.335.352.625 0 1.121-.133 1.489-.398.371-.269.556-.59.556-.966 0-.303-.106-.556-.318-.761-.212-.208-.538-.364-.977-.466l-1.455-.34c-.799-.19-1.386-.484-1.761-.882-.371-.401-.557-.903-.557-1.505 0-.493.139-.928.415-1.307a2.82 2.82 0 0 1 1.142-.892c.485-.216 1.034-.324 1.648-.324.863 0 1.541.19 2.034.568.496.38.848.88 1.057 1.5Zm5.973-1.954v1.136h-4.523v-1.136h4.523Zm-3.205-2.091h1.341V73.5c0 .379.055.663.165.852.114.186.257.31.432.375.178.06.365.091.562.091.148 0 .269-.007.364-.022l.227-.046.273 1.204a2.733 2.733 0 0 1-.381.103 2.8 2.8 0 0 1-.619.057 2.7 2.7 0 0 1-1.114-.245 2.215 2.215 0 0 1-.898-.744c-.234-.333-.352-.754-.352-1.261v-8.682ZM213.67 76v-8.727h1.341V76h-1.341Zm.682-10.182a.955.955 0 0 1-.677-.267.86.86 0 0 1-.278-.642.86.86 0 0 1 .278-.642.955.955 0 0 1 .677-.267c.261 0 .484.089.67.267a.851.851 0 0 1 .284.642c0 .25-.095.464-.284.642a.934.934 0 0 1-.67.267Zm6.66 10.364c-.788 0-1.479-.188-2.074-.563-.591-.375-1.053-.9-1.386-1.573-.33-.675-.494-1.463-.494-2.364 0-.91.164-1.703.494-2.38.333-.679.795-1.205 1.386-1.58.595-.375 1.286-.563 2.074-.563.788 0 1.477.188 2.068.563.595.375 1.057.901 1.387 1.58.333.677.5 1.47.5 2.38 0 .901-.167 1.69-.5 2.364a3.77 3.77 0 0 1-1.387 1.573c-.591.375-1.28.563-2.068.563Zm0-1.205c.599 0 1.091-.153 1.477-.46.387-.307.673-.71.858-1.21.186-.5.279-1.042.279-1.625 0-.584-.093-1.127-.279-1.63a2.74 2.74 0 0 0-.858-1.223c-.386-.31-.878-.465-1.477-.465-.598 0-1.091.155-1.477.465a2.74 2.74 0 0 0-.858 1.222 4.672 4.672 0 0 0-.279 1.63c0 .584.093 1.126.279 1.626.185.5.471.903.858 1.21.386.307.879.46 1.477.46Zm7.342-4.227V76h-1.34v-8.727h1.295v1.363h.114c.204-.443.515-.799.931-1.068.417-.272.955-.409 1.614-.409.591 0 1.108.121 1.551.364a2.45 2.45 0 0 1 1.034 1.09c.247.486.37 1.1.37 1.841V76h-1.341v-5.454c0-.686-.178-1.22-.534-1.603-.356-.386-.845-.58-1.466-.58a2.34 2.34 0 0 0-1.148.279 1.994 1.994 0 0 0-.79.813c-.193.356-.29.787-.29 1.295Zm16.314-3.477v1.136h-4.522v-1.136h4.522Zm-3.204-2.091h1.341V73.5c0 .379.055.663.164.852.114.186.258.31.432.375.178.06.366.091.563.091.148 0 .269-.007.363-.022l.228-.046.272 1.204c-.09.035-.217.069-.38.103-.163.038-.37.057-.62.057-.378 0-.75-.082-1.113-.245a2.215 2.215 0 0 1-.898-.744c-.235-.333-.352-.754-.352-1.261v-8.682Zm8.673 11c-.788 0-1.479-.188-2.074-.563-.591-.375-1.053-.9-1.386-1.573-.33-.675-.494-1.463-.494-2.364 0-.91.164-1.703.494-2.38.333-.679.795-1.205 1.386-1.58.595-.375 1.286-.563 2.074-.563.788 0 1.477.188 2.068.563.595.375 1.057.901 1.387 1.58.333.677.5 1.47.5 2.38 0 .901-.167 1.69-.5 2.364a3.77 3.77 0 0 1-1.387 1.573c-.591.375-1.28.563-2.068.563Zm0-1.205c.599 0 1.091-.153 1.477-.46.387-.307.673-.71.858-1.21.186-.5.279-1.042.279-1.625 0-.584-.093-1.127-.279-1.63a2.74 2.74 0 0 0-.858-1.223c-.386-.31-.878-.465-1.477-.465-.598 0-1.091.155-1.477.465a2.74 2.74 0 0 0-.858 1.222 4.672 4.672 0 0 0-.279 1.63c0 .584.093 1.126.279 1.626.185.5.471.903.858 1.21.386.307.879.46 1.477.46Zm9.297 1.205c-.727 0-1.369-.184-1.926-.551-.557-.371-.993-.894-1.307-1.569-.314-.677-.472-1.479-.472-2.403 0-.917.158-1.712.472-2.386.314-.674.752-1.195 1.313-1.563.56-.367 1.208-.55 1.943-.55.568 0 1.017.094 1.346.283.334.186.587.398.762.636.178.235.316.429.414.58h.114v-4.295h1.341V76h-1.295v-1.34h-.16a8.522 8.522 0 0 1-.42.601c-.182.239-.441.453-.778.642-.338.186-.786.279-1.347.279Zm.182-1.205c.538 0 .992-.14 1.363-.42.372-.284.654-.676.847-1.176.193-.504.29-1.085.29-1.745 0-.651-.095-1.221-.284-1.71-.19-.492-.47-.875-.841-1.148-.371-.276-.83-.414-1.375-.414-.568 0-1.042.145-1.421.437-.375.288-.657.68-.846 1.176a4.666 4.666 0 0 0-.279 1.66c0 .62.095 1.185.284 1.692.194.504.478.906.853 1.205.378.295.848.443 1.409.443Zm9.028 1.227a3.54 3.54 0 0 1-1.505-.312 2.582 2.582 0 0 1-1.074-.915c-.265-.401-.398-.886-.398-1.454 0-.5.098-.906.295-1.216a2.09 2.09 0 0 1 .79-.739 4.15 4.15 0 0 1 1.091-.397c.402-.092.805-.163 1.21-.217.531-.068.961-.119 1.29-.153.333-.038.576-.1.727-.187.156-.088.233-.239.233-.455v-.045c0-.561-.153-.997-.46-1.307-.303-.31-.763-.466-1.381-.466-.64 0-1.142.14-1.505.42-.364.28-.62.58-.767.898l-1.273-.455c.227-.53.53-.943.909-1.238a3.39 3.39 0 0 1 1.25-.625 5.196 5.196 0 0 1 1.341-.182c.28 0 .602.034.966.102.367.065.721.2 1.062.404.345.204.631.513.858.926.228.413.341.966.341 1.659V76h-1.341v-1.182h-.068c-.091.19-.242.392-.454.608-.213.216-.495.4-.847.551-.352.152-.782.227-1.29.227Zm.205-1.204c.53 0 .977-.104 1.341-.313a2.124 2.124 0 0 0 1.113-1.846v-1.227c-.057.068-.182.13-.375.187a6.29 6.29 0 0 1-.659.142 30.27 30.27 0 0 1-1.284.17 5.19 5.19 0 0 0-.977.222 1.681 1.681 0 0 0-.727.45c-.182.196-.273.465-.273.806 0 .466.172.818.517 1.057.348.235.79.352 1.324.352Zm6.794 4.273a3 3 0 0 1-.608-.057 1.597 1.597 0 0 1-.369-.102l.34-1.182c.326.083.614.114.864.09a1.03 1.03 0 0 0 .665-.335c.197-.197.377-.516.54-.96l.25-.681-3.228-8.773h1.455l2.409 6.954h.091l2.409-6.954h1.455l-3.705 10c-.167.45-.373.824-.619 1.119-.247.3-.533.52-.858.665a2.646 2.646 0 0 1-1.091.216Zm9.792-6.546v-.068c.008-.723.084-1.3.228-1.727.144-.428.348-.775.613-1.04s.584-.51.955-.733a2.97 2.97 0 0 0 .602-.483c.178-.19.318-.407.421-.653.106-.246.159-.52.159-.819a1.75 1.75 0 0 0-.262-.965 1.751 1.751 0 0 0-.699-.631 2.114 2.114 0 0 0-.971-.222c-.311 0-.61.065-.898.194a1.735 1.735 0 0 0-.721.608c-.194.276-.305.638-.336 1.085h-1.432c.031-.644.197-1.195.5-1.654a3.014 3.014 0 0 1 1.211-1.05 3.814 3.814 0 0 1 1.676-.365c.667 0 1.246.133 1.738.398.497.265.879.63 1.148 1.091.273.462.409.989.409 1.58 0 .416-.064.793-.193 1.13a2.795 2.795 0 0 1-.545.904c-.235.265-.519.5-.853.704a3.54 3.54 0 0 0-.801.66 2.09 2.09 0 0 0-.437.812c-.091.314-.14.706-.148 1.176v.068h-1.364Zm.728 3.364a.985.985 0 0 1-.722-.301.983.983 0 0 1-.301-.722c0-.28.1-.52.301-.721a.984.984 0 0 1 .722-.301c.28 0 .521.1.721.3a.985.985 0 0 1 .301.722.96.96 0 0 1-.142.511c-.091.156-.214.28-.369.376a.972.972 0 0 1-.511.136Z"/>
  <path stroke="#2E3545" stroke-linecap="round" stroke-linejoin="round" stroke-width="1.5" d="M343.485 49.95a1.588 1.588 0 0 1-1.482-1.68v-2.6a1.588 1.588 0 0 1 1.482-1.68h1.106a1.37 1.37 0 0 0 .9-.342l1.543-1.331a1.478 1.478 0 0 1 2.381 1.333v6.642a1.477 1.477 0 0 1-2.381 1.333l-1.545-1.331a1.376 1.376 0 0 0-.9-.343h-1.104Z" clip-rule="evenodd"/>
  <path fill="#2E3545" d="M355.065 41.937a.75.75 0 1 0-1.198.902l1.198-.902Zm-1.198 9.167a.75.75 0 0 0 1.198.902l-1.198-.902Zm-1.322-8.06a.75.75 0 1 0-1.136.98l1.136-.98Zm-1.136 6.875a.75.75 0 1 0 1.136.98l-1.136-.98Zm2.458-7.08a6.871 6.871 0 0 1 0 8.265l1.198.902a8.369 8.369 0 0 0 0-10.07l-1.198.903Zm-2.458 1.185a4.515 4.515 0 0 1 0 5.895l1.136.98a6.016 6.016 0 0 0 0-7.855l-1.136.98Z"/>
</svg>
