<svg xmlns="http://www.w3.org/2000/svg" width="338" height="63" fill="none" viewBox="0 0 338 63">
  <rect width="337" height="32" x=".5" y="30.5" fill="#003DF5" rx="9.5"/>
  <rect width="337" height="32" x=".5" y="30.5" stroke="#E3E3E3" rx="9.5"/>
  <path fill="#667085" d="m247.612 10.273 2.591 7.346h.102l2.591-7.346h1.108L250.8 19h-1.091l-3.205-8.727h1.108ZM255.227 19v-6.546h1.006V19h-1.006Zm.512-7.636a.715.715 0 0 1-.507-.2.641.641 0 0 1-.209-.482.64.64 0 0 1 .209-.482.715.715 0 0 1 .507-.2c.196 0 .363.067.503.2a.637.637 0 0 1 .213.482.638.638 0 0 1-.213.481.702.702 0 0 1-.503.2Zm6.972 2.556-.903.256a1.706 1.706 0 0 0-.251-.439 1.219 1.219 0 0 0-.444-.358c-.187-.093-.427-.14-.72-.14-.4 0-.734.092-1.001.277-.264.181-.397.413-.397.694 0 .25.091.448.273.593.182.144.466.265.852.362l.972.238c.585.143 1.021.36 1.308.652.287.29.431.664.431 1.121 0 .375-.108.71-.324 1.006a2.151 2.151 0 0 1-.895.699c-.384.17-.83.255-1.338.255-.668 0-1.22-.145-1.658-.434-.437-.29-.714-.713-.831-1.27l.955-.239c.091.352.263.617.515.793.256.176.59.264 1.002.264.469 0 .841-.1 1.116-.298.279-.202.418-.444.418-.725a.762.762 0 0 0-.239-.57c-.159-.157-.403-.273-.733-.35l-1.091-.256c-.599-.142-1.039-.362-1.321-.66-.278-.302-.417-.678-.417-1.13 0-.369.103-.696.311-.98a2.12 2.12 0 0 1 .856-.669 3.011 3.011 0 0 1 1.236-.243c.648 0 1.156.142 1.526.427.372.284.636.659.792 1.125Zm1.634 5.08v-6.546h1.005V19h-1.005Zm.511-7.636a.715.715 0 0 1-.507-.2.645.645 0 0 1-.209-.482c0-.188.07-.348.209-.482a.715.715 0 0 1 .507-.2.7.7 0 0 1 .503.2.637.637 0 0 1 .213.482.638.638 0 0 1-.213.481.7.7 0 0 1-.503.2Zm5.183 1.09v.853h-3.392v-.853h3.392Zm-2.404-1.568h1.006v6.239c0 .284.041.497.124.64a.64.64 0 0 0 .323.28c.134.046.275.069.422.069.111 0 .202-.006.273-.017l.171-.035.204.904a2.035 2.035 0 0 1-.285.077 2.11 2.11 0 0 1-.465.042 2.01 2.01 0 0 1-.835-.183 1.658 1.658 0 0 1-.673-.558c-.177-.25-.265-.566-.265-.946v-6.512Zm6.505 8.25c-.591 0-1.109-.14-1.555-.421a2.868 2.868 0 0 1-1.04-1.18c-.247-.507-.371-1.098-.371-1.774 0-.681.124-1.277.371-1.785.25-.509.597-.904 1.04-1.185.446-.281.964-.422 1.555-.422s1.108.14 1.551.422a2.82 2.82 0 0 1 1.04 1.185c.25.508.375 1.103.375 1.785 0 .677-.125 1.267-.375 1.773-.247.506-.594.9-1.04 1.18-.443.282-.96.422-1.551.422Zm0-.903c.449 0 .819-.115 1.108-.345.29-.23.505-.533.644-.908a3.48 3.48 0 0 0 .209-1.219c0-.437-.07-.845-.209-1.223a2.058 2.058 0 0 0-.644-.916c-.289-.233-.659-.35-1.108-.35-.449 0-.818.117-1.108.35a2.064 2.064 0 0 0-.643.916 3.515 3.515 0 0 0-.209 1.223c0 .438.07.844.209 1.22.139.374.354.677.643.907.29.23.659.345 1.108.345Zm4.501.767v-6.546h.972v.99h.068c.119-.325.335-.588.648-.79a1.906 1.906 0 0 1 1.057-.302c.074 0 .166.002.277.005a3.7 3.7 0 0 1 .251.012v1.023a2.968 2.968 0 0 0-.234-.038c-.12-.02-.246-.03-.38-.03a1.78 1.78 0 0 0-.852.2 1.47 1.47 0 0 0-.801 1.334V19h-1.006Zm7.823 0v-.767l2.881-3.154c.338-.369.616-.69.835-.963.219-.275.381-.534.486-.775.108-.244.162-.5.162-.767 0-.307-.074-.573-.222-.797a1.442 1.442 0 0 0-.596-.52 1.935 1.935 0 0 0-.853-.183c-.335 0-.627.07-.877.209a1.437 1.437 0 0 0-.576.575c-.133.247-.2.537-.2.87h-1.006c0-.512.118-.961.354-1.347a2.46 2.46 0 0 1 .963-.904 2.903 2.903 0 0 1 1.376-.324c.512 0 .965.108 1.36.324.395.216.704.507.929.874.224.366.336.774.336 1.223 0 .32-.058.635-.174.942-.114.304-.313.643-.597 1.018-.281.372-.672.827-1.172 1.364l-1.96 2.096v.069h4.057V19h-5.506Zm8.016-1.116a.738.738 0 0 1-.541-.226.737.737 0 0 1-.226-.542c0-.21.075-.39.226-.54a.737.737 0 0 1 .541-.227c.21 0 .39.076.541.226.151.15.226.331.226.541 0 .14-.036.268-.107.384a.79.79 0 0 1-.277.281.727.727 0 0 1-.383.103Zm0-4.415a.737.737 0 0 1-.541-.226.737.737 0 0 1-.226-.541c0-.21.075-.39.226-.541a.737.737 0 0 1 .541-.226c.21 0 .39.075.541.226.151.15.226.33.226.54 0 .14-.036.268-.107.384a.79.79 0 0 1-.277.281.727.727 0 0 1-.383.103Zm5.623-3.196V19h-1.057v-7.62h-.051l-2.131 1.415v-1.073l2.182-1.45h1.057Zm5.288-.12a3.12 3.12 0 0 1 1.074.205c.358.133.685.355.98.665.295.306.533.726.712 1.257.179.531.268 1.197.268 1.998 0 .776-.074 1.465-.221 2.067-.145.6-.356 1.105-.631 1.517a2.799 2.799 0 0 1-.997.938c-.389.213-.83.32-1.321.32-.489 0-.925-.097-1.309-.29a2.569 2.569 0 0 1-.937-.814 2.838 2.838 0 0 1-.465-1.215h1.04c.094.4.28.732.558.993.282.259.652.388 1.113.388.673 0 1.204-.294 1.593-.882.392-.588.589-1.42.589-2.493h-.069a2.686 2.686 0 0 1-.566.618 2.503 2.503 0 0 1-1.581.54c-.5 0-.959-.123-1.377-.37a2.811 2.811 0 0 1-.997-1.027c-.247-.437-.371-.937-.371-1.5 0-.534.12-1.022.358-1.466.242-.446.58-.8 1.014-1.065.438-.264.952-.392 1.543-.384Zm0 .938c-.358 0-.68.09-.967.268-.284.177-.51.415-.678.716a2.02 2.02 0 0 0-.247.993c0 .364.08.695.239.993.162.296.382.531.66.707.281.174.601.26.959.26.27 0 .521-.052.754-.157.233-.108.436-.255.61-.44.176-.187.314-.398.413-.634a1.955 1.955 0 0 0-.098-1.705 1.961 1.961 0 0 0-.673-.724 1.743 1.743 0 0 0-.972-.277ZM313.629 19v-8.727h2.949c.685 0 1.245.123 1.679.37.438.245.762.576.972.993.21.418.315.884.315 1.398 0 .514-.105.982-.315 1.402-.208.42-.529.756-.963 1.006-.435.247-.992.37-1.671.37h-2.113v-.937h2.079c.469 0 .845-.081 1.129-.243.284-.162.49-.38.618-.656a2.19 2.19 0 0 0 .196-.942c0-.35-.065-.662-.196-.937a1.398 1.398 0 0 0-.622-.648c-.287-.16-.667-.239-1.142-.239h-1.858V19h-1.057Zm7.618-8.727h1.261l2.966 7.244h.102l2.966-7.244h1.261V19h-.988v-6.63h-.086L326.002 19h-.954l-2.728-6.63h-.085V19h-.988v-8.727Z"/>
  <path fill="#fff" d="M8.712 40.364h1.681l3.955 9.659h.136l3.955-9.66h1.682V52h-1.319v-8.84h-.113L15.053 52H13.78l-3.637-8.84h-.113V52H8.712V40.364Zm14.116 14.909a3 3 0 0 1-.608-.057 1.604 1.604 0 0 1-.37-.102l.341-1.182c.326.083.614.113.864.09.25-.022.472-.134.665-.334.197-.198.377-.518.54-.96l.25-.683-3.228-8.772h1.455l2.409 6.954h.09l2.41-6.954H29.1l-3.704 10a3.78 3.78 0 0 1-.62 1.119c-.246.3-.532.52-.857.665a2.645 2.645 0 0 1-1.091.216Zm14.738-12v1.136h-4.523v-1.136h4.523Zm-3.205-2.091h1.341V49.5c0 .379.055.663.165.852.114.186.258.31.432.375.178.06.365.091.562.091.148 0 .27-.007.364-.023l.227-.045.273 1.205a2.73 2.73 0 0 1-.38.102c-.164.038-.37.057-.62.057a2.7 2.7 0 0 1-1.114-.245 2.212 2.212 0 0 1-.897-.744c-.235-.333-.353-.754-.353-1.261v-8.682Zm7.874 11c-.788 0-1.48-.188-2.074-.563-.591-.375-1.053-.9-1.387-1.574-.33-.674-.494-1.462-.494-2.363 0-.91.165-1.703.494-2.38.334-.679.796-1.205 1.387-1.58.594-.375 1.286-.563 2.074-.563.788 0 1.477.188 2.068.563.595.375 1.057.901 1.386 1.58.334.677.5 1.47.5 2.38 0 .901-.166 1.69-.5 2.363a3.769 3.769 0 0 1-1.386 1.574c-.591.375-1.28.563-2.068.563Zm0-1.205c.598 0 1.09-.153 1.477-.46a2.72 2.72 0 0 0 .858-1.21c.185-.5.278-1.042.278-1.625 0-.584-.093-1.127-.278-1.63a2.75 2.75 0 0 0-.858-1.222c-.387-.311-.879-.466-1.477-.466-.599 0-1.091.155-1.478.466a2.75 2.75 0 0 0-.858 1.221 4.681 4.681 0 0 0-.278 1.63c0 .584.093 1.126.278 1.626.186.5.472.903.858 1.21.387.307.88.46 1.478.46ZM47.436 52v-8.727h1.295v1.363h.114a2.2 2.2 0 0 1 .88-1.085c.406-.261.893-.392 1.461-.392.576 0 1.055.13 1.438.392.386.258.687.62.903 1.085h.09c.224-.45.56-.808 1.007-1.074.447-.268.982-.403 1.607-.403.78 0 1.419.244 1.915.733.496.485.745 1.24.745 2.267V52H57.55v-5.84c0-.645-.176-1.105-.529-1.382a1.956 1.956 0 0 0-1.244-.414c-.614 0-1.09.185-1.426.556-.337.368-.506.834-.506 1.398V52h-1.364v-5.977c0-.497-.16-.896-.483-1.2-.322-.306-.736-.46-1.244-.46-.348 0-.674.093-.977.279-.3.186-.542.443-.727.773a2.281 2.281 0 0 0-.273 1.13V52h-1.341Zm15.674.205a3.545 3.545 0 0 1-1.505-.313 2.584 2.584 0 0 1-1.074-.915c-.265-.401-.398-.886-.398-1.454 0-.5.099-.906.296-1.216.197-.315.46-.56.79-.739a4.15 4.15 0 0 1 1.09-.398c.402-.09.805-.162 1.21-.215.53-.069.96-.12 1.29-.154.334-.038.576-.1.728-.187.155-.087.232-.239.232-.455v-.045c0-.561-.153-.997-.46-1.307-.303-.31-.763-.466-1.38-.466-.64 0-1.142.14-1.506.42-.364.28-.62.58-.767.898l-1.273-.454c.227-.53.53-.944.91-1.24a3.411 3.411 0 0 1 1.25-.624 5.19 5.19 0 0 1 1.34-.182c.28 0 .602.034.966.102a3.09 3.09 0 0 1 1.063.404c.344.204.63.513.857.926.228.413.341.966.341 1.659V52h-1.34v-1.182h-.07a2.33 2.33 0 0 1-.454.608c-.212.216-.495.4-.847.551-.352.152-.782.228-1.29.228ZM63.315 51c.53 0 .977-.104 1.34-.313a2.127 2.127 0 0 0 1.114-1.846v-1.227c-.056.068-.181.13-.375.187-.189.053-.409.1-.659.142a29.874 29.874 0 0 1-1.284.17 5.19 5.19 0 0 0-.977.222 1.67 1.67 0 0 0-.727.45c-.182.196-.273.465-.273.806 0 .466.172.818.517 1.057.349.235.79.352 1.324.352Zm9.238-7.727v1.136h-4.522v-1.136h4.522Zm-3.204-2.091h1.34V49.5c0 .379.056.663.166.852.113.186.257.31.431.375.178.06.366.091.563.091.147 0 .269-.007.363-.023l.228-.045.272 1.205a2.73 2.73 0 0 1-.38.102c-.163.038-.37.057-.62.057-.378 0-.75-.082-1.113-.245a2.213 2.213 0 0 1-.898-.744c-.235-.333-.352-.754-.352-1.261v-8.682Zm7.873 11c-.788 0-1.48-.188-2.074-.563-.59-.375-1.053-.9-1.386-1.574-.33-.674-.495-1.462-.495-2.363 0-.91.165-1.703.495-2.38.333-.679.795-1.205 1.386-1.58.595-.375 1.286-.563 2.074-.563.788 0 1.477.188 2.068.563.595.375 1.057.901 1.387 1.58.333.677.5 1.47.5 2.38 0 .901-.167 1.69-.5 2.363a3.769 3.769 0 0 1-1.387 1.574c-.59.375-1.28.563-2.068.563Zm0-1.205c.599 0 1.091-.153 1.477-.46.387-.307.673-.71.858-1.21.186-.5.279-1.042.279-1.625 0-.584-.093-1.127-.279-1.63a2.75 2.75 0 0 0-.858-1.222c-.386-.311-.878-.466-1.477-.466-.598 0-1.09.155-1.477.466a2.75 2.75 0 0 0-.858 1.221 4.681 4.681 0 0 0-.278 1.63c0 .584.092 1.126.278 1.626.186.5.472.903.858 1.21.386.307.879.46 1.477.46Zm8.902 4.296v-12h1.295v1.386h.16c.098-.151.234-.345.408-.58.178-.238.432-.45.762-.636.333-.19.784-.284 1.352-.284.735 0 1.382.184 1.943.551.56.368.998.889 1.313 1.563.314.674.471 1.47.471 2.386 0 .924-.157 1.726-.472 2.404-.314.674-.75 1.197-1.306 1.568-.557.367-1.2.55-1.926.55-.561 0-1.01-.092-1.347-.278-.337-.189-.597-.403-.778-.642a8.589 8.589 0 0 1-.42-.602h-.115v4.614h-1.34Zm1.318-7.637c0 .66.096 1.24.29 1.745.193.5.475.892.846 1.176.371.28.826.42 1.364.42.56 0 1.028-.147 1.403-.443.379-.3.663-.7.852-1.204.194-.508.29-1.072.29-1.694 0-.613-.094-1.166-.284-1.659-.186-.496-.468-.888-.847-1.176-.374-.291-.846-.437-1.414-.437-.546 0-1.004.138-1.375.414-.371.273-.652.656-.841 1.148-.19.489-.284 1.059-.284 1.71Zm8.972-7.272V52h-1.34V40.364h1.34Zm4.225 11.84a3.547 3.547 0 0 1-1.506-.312 2.584 2.584 0 0 1-1.074-.915c-.265-.401-.398-.886-.398-1.454 0-.5.099-.906.296-1.216.197-.315.46-.56.79-.739.33-.178.693-.31 1.09-.398.402-.09.805-.162 1.211-.215.53-.069.96-.12 1.289-.154.334-.038.576-.1.728-.187.155-.087.233-.239.233-.455v-.045c0-.561-.154-.997-.461-1.307-.303-.31-.763-.466-1.38-.466-.64 0-1.142.14-1.506.42-.364.28-.62.58-.767.898l-1.273-.454c.228-.53.53-.944.91-1.24a3.415 3.415 0 0 1 1.249-.624 5.196 5.196 0 0 1 1.341-.182 5.3 5.3 0 0 1 .966.102c.368.065.722.2 1.063.404.344.204.63.513.858.926.227.413.341.966.341 1.659V52h-1.341v-1.182h-.069a2.33 2.33 0 0 1-.454.608c-.212.216-.494.4-.847.551-.352.152-.782.228-1.289.228Zm.204-1.204c.53 0 .977-.104 1.341-.313.367-.208.644-.477.83-.806a2.06 2.06 0 0 0 .284-1.04v-1.227c-.057.068-.182.13-.375.187-.19.053-.409.1-.659.142a30.34 30.34 0 0 1-1.285.17 5.19 5.19 0 0 0-.977.222 1.685 1.685 0 0 0-.727.45c-.182.196-.273.465-.273.806 0 .466.173.818.517 1.057.349.235.79.352 1.324.352Zm6.784-4.25V52h-1.341v-8.727h1.295v1.363h.114c.205-.443.515-.799.932-1.068.417-.273.954-.409 1.614-.409.59 0 1.108.121 1.551.364a2.45 2.45 0 0 1 1.034 1.09c.246.486.369 1.1.369 1.842V52h-1.341v-5.455c0-.685-.178-1.22-.534-1.602-.356-.386-.845-.58-1.466-.58-.428 0-.81.093-1.148.279a1.992 1.992 0 0 0-.789.813c-.193.356-.29.787-.29 1.295Zm11.014-3.477v1.136h-4.523v-1.136h4.523Zm-3.205-2.091h1.341V49.5c0 .379.055.663.165.852.114.186.258.31.432.375.178.06.365.091.562.091.148 0 .269-.007.364-.023l.227-.045.273 1.205a2.733 2.733 0 0 1-.381.102 2.8 2.8 0 0 1-.619.057 2.7 2.7 0 0 1-1.114-.245 2.205 2.205 0 0 1-.897-.744c-.235-.333-.353-.754-.353-1.261v-8.682Zm9.463-.818V52h-1.341V40.364h1.341Zm5.315 11.818c-.841 0-1.566-.186-2.176-.557a3.742 3.742 0 0 1-1.404-1.568c-.325-.674-.488-1.459-.488-2.352 0-.894.163-1.682.488-2.364.33-.686.788-1.22 1.375-1.602.591-.387 1.281-.58 2.068-.58.455 0 .904.076 1.347.227.443.152.847.398 1.21.739.364.337.654.784.87 1.34.216.558.323 1.243.323 2.058v.568H127.1v-1.16h5.364c0-.492-.099-.931-.296-1.317a2.223 2.223 0 0 0-.829-.915c-.356-.224-.777-.335-1.262-.335-.534 0-.996.132-1.386.397a2.615 2.615 0 0 0-.892 1.023c-.208.42-.312.871-.312 1.352v.773c0 .66.113 1.218.34 1.676.232.455.552.801.961 1.04.409.235.884.352 1.426.352.352 0 .67-.049.954-.147.288-.103.536-.254.745-.455.208-.205.369-.458.483-.761l1.295.363a2.87 2.87 0 0 1-.687 1.16 3.35 3.35 0 0 1-1.194.772 4.42 4.42 0 0 1-1.596.273Zm7.421.023a3.543 3.543 0 0 1-1.505-.313 2.582 2.582 0 0 1-1.074-.915c-.265-.401-.398-.886-.398-1.454 0-.5.099-.906.296-1.216.197-.315.46-.56.789-.739a4.2 4.2 0 0 1 1.091-.398c.402-.09.805-.162 1.211-.215.53-.069.96-.12 1.289-.154.334-.038.576-.1.728-.187.155-.087.233-.239.233-.455v-.045c0-.561-.154-.997-.461-1.307-.303-.31-.763-.466-1.38-.466-.641 0-1.142.14-1.506.42-.364.28-.619.58-.767.898l-1.273-.454c.227-.53.53-.944.909-1.24.383-.298.8-.507 1.25-.624a5.196 5.196 0 0 1 1.341-.182c.28 0 .602.034.966.102.368.065.722.2 1.063.404.344.204.63.513.858.926.227.413.34.966.34 1.659V52h-1.34v-1.182h-.069c-.091.19-.242.392-.454.608-.212.216-.495.4-.847.551-.352.152-.782.228-1.29.228ZM137.84 51c.53 0 .977-.104 1.341-.313.367-.208.644-.477.829-.806.19-.33.285-.676.285-1.04v-1.227c-.057.068-.182.13-.375.187-.19.053-.41.1-.66.142a29.56 29.56 0 0 1-1.284.17 5.19 5.19 0 0 0-.977.222 1.681 1.681 0 0 0-.727.45c-.182.196-.273.465-.273.806 0 .466.172.818.517 1.057.349.235.79.352 1.324.352Zm12.267-7.727L146.879 52h-1.363l-3.227-8.727h1.454l2.409 6.954h.091l2.409-6.954h1.455Zm4.316 8.909c-.841 0-1.566-.186-2.176-.557a3.733 3.733 0 0 1-1.403-1.568c-.326-.674-.489-1.459-.489-2.352 0-.894.163-1.682.489-2.364.329-.686.788-1.22 1.375-1.602.591-.387 1.28-.58 2.068-.58.454 0 .903.076 1.346.227.444.152.847.398 1.211.739.363.337.653.784.869 1.34.216.558.324 1.243.324 2.058v.568h-6.727v-1.16h5.363c0-.492-.098-.931-.295-1.317a2.225 2.225 0 0 0-.83-.915c-.356-.224-.776-.335-1.261-.335-.534 0-.996.132-1.386.397a2.618 2.618 0 0 0-.893 1.023c-.208.42-.312.871-.312 1.352v.773c0 .66.114 1.218.341 1.676.231.455.551.801.96 1.04.409.235.885.352 1.426.352a2.9 2.9 0 0 0 .955-.147c.288-.103.536-.254.744-.455.208-.205.369-.458.483-.761l1.296.363a2.88 2.88 0 0 1-.688 1.16c-.322.329-.72.587-1.193.772a4.43 4.43 0 0 1-1.597.273Zm11.035-6.955-1.204.341a2.262 2.262 0 0 0-.335-.585 1.628 1.628 0 0 0-.591-.477c-.25-.125-.57-.188-.96-.188-.535 0-.98.123-1.336.37-.352.242-.528.55-.528.926 0 .333.121.596.364.79.242.193.621.354 1.136.482l1.295.319c.781.189 1.362.479 1.745.869.382.386.574.884.574 1.494 0 .5-.144.947-.432 1.341-.284.394-.682.705-1.193.932-.512.227-1.107.34-1.785.34-.89 0-1.626-.192-2.21-.579-.583-.386-.952-.95-1.108-1.693l1.273-.318c.121.47.35.822.687 1.057.341.235.786.352 1.336.352.625 0 1.121-.133 1.488-.398.372-.269.557-.59.557-.966 0-.303-.106-.556-.318-.761-.212-.208-.538-.364-.977-.466l-1.455-.34c-.799-.19-1.386-.484-1.761-.882-.371-.401-.557-.903-.557-1.505 0-.493.138-.928.415-1.307a2.82 2.82 0 0 1 1.142-.892c.485-.216 1.034-.324 1.648-.324.863 0 1.541.19 2.034.568a3.06 3.06 0 0 1 1.056 1.5Zm7.646 6.978a3.54 3.54 0 0 1-1.505-.313 2.582 2.582 0 0 1-1.074-.915c-.265-.401-.398-.886-.398-1.454 0-.5.098-.906.295-1.216a2.09 2.09 0 0 1 .79-.739c.33-.178.693-.31 1.091-.398.402-.09.805-.162 1.21-.215.531-.069.961-.12 1.29-.154.333-.038.576-.1.727-.187.156-.087.233-.239.233-.455v-.045c0-.561-.153-.997-.46-1.307-.303-.31-.763-.466-1.381-.466-.64 0-1.142.14-1.505.42-.364.28-.62.58-.767.898l-1.273-.454c.227-.53.53-.944.909-1.24a3.419 3.419 0 0 1 1.25-.624 5.196 5.196 0 0 1 1.341-.182c.28 0 .602.034.966.102.367.065.721.2 1.062.404.345.204.631.513.858.926.228.413.341.966.341 1.659V52h-1.341v-1.182h-.068c-.091.19-.242.392-.454.608-.213.216-.495.4-.847.551-.352.152-.782.228-1.29.228Zm.205-1.205c.53 0 .977-.104 1.341-.313a2.124 2.124 0 0 0 1.113-1.846v-1.227c-.057.068-.182.13-.375.187a6.29 6.29 0 0 1-.659.142 30.27 30.27 0 0 1-1.284.17 5.19 5.19 0 0 0-.977.222 1.681 1.681 0 0 0-.727.45c-.182.196-.273.465-.273.806 0 .466.172.818.517 1.057.348.235.79.352 1.324.352Zm5.443 1v-8.727h1.295v1.318h.091c.159-.432.447-.782.864-1.051a2.54 2.54 0 0 1 1.409-.404c.098 0 .221.002.369.006s.26.01.335.017v1.364a3.926 3.926 0 0 0-.312-.051 3.08 3.08 0 0 0-.506-.04c-.424 0-.803.089-1.136.267a1.955 1.955 0 0 0-1.068 1.778V52h-1.341Zm8.546.182c-.841 0-1.566-.186-2.176-.557a3.733 3.733 0 0 1-1.403-1.568c-.326-.674-.489-1.459-.489-2.352 0-.894.163-1.682.489-2.364.329-.686.788-1.22 1.375-1.602.591-.387 1.28-.58 2.068-.58.454 0 .903.076 1.346.227.444.152.847.398 1.211.739.363.337.653.784.869 1.34.216.558.324 1.243.324 2.058v.568h-6.727v-1.16h5.363c0-.492-.098-.931-.295-1.317a2.225 2.225 0 0 0-.83-.915c-.356-.224-.776-.335-1.261-.335-.534 0-.996.132-1.386.397a2.618 2.618 0 0 0-.893 1.023c-.208.42-.312.871-.312 1.352v.773c0 .66.114 1.218.341 1.676.231.455.551.801.96 1.04.409.235.885.352 1.426.352a2.9 2.9 0 0 0 .955-.147c.288-.103.536-.254.744-.455.208-.205.369-.458.483-.761l1.296.363a2.88 2.88 0 0 1-.688 1.16c-.322.329-.72.587-1.193.772a4.43 4.43 0 0 1-1.597.273Zm12.349-8.91v1.137h-4.523v-1.136h4.523Zm-3.204-2.09h1.34V49.5c0 .379.055.663.165.852.114.186.258.31.432.375.178.06.366.091.563.091.147 0 .268-.007.363-.023l.227-.045.273 1.205a2.733 2.733 0 0 1-.381.102 2.793 2.793 0 0 1-.619.057c-.379 0-.75-.082-1.113-.245a2.208 2.208 0 0 1-.898-.744c-.235-.333-.352-.754-.352-1.261v-8.682Zm9.921 7.25v-5.16h1.341V52h-1.341v-1.477h-.091c-.204.443-.522.82-.954 1.13-.432.307-.978.46-1.637.46-.545 0-1.03-.119-1.454-.357-.424-.243-.758-.606-1-1.091-.243-.489-.364-1.104-.364-1.847v-5.545h1.341v5.454c0 .637.178 1.144.534 1.523.36.379.818.568 1.375.568a2.29 2.29 0 0 0 1.017-.255c.349-.171.64-.432.875-.785.239-.352.358-.8.358-1.346ZM209.361 52v-8.727h1.295v1.318h.091c.159-.432.447-.782.864-1.051a2.541 2.541 0 0 1 1.409-.404c.099 0 .222.002.369.006.148.004.26.01.336.017v1.364a4.073 4.073 0 0 0-.313-.051 3.071 3.071 0 0 0-.506-.04c-.424 0-.803.089-1.136.267a2.016 2.016 0 0 0-.784.727 1.964 1.964 0 0 0-.284 1.051V52h-1.341Zm6.494-5.25V52h-1.341v-8.727h1.296v1.363h.113c.205-.443.515-.799.932-1.068.417-.273.955-.409 1.614-.409.591 0 1.108.121 1.551.364a2.45 2.45 0 0 1 1.034 1.09c.246.486.369 1.1.369 1.842V52h-1.341v-5.455c0-.685-.178-1.22-.534-1.602-.356-.386-.844-.58-1.466-.58-.428 0-.81.093-1.147.279a1.988 1.988 0 0 0-.79.813c-.193.356-.29.787-.29 1.295Zm7.219 5.25v-8.727h1.34V52h-1.34Zm.681-10.182a.954.954 0 0 1-.676-.267.86.86 0 0 1-.278-.642.86.86 0 0 1 .278-.642.955.955 0 0 1 .676-.267c.262 0 .485.089.671.267a.851.851 0 0 1 .284.642c0 .25-.095.464-.284.642a.934.934 0 0 1-.671.267Zm3.656 4.932V52h-1.341v-8.727h1.296v1.363h.113a2.5 2.5 0 0 1 .932-1.068c.417-.273.955-.409 1.614-.409.591 0 1.108.121 1.551.364a2.45 2.45 0 0 1 1.034 1.09c.246.486.369 1.1.369 1.842V52h-1.34v-5.455c0-.685-.178-1.22-.535-1.602-.356-.386-.844-.58-1.465-.58a2.34 2.34 0 0 0-1.148.279 1.994 1.994 0 0 0-.79.813c-.193.356-.29.787-.29 1.295Zm10.741 8.705c-.647 0-1.204-.084-1.67-.25a3.546 3.546 0 0 1-1.165-.648 3.542 3.542 0 0 1-.733-.852l1.068-.75c.122.159.275.34.461.545.185.208.439.388.761.54.326.155.752.233 1.278.233.705 0 1.286-.17 1.745-.512.458-.34.687-.875.687-1.602v-1.773h-.113a7.34 7.34 0 0 1-.421.591c-.178.231-.435.438-.773.62-.333.178-.784.267-1.352.267a3.648 3.648 0 0 1-1.898-.5c-.556-.334-.998-.819-1.323-1.455-.322-.636-.483-1.409-.483-2.318 0-.894.157-1.672.471-2.335.315-.667.752-1.182 1.313-1.546.56-.367 1.208-.55 1.943-.55.568 0 1.019.094 1.352.283.337.186.595.398.773.637.182.234.322.428.42.58h.137v-1.387h1.295v8.977c0 .75-.17 1.36-.511 1.83-.337.473-.792.82-1.364 1.04a5.155 5.155 0 0 1-1.898.335Zm-.045-4.796c.538 0 .992-.123 1.364-.37.371-.245.653-.6.846-1.062.193-.462.29-1.015.29-1.659 0-.629-.095-1.183-.284-1.665-.189-.48-.47-.858-.841-1.13-.371-.273-.83-.41-1.375-.41-.568 0-1.042.145-1.42.432a2.627 2.627 0 0 0-.847 1.16 4.473 4.473 0 0 0-.278 1.613c0 .606.094 1.142.284 1.608.193.462.477.826.852 1.091.379.261.848.392 1.409.392Zm10.036 4.614a3 3 0 0 1-.608-.057 1.597 1.597 0 0 1-.369-.102l.341-1.182c.326.083.614.113.864.09.25-.022.471-.134.664-.334.197-.198.377-.518.54-.96l.25-.683-3.227-8.772h1.454l2.41 6.954h.09l2.41-6.954h1.454l-3.704 10c-.167.45-.374.824-.62 1.119-.246.3-.532.52-.858.665a2.643 2.643 0 0 1-1.091.216Zm10.59-3.091c-.841 0-1.567-.186-2.177-.557a3.74 3.74 0 0 1-1.403-1.568c-.326-.674-.489-1.459-.489-2.352 0-.894.163-1.682.489-2.364.33-.686.788-1.22 1.375-1.602.591-.387 1.28-.58 2.068-.58.455 0 .904.076 1.347.227a3.34 3.34 0 0 1 1.21.739c.364.337.653.784.869 1.34.216.558.324 1.243.324 2.058v.568h-6.727v-1.16h5.364c0-.492-.099-.931-.296-1.317a2.23 2.23 0 0 0-.829-.915c-.356-.224-.777-.335-1.262-.335-.534 0-.996.132-1.386.397a2.615 2.615 0 0 0-.892 1.023c-.209.42-.313.871-.313 1.352v.773c0 .66.114 1.218.341 1.676.231.455.551.801.96 1.04.41.235.885.352 1.427.352.352 0 .67-.049.954-.147.288-.103.536-.254.744-.455.209-.205.37-.458.483-.761l1.296.363a2.87 2.87 0 0 1-.688 1.16 3.344 3.344 0 0 1-1.193.772 4.42 4.42 0 0 1-1.596.273Zm6.194-11.818V52h-1.341V40.364h1.341Zm2.997 0V52h-1.341V40.364h1.341Zm5.201 11.818c-.788 0-1.479-.188-2.074-.563-.591-.375-1.053-.9-1.386-1.574-.33-.674-.494-1.462-.494-2.363 0-.91.164-1.703.494-2.38.333-.679.795-1.205 1.386-1.58.595-.375 1.286-.563 2.074-.563.788 0 1.477.188 2.068.563.595.375 1.057.901 1.387 1.58.333.677.5 1.47.5 2.38 0 .901-.167 1.69-.5 2.363-.33.675-.792 1.2-1.387 1.574-.591.375-1.28.563-2.068.563Zm0-1.205c.599 0 1.091-.153 1.477-.46.387-.307.673-.71.858-1.21.186-.5.279-1.042.279-1.625 0-.584-.093-1.127-.279-1.63a2.74 2.74 0 0 0-.858-1.222c-.386-.311-.878-.466-1.477-.466-.598 0-1.091.155-1.477.466-.386.31-.672.717-.858 1.221a4.672 4.672 0 0 0-.278 1.63c0 .584.092 1.126.278 1.626.186.5.472.903.858 1.21.386.307.879.46 1.477.46ZM280.007 52l-2.659-8.727h1.409l1.886 6.681h.091l1.864-6.681h1.432l1.841 6.659h.091l1.886-6.66h1.409L286.598 52h-1.318l-1.909-6.705h-.137L281.325 52h-1.318Zm10.013.09a.985.985 0 0 1-.722-.3.983.983 0 0 1-.301-.722c0-.28.1-.52.301-.721a.984.984 0 0 1 .722-.302c.28 0 .52.1.721.302.201.2.301.44.301.721a.96.96 0 0 1-.142.512c-.091.155-.214.28-.369.375a.975.975 0 0 1-.511.136Z"/>
</svg>
