<svg xmlns="http://www.w3.org/2000/svg" width="119" height="28" fill="none" viewBox="0 0 119 28">
  <circle cx="14" cy="14" r="13.5" fill="#fff" stroke="#E3E3E3"/>
  <path fill="#003DF5" d="M17.044 7.913h-6.087a3.038 3.038 0 0 0-3.044 3.031v4.249a3.038 3.038 0 0 0 3.044 3.031h.913a.7.7 0 0 1 .487.244l.913 1.211c.401.536 1.059.536 1.46 0l.913-1.211a.617.617 0 0 1 .488-.244h.913a3.038 3.038 0 0 0 3.043-3.031v-4.249a3.038 3.038 0 0 0-3.043-3.031ZM11.565 14a.607.607 0 0 1-.608-.609.61.61 0 0 1 .608-.608.61.61 0 0 1 .609.608.607.607 0 0 1-.609.609ZM14 14a.607.607 0 0 1-.609-.609.61.61 0 0 1 .609-.608.61.61 0 0 1 .609.608A.607.607 0 0 1 14 14Zm2.435 0a.607.607 0 0 1-.609-.609.61.61 0 0 1 .609-.608.61.61 0 0 1 .609.608.607.607 0 0 1-.61.609Z"/>
  <path fill="#fff" d="M41 26.353c0-9.672 0-14.508 2.022-18.139a16 16 0 0 1 6.192-6.192C52.844 0 57.681 0 67.353 0H105c7.732 0 14 6.268 14 14s-6.268 14-14 14H42.647c-.605 0-.907 0-1.134-.126a1 1 0 0 1-.387-.387C41 27.26 41 26.957 41 26.353Z"/>
  <circle cx="65.5" cy="14" r="4.5" fill="#D8D4D4"/>
  <circle cx="78.5" cy="14" r="4.5" fill="#BDBBBB"/>
  <circle cx="93" cy="14" r="6" fill="#939393"/>
</svg>
