<svg id="Layer_1" data-name="Layer 1" xmlns="http://www.w3.org/2000/svg" viewBox="0 0 25 25"><defs><style>.cls-1{fill:#010101;fill-rule:evenodd;}</style></defs><path class="cls-1" d="M4.12,5.43a1,1,0,0,0,0-2,1,1,0,1,0,0,2Zm0-1.3a.29.29,0,0,1,0,.57.29.29,0,1,1,0-.57Zm2.42,1.3a1,1,0,0,0,0-2,1,1,0,1,0,0,2Zm0-1.3a.29.29,0,0,1,0,.57.29.29,0,1,1,0-.57ZM9,5.43a1,1,0,0,0,1-1,1,1,0,1,0-2,0A1,1,0,0,0,9,5.43Zm0-1.3a.29.29,0,1,1-.28.28A.29.29,0,0,1,9,4.13Zm2.12.29a.36.36,0,0,1,.36-.37h8a.37.37,0,1,1,0,.73h-8A.36.36,0,0,1,11.07,4.42ZM23.85,17.06l-.9-.29s0,0,0,0l.43-.84a.82.82,0,0,0-.15-1l-.69-.69a.81.81,0,0,0-.61-.24V3.56A1.56,1.56,0,0,0,20.34,2H2.56A1.56,1.56,0,0,0,1,3.56V19.18a1.56,1.56,0,0,0,1.55,1.56h12.3l0,.06a.83.83,0,0,0,.15,1l.7.7a.84.84,0,0,0,1,.15l.85-.43,0,0,.3.9a.82.82,0,0,0,.78.57h1a.83.83,0,0,0,.79-.58l.29-.89,0,0,.84.43a.85.85,0,0,0,1-.15l.69-.7a.8.8,0,0,0,.15-1L22.94,20s0,0,0,0l.9-.29a.84.84,0,0,0,.57-.79v-1A.83.83,0,0,0,23.85,17.06ZM2.56,2.73H20.34a.83.83,0,0,1,.83.82V6.1H1.74V3.56A.83.83,0,0,1,2.56,2.73ZM2.56,20a.83.83,0,0,1-.82-.83V6.84H21.17v7.43l-.46.24,0,0-.29-.9a.84.84,0,0,0-.79-.57h-1a.84.84,0,0,0-.79.57l-.29.9,0,0-.84-.43a.82.82,0,0,0-1,.15l-.7.7a.82.82,0,0,0-.15,1l.43.84s0,0,0,0l-.9.29a.83.83,0,0,0-.57.79v1a.84.84,0,0,0,.57.79l.9.29s0,0,0,0l0,.05Zm21.13-1.17a.11.11,0,0,1-.07.09l-1.07.34a.37.37,0,0,0-.23.23,2.58,2.58,0,0,1-.13.31.4.4,0,0,0,0,.32l.51,1a.09.09,0,0,1,0,.11l-.7.7a.08.08,0,0,1-.11,0l-1-.5a.33.33,0,0,0-.32,0l-.31.13a.34.34,0,0,0-.22.23l-.35,1.07a.09.09,0,0,1-.09.06h-1a.09.09,0,0,1-.09-.06l-.35-1.07a.32.32,0,0,0-.22-.23l-.31-.13a.42.42,0,0,0-.16,0,.47.47,0,0,0-.16,0l-1,.51a.08.08,0,0,1-.11,0l-.7-.69a.11.11,0,0,1,0-.12l.51-1a.38.38,0,0,0,0-.33,1.94,1.94,0,0,1-.13-.3.37.37,0,0,0-.23-.23l-1.07-.34a.1.1,0,0,1-.06-.1v-1a.1.1,0,0,1,.06-.1l1.07-.34a.37.37,0,0,0,.23-.23c0-.1.08-.2.13-.3a.35.35,0,0,0,0-.33l-.51-1a.11.11,0,0,1,0-.12l.7-.7a.09.09,0,0,1,.11,0l1,.51a.36.36,0,0,0,.32,0l.31-.13a.32.32,0,0,0,.22-.23l.35-1.06a.09.09,0,0,1,.09-.07h1a.08.08,0,0,1,.09.06L20,14.88a.32.32,0,0,0,.22.23l.31.13a.36.36,0,0,0,.32,0l.82-.42h0l.17-.08a.09.09,0,0,1,.11,0l.7.69a.12.12,0,0,1,0,.12l-.51,1a.39.39,0,0,0,0,.32,1.58,1.58,0,0,1,.13.31.36.36,0,0,0,.23.22l1.07.35a.09.09,0,0,1,.07.09ZM19.1,15.9a2.45,2.45,0,1,0,2.44,2.44A2.45,2.45,0,0,0,19.1,15.9Zm0,4.15a1.71,1.71,0,1,1,1.71-1.71A1.7,1.7,0,0,1,19.1,20.05ZM4.36,12.6H18.55a.36.36,0,0,0,.36-.37V8.49a.36.36,0,0,0-.36-.36H4.36A.37.37,0,0,0,4,8.49v3.74A.37.37,0,0,0,4.36,12.6Zm.37-3.74H18.18v3H4.73ZM4,14.2a.37.37,0,0,1,.37-.36h9.73a.37.37,0,1,1,0,.73H4.36A.37.37,0,0,1,4,14.2Zm9.78,2.08a.37.37,0,0,1-.36.37h-9a.37.37,0,1,1,0-.74h9.05A.37.37,0,0,1,13.77,16.28ZM13,18.35a.37.37,0,0,1-.36.37H4.36a.37.37,0,1,1,0-.74h8.27A.37.37,0,0,1,13,18.35Z"/></svg>