<svg id="Layer_1" data-name="Layer 1" xmlns="http://www.w3.org/2000/svg" viewBox="0 0 25 25"><defs><style>.cls-1{fill:#010101;fill-rule:evenodd;}</style></defs><path class="cls-1" d="M23.5,1.85h-22A1.49,1.49,0,0,0,0,3.34V21.65a1.5,1.5,0,0,0,1.49,1.5h22A1.5,1.5,0,0,0,25,21.65V3.34A1.5,1.5,0,0,0,23.5,1.85Zm-22,.63h22a.87.87,0,0,1,.86.86V6.22H.62V3.34A.87.87,0,0,1,1.49,2.48Zm22,20h-22a.87.87,0,0,1-.87-.87V6.84H24.37V21.65A.87.87,0,0,1,23.5,22.52Z"/><path class="cls-1" d="M2,4.84h9.54a.31.31,0,0,0,0-.62H2a.31.31,0,0,0,0,.62Z"/><path class="cls-1" d="M14.68,4.84h1.47a.31.31,0,0,0,0-.62H14.68a.31.31,0,1,0,0,.62Z"/><path class="cls-1" d="M17.66,4.84h1.47a.31.31,0,0,0,0-.62H17.66a.31.31,0,1,0,0,.62Z"/><path class="cls-1" d="M20.63,4.84H22.1a.31.31,0,1,0,0-.62H20.63a.31.31,0,0,0,0,.62Z"/><path class="cls-1" d="M12.5,9.08H2.37a.64.64,0,0,0-.64.64V19.85a.64.64,0,0,0,.64.65H12.5a.64.64,0,0,0,.63-.65V9.72A.64.64,0,0,0,12.5,9.08Zm0,10.77v0l-10.15,0,0-10.14H12.51Z"/><path class="cls-1" d="M9.2,14.6a1.72,1.72,0,0,0,1.71-1.71v-.05a.31.31,0,0,0-.31-.31H9.52v-1a.31.31,0,0,0-.32-.31,1.71,1.71,0,0,0,0,3.41Z"/><path class="cls-1" d="M10.08,12.37h1.4a.31.31,0,0,0,.31-.32.25.25,0,0,0,0-.08,1.71,1.71,0,0,0-1.7-1.57.31.31,0,0,0-.31.32v1.33A.31.31,0,0,0,10.08,12.37Z"/><path class="cls-1" d="M4.55,16.3H3.39a.31.31,0,0,0-.31.31v2.23a.31.31,0,0,0,.31.31H4.55a.31.31,0,0,0,.31-.31V16.61A.31.31,0,0,0,4.55,16.3Z"/><path class="cls-1" d="M6.85,14.43H5.7a.31.31,0,0,0-.31.31v4.1a.31.31,0,0,0,.31.31H6.85a.32.32,0,0,0,.32-.31v-4.1A.32.32,0,0,0,6.85,14.43Z"/><path class="cls-1" d="M9.16,16.3H8a.31.31,0,0,0-.31.31v2.23a.31.31,0,0,0,.31.31H9.16a.32.32,0,0,0,.32-.31V16.61A.33.33,0,0,0,9.16,16.3Z"/><path class="cls-1" d="M11.47,15.12H10.31a.31.31,0,0,0-.31.31v3.41a.31.31,0,0,0,.31.31h1.16a.32.32,0,0,0,.32-.31V15.43A.31.31,0,0,0,11.47,15.12Z"/><path class="cls-1" d="M21.78,16.56H15.2a.63.63,0,0,0-.63.62v2.68a.64.64,0,0,0,.63.64h6.58a.64.64,0,0,0,.63-.64V17.18A.63.63,0,0,0,21.78,16.56Z"/><path class="cls-1" d="M22.1,11H14.88a.31.31,0,0,0-.31.31.32.32,0,0,0,.31.32h7.21a.32.32,0,0,0,.32-.32A.31.31,0,0,0,22.1,11Z"/><path class="cls-1" d="M22.1,12.87H14.88a.32.32,0,0,0,0,.63h7.21a.32.32,0,1,0,0-.63Z"/><path class="cls-1" d="M22.1,14.78H14.88a.31.31,0,0,0,0,.62h7.21a.31.31,0,1,0,0-.62Z"/><path class="cls-1" d="M22.1,9.08H14.88a.32.32,0,0,0,0,.63h7.21a.32.32,0,0,0,0-.63Z"/></svg>