<svg xmlns="http://www.w3.org/2000/svg" version="1.1" viewBox="0 0 100 100">
 <path d="m92.574 33.574c-0.69141-1.1953-1.8047-2.0508-3.1367-2.4102-1.3359-0.35937-2.7266-0.17578-3.9219 0.51563-1.1953 0.69141-2.0508 1.8047-2.4062 3.1367l-2.7188 10.141c-0.28125-0.21484-0.58594-0.41016-0.92578-0.58594-4.5156-2.3242-7.0273 1.8242-9.457 5.8398-1.8867 3.1133-4.0234 6.6445-7.4453 9.0469-8.5547 6.0078-8.3086 13.613-8.2422 14.562v10.098h-8.6367v-10.098c0.066406-0.94531 0.3125-8.5547-8.2422-14.562-3.4219-2.4023-5.5586-5.9336-7.4453-9.0469-2.4297-4.0117-4.9453-8.168-9.457-5.8398-0.33984 0.17578-0.64453 0.37109-0.92578 0.58594l-2.7188-10.145c-0.35547-1.332-1.2148-2.4453-2.4062-3.1367-1.1953-0.6875-2.5859-0.875-3.9219-0.51562-1.3359 0.35547-2.4492 1.2148-3.1406 2.4102-0.6875 1.1953-0.87109 2.5898-0.51562 3.918l5.6562 21.121c1.0469 3.8945 4.7695 7.8008 4.9492 7.9883l9.668 9.668v7.6484l-6.2422 0.007813c-0.82812 0-1.5 0.67188-1.5 1.5s0.67188 1.5 1.5 1.5h59.906c0.82812 0 1.5-0.67188 1.5-1.5s-0.67188-1.5-1.5-1.5h-8.0312v-7.6484l9.6875-9.6875c0.15625-0.16406 3.8828-4.0703 4.9297-7.9688l5.6562-21.121c0.35547-1.332 0.17188-2.7266-0.51562-3.9219zm-62.828 41.016-10.086-10.09c-0.92969-0.96484-3.4922-4.043-4.1914-6.6641l-5.6562-21.121c-0.14844-0.55859-0.074219-1.1406 0.21484-1.6445 0.28906-0.5 0.75781-0.85937 1.3164-1.0117 0.55469-0.14844 1.1406-0.074219 1.6445 0.21484 0.5 0.28906 0.85938 0.75781 1.0117 1.3164l3.668 13.691c0.070312 3.4062 2.5742 7.4141 4.6523 10.73 0.73828 1.1836 1.3789 2.2031 1.7188 2.9102 0.35547 0.75 1.2539 1.0664 2 0.70703 0.74609-0.35547 1.0664-1.25 0.71094-2-0.41406-0.86328-1.0938-1.9531-1.8828-3.2148-1.9023-3.0391-4.7773-7.6289-4.1094-10.066 0.097657-0.35938 0.32422-0.88672 1.1602-1.3164 1.7695-0.91406 2.7695 0.1875 5.5156 4.7266 1.9375 3.1992 4.3516 7.1836 8.2852 9.9492 7.4531 5.2305 6.9961 11.641 6.9766 11.902-0.003906 0.046875-0.007812 0.097656-0.007812 0.14453v10.156l-12.5 0.011719v-8.2734c0-0.39453-0.16016-0.77734-0.44141-1.0586zm60.441-37.871-5.6562 21.121c-0.84375 3.1445-4.1602 6.6289-4.1719 6.6445l-10.105 10.105c-0.28125 0.28125-0.4375 0.66406-0.4375 1.0625v8.2695h-12.5v-10.156c0-0.050781-0.003906-0.097656-0.007812-0.14453-0.007813-0.066406-0.55469-6.6172 6.9766-11.902 3.9375-2.7617 6.3477-6.7461 8.2852-9.9492 2.75-4.543 3.75-5.6367 5.5195-4.7266 0.83594 0.42969 1.0625 0.95703 1.1602 1.3164 0.66797 2.4375-2.207 7.0273-4.1094 10.066-0.78906 1.2617-1.4727 2.3477-1.8828 3.2148-0.35547 0.74609-0.039062 1.6445 0.71094 2 0.74609 0.35547 1.6406 0.039063 2-0.70703 0.33984-0.71094 0.97656-1.7305 1.7188-2.9102 2.0781-3.3164 4.5781-7.3242 4.6523-10.73l3.668-13.691c0.14844-0.55859 0.50781-1.0273 1.0117-1.3164 0.5-0.28906 1.082-0.36328 1.6445-0.21484 0.55859 0.14844 1.0273 0.50781 1.3164 1.0117 0.28125 0.49219 0.35938 1.0742 0.20703 1.6367z"/>
 <path d="m48.941 53.797c0.29297 0.29297 0.67578 0.4375 1.0625 0.4375 0.38281 0 0.76953-0.14453 1.0625-0.4375l17.285-17.285c5.3516-5.3516 5.3516-14.059 0-19.41-2.5938-2.5938-6.0391-4.0195-9.7031-4.0195-3.1875 0-6.207 1.0781-8.6445 3.0625-5.3867-4.3711-13.34-4.0547-18.348 0.95703-2.5938 2.5938-4.0195 6.0391-4.0195 9.7031 0 3.6641 1.4297 7.1133 4.0195 9.7031zm-15.168-34.578c2.0898-2.0898 4.8398-3.1367 7.5859-3.1367s5.4922 1.0469 7.5859 3.1367c0.5625 0.5625 1.5586 0.5625 2.1211 0 2.0234-2.0234 4.7188-3.1406 7.582-3.1406 2.8633 0 5.5586 1.1172 7.5859 3.1406 4.1797 4.1797 4.1797 10.984 0 15.168l-16.234 16.23-16.227-16.23c-2.0234-2.0273-3.1406-4.7188-3.1406-7.5859 0-2.8633 1.1133-5.5547 3.1406-7.582z"/>
</svg>