<svg xmlns="http://www.w3.org/2000/svg" width="440" height="852" fill="none" viewBox="0 0 440 852">
  <path fill="#fff" d="M-4.5 749.5h449v63h-449z"/>
  <path stroke="#E3E3E3" d="M-4.5 749.5h449v63h-449z"/>
  <path fill="#667085" d="M277.674 782.359c0 3.009 1.965 5.129 4.833 5.129 2.854 0 4.819-2.12 4.819-5.129v-8.23c0-3.022-1.965-5.129-4.819-5.129-2.868 0-4.833 2.107-4.833 5.129v8.23Zm2.005 0v-8.23c0-1.936 1.128-3.179 2.828-3.179 1.699 0 2.814 1.243 2.814 3.179v8.23c0 1.936-1.115 3.179-2.814 3.179-1.7 0-2.828-1.243-2.828-3.179Zm-6.679.471c0 5.129 3.439 8.727 8.498 9.146v3.048h-4.926c-.558 0-1.009.445-1.009.995 0 .549.451.981 1.009.981h11.856c.558 0 1.009-.432 1.009-.981 0-.55-.451-.995-1.009-.995h-4.926v-3.048c5.072-.419 8.498-4.017 8.498-9.146v-2.656a.978.978 0 0 0-.996-.981c-.557 0-1.009.431-1.009.981v2.577c0 4.462-2.947 7.419-7.488 7.419-4.555 0-7.502-2.957-7.502-7.419v-2.577c0-.55-.438-.981-1.009-.981a.978.978 0 0 0-.996.981v2.656Z"/>
  <path stroke="#667085" stroke-linecap="round" stroke-linejoin="round" stroke-width="2" d="m337.803 777.466-7.861 7.619a2.877 2.877 0 0 0 0 4.156v0a3.102 3.102 0 0 0 4.288 0l10.363-10.044a5.272 5.272 0 0 0 0-7.619v0c-2.171-2.104-5.691-2.104-7.861 0l-10.363 10.044a7.664 7.664 0 0 0 0 11.082v0c3.158 3.061 8.276 3.061 11.434 0l6.289-6.095"/>
  <path fill="#003DF5" d="m400.626 780.202-24.185-11.798a1.533 1.533 0 0 0-2.001.632c-.125.226-.19.48-.19.739v.044c0 .204.025.408.075.606l2.32 9.28a.625.625 0 0 0 .538.469l10.196 1.133a.702.702 0 0 1 .615.694.702.702 0 0 1-.615.694l-10.196 1.134a.625.625 0 0 0-.538.468l-2.32 9.279c-.05.199-.075.402-.075.606v.044a1.526 1.526 0 0 0 1.444 1.522c.258.014.515-.039.747-.152l24.184-11.799a1.997 1.997 0 0 0 .819-2.857 1.996 1.996 0 0 0-.818-.738Z"/>
  <path fill="#fff" fill-opacity=".5" d="M-4.5 812.5h449v39h-449z"/>
  <path stroke="#E3E3E3" d="M-4.5 812.5h449v39h-449z"/>
  <path fill="#667085" d="M126.321 837v-10.909h3.686c.856 0 1.556.154 2.099.463.547.306.952.719 1.214 1.241a3.83 3.83 0 0 1 .394 1.748 3.86 3.86 0 0 1-.394 1.752 2.92 2.92 0 0 1-1.204 1.257c-.543.309-1.239.464-2.088.464h-2.642v-1.172h2.6c.586 0 1.056-.101 1.411-.304.355-.202.613-.476.773-.82.163-.348.245-.741.245-1.177 0-.437-.082-.828-.245-1.172a1.745 1.745 0 0 0-.778-.81c-.359-.199-.834-.298-1.428-.298h-2.322V837h-1.321Zm12.587.17c-.739 0-1.387-.175-1.944-.527-.554-.351-.987-.843-1.3-1.475-.309-.632-.463-1.371-.463-2.216 0-.853.154-1.597.463-2.232.313-.636.746-1.129 1.3-1.481.557-.352 1.205-.527 1.944-.527.739 0 1.385.175 1.939.527.557.352.991.845 1.3 1.481.312.635.468 1.379.468 2.232 0 .845-.156 1.584-.468 2.216a3.534 3.534 0 0 1-1.3 1.475c-.554.352-1.2.527-1.939.527Zm0-1.129c.561 0 1.023-.144 1.385-.431.362-.288.63-.666.804-1.135.174-.469.261-.976.261-1.523 0-.547-.087-1.057-.261-1.529a2.577 2.577 0 0 0-.804-1.145c-.362-.291-.824-.437-1.385-.437s-1.023.146-1.385.437c-.362.291-.63.673-.804 1.145a4.388 4.388 0 0 0-.261 1.529c0 .547.087 1.054.261 1.523.174.469.442.847.804 1.135.362.287.824.431 1.385.431Zm7.202.959-2.493-8.182h1.321l1.768 6.264h.086l1.747-6.264h1.342l1.726 6.243h.085l1.769-6.243h1.321L152.289 837h-1.236l-1.79-6.286h-.128L147.346 837h-1.236Zm13.486.17c-.789 0-1.469-.174-2.041-.522a3.497 3.497 0 0 1-1.315-1.47c-.306-.632-.458-1.367-.458-2.205 0-.838.152-1.577.458-2.216.309-.643.738-1.143 1.289-1.502.554-.362 1.2-.543 1.939-.543.426 0 .847.071 1.262.213.416.142.794.373 1.135.692.341.316.612.735.815 1.257.202.522.303 1.165.303 1.929v.532h-6.306v-1.086h5.028c0-.462-.092-.874-.277-1.236a2.088 2.088 0 0 0-.778-.858c-.334-.209-.728-.314-1.182-.314-.501 0-.934.124-1.3.373a2.446 2.446 0 0 0-.836.959 2.804 2.804 0 0 0-.293 1.267v.725c0 .618.106 1.141.319 1.571.217.426.517.751.901.975.383.22.829.33 1.337.33.33 0 .628-.046.895-.138.269-.096.502-.238.697-.426.196-.192.347-.43.453-.714l1.215.341a2.688 2.688 0 0 1-.645 1.086 3.144 3.144 0 0 1-1.119.725 4.15 4.15 0 0 1-1.496.255Zm5.3-.17v-8.182h1.214v1.236h.085c.15-.405.419-.733.81-.985a2.378 2.378 0 0 1 1.321-.379 12.343 12.343 0 0 1 .661.022v1.278a3.503 3.503 0 0 0-.293-.048 2.883 2.883 0 0 0-.474-.037c-.398 0-.753.083-1.066.25a1.894 1.894 0 0 0-.735.682 1.842 1.842 0 0 0-.266.985V837h-1.257Zm8.762.17c-.788 0-1.468-.174-2.04-.522a3.5 3.5 0 0 1-1.316-1.47c-.305-.632-.458-1.367-.458-2.205 0-.838.153-1.577.458-2.216.309-.643.739-1.143 1.289-1.502.554-.362 1.201-.543 1.939-.543.426 0 .847.071 1.263.213.415.142.793.373 1.134.692.341.316.613.735.815 1.257.203.522.304 1.165.304 1.929v.532h-6.307v-1.086h5.028a2.69 2.69 0 0 0-.276-1.236 2.102 2.102 0 0 0-.778-.858c-.334-.209-.728-.314-1.183-.314-.5 0-.934.124-1.299.373a2.448 2.448 0 0 0-.837.959 2.817 2.817 0 0 0-.293 1.267v.725c0 .618.107 1.141.32 1.571.217.426.517.751.9.975.384.22.829.33 1.337.33.33 0 .629-.046.895-.138.27-.096.502-.238.698-.426a1.95 1.95 0 0 0 .453-.714l1.214.341a2.697 2.697 0 0 1-.644 1.086 3.144 3.144 0 0 1-1.119.725 4.16 4.16 0 0 1-1.497.255Zm8.39 0c-.682 0-1.284-.172-1.806-.516-.522-.348-.93-.838-1.225-1.47-.295-.636-.442-1.387-.442-2.254 0-.859.147-1.605.442-2.237.295-.632.705-1.12 1.23-1.465.526-.344 1.133-.516 1.822-.516.533 0 .953.088 1.262.266.313.174.551.373.714.597.167.22.297.401.389.543h.107v-4.027h1.257V837h-1.215v-1.257h-.149a8.3 8.3 0 0 1-.394.565 2.348 2.348 0 0 1-.73.601c-.316.174-.737.261-1.262.261Zm.17-1.129c.504 0 .931-.131 1.279-.394.348-.266.612-.634.793-1.103.181-.472.272-1.017.272-1.635 0-.611-.089-1.145-.266-1.603-.178-.462-.441-.821-.789-1.076-.348-.259-.778-.389-1.289-.389-.533 0-.976.137-1.332.41-.351.27-.616.637-.793 1.103a4.38 4.38 0 0 0-.261 1.555c0 .582.089 1.112.266 1.587.181.473.448.849.799 1.13.355.277.796.415 1.321.415Zm10.446.959v-10.909h1.257v4.027h.106c.093-.142.221-.323.384-.543.167-.224.405-.423.714-.597.312-.178.735-.266 1.267-.266.689 0 1.297.172 1.822.516.526.345.936.833 1.231 1.465.294.632.442 1.378.442 2.237 0 .867-.148 1.618-.442 2.254-.295.632-.703 1.122-1.225 1.47-.522.344-1.124.516-1.806.516-.526 0-.947-.087-1.263-.261a2.332 2.332 0 0 1-.729-.601 8.372 8.372 0 0 1-.395-.565h-.149V837h-1.214Zm1.236-4.091c0 .618.09 1.163.271 1.635.181.469.446.837.794 1.103.348.263.774.394 1.278.394.526 0 .964-.138 1.316-.415.355-.281.621-.657.799-1.13a4.43 4.43 0 0 0 .272-1.587c0-.575-.089-1.094-.267-1.555-.174-.466-.438-.833-.793-1.103-.352-.273-.794-.41-1.327-.41-.511 0-.941.13-1.289.389-.348.255-.611.614-.788 1.076-.178.458-.266.992-.266 1.603Zm8.426 7.159c-.213 0-.403-.018-.57-.053a1.515 1.515 0 0 1-.346-.096l.32-1.108c.305.078.575.107.81.085a.97.97 0 0 0 .623-.314c.184-.185.353-.485.506-.9l.234-.639-3.025-8.225h1.363l2.259 6.52h.085l2.258-6.52h1.364l-3.473 9.375c-.156.423-.35.773-.581 1.05-.23.28-.498.488-.804.623a2.48 2.48 0 0 1-1.023.202Z"/>
  <path fill="#222" d="M215.779 826.091V837h-1.646v-10.909h1.646Zm3.862 6.051V837h-1.593v-8.182h1.529v1.332h.101c.188-.433.483-.781.884-1.044.405-.263.915-.394 1.529-.394.558 0 1.046.117 1.465.351.419.231.744.575.975 1.034.231.458.346 1.024.346 1.699V837h-1.593v-5.012c0-.593-.154-1.057-.463-1.391-.309-.337-.733-.506-1.273-.506-.369 0-.698.08-.986.24-.284.16-.509.394-.676.703-.163.305-.245.675-.245 1.108Zm11.191-3.324v1.279h-4.469v-1.279h4.469Zm-3.27-1.96h1.592v7.74c0 .309.047.541.139.697a.72.72 0 0 0 .357.315c.149.053.31.08.484.08.128 0 .24-.009.336-.027l.224-.043.287 1.316a3.147 3.147 0 0 1-1.033.171 2.81 2.81 0 0 1-1.172-.224 2.01 2.01 0 0 1-.879-.725c-.223-.326-.335-.736-.335-1.23v-8.07Zm7.413 10.323c-.518 0-.987-.096-1.406-.288a2.367 2.367 0 0 1-.996-.846c-.242-.37-.362-.823-.362-1.359 0-.461.088-.841.266-1.14a1.96 1.96 0 0 1 .719-.708 3.73 3.73 0 0 1 1.012-.394 9.987 9.987 0 0 1 1.14-.203l1.193-.138c.306-.039.528-.101.666-.187.139-.085.208-.223.208-.415v-.037c0-.466-.132-.826-.394-1.082-.26-.255-.647-.383-1.162-.383-.536 0-.958.119-1.267.357-.306.234-.517.495-.634.783l-1.497-.341c.177-.497.437-.899.778-1.204.344-.309.74-.533 1.187-.671a4.642 4.642 0 0 1 1.412-.213c.327 0 .673.039 1.039.117.369.074.714.213 1.033.415.323.203.588.492.794.869.206.372.309.857.309 1.454V837h-1.556v-1.119h-.064a2.268 2.268 0 0 1-.463.608c-.206.198-.47.364-.794.495-.323.131-.71.197-1.161.197Zm.346-1.278c.441 0 .817-.087 1.13-.261.316-.174.555-.402.719-.682.167-.284.25-.588.25-.911v-1.055c-.057.057-.167.11-.33.16-.16.046-.343.087-.549.123-.206.032-.406.062-.602.09a66.2 66.2 0 0 0-.49.064 3.969 3.969 0 0 0-.847.197 1.463 1.463 0 0 0-.607.4c-.149.17-.224.397-.224.682 0 .394.146.692.437.894.291.199.662.299 1.113.299Zm5.813 1.097v-8.182h1.593V837h-1.593Zm.804-9.444c-.277 0-.514-.093-.713-.277a.898.898 0 0 1-.293-.671.89.89 0 0 1 .293-.672c.199-.188.436-.282.713-.282.277 0 .514.094.709.282a.884.884 0 0 1 .298.672.892.892 0 0 1-.298.671.997.997 0 0 1-.709.277Zm6.362 12.683c-.65 0-1.209-.086-1.678-.256-.465-.17-.845-.396-1.14-.677a2.817 2.817 0 0 1-.66-.921l1.369-.565c.095.157.223.322.383.496.163.177.384.328.661.452.28.125.641.187 1.081.187.604 0 1.103-.147 1.497-.442.394-.291.591-.757.591-1.396v-1.608h-.101a3.647 3.647 0 0 1-.416.58 2.233 2.233 0 0 1-.735.554c-.312.156-.719.234-1.22.234-.646 0-1.228-.15-1.747-.452-.515-.306-.923-.755-1.225-1.348-.298-.597-.447-1.33-.447-2.2 0-.87.147-1.616.442-2.237.298-.622.706-1.097 1.225-1.428a3.19 3.19 0 0 1 1.763-.5c.508 0 .918.085 1.23.255.313.167.556.363.73.586.178.224.315.421.41.592h.118v-1.327h1.56v8.363c0 .703-.163 1.28-.49 1.731a2.885 2.885 0 0 1-1.326 1.002c-.554.216-1.179.325-1.875.325Zm-.016-4.683c.458 0 .845-.106 1.161-.319.32-.217.561-.526.725-.927.166-.405.25-.89.25-1.454 0-.551-.082-1.035-.245-1.454-.163-.419-.403-.746-.719-.98-.316-.238-.707-.357-1.172-.357-.479 0-.879.124-1.199.373a2.246 2.246 0 0 0-.724 1.001c-.16.423-.24.895-.24 1.417 0 .536.082 1.007.245 1.411.164.405.405.721.725.949.323.227.721.34 1.193.34Zm9.37 1.609c-.807 0-1.501-.172-2.083-.517a3.504 3.504 0 0 1-1.342-1.464c-.313-.633-.469-1.373-.469-2.222 0-.838.156-1.576.469-2.216a3.632 3.632 0 0 1 1.321-1.496c.568-.359 1.232-.538 1.992-.538.461 0 .909.076 1.342.229.433.152.822.392 1.167.719.344.327.616.751.815 1.273.198.518.298 1.149.298 1.891v.564h-6.504v-1.193h4.943c0-.419-.085-.79-.256-1.113a1.925 1.925 0 0 0-.719-.772c-.305-.189-.664-.283-1.076-.283-.447 0-.838.11-1.171.331-.331.216-.586.5-.768.852a2.466 2.466 0 0 0-.266 1.134v.933c0 .547.096 1.012.288 1.395.195.384.467.677.815.879.348.199.754.298 1.22.298.301 0 .577-.042.825-.127a1.71 1.71 0 0 0 1.06-1.039l1.508.272a2.743 2.743 0 0 1-.65 1.166c-.309.33-.698.588-1.167.772-.465.182-.996.272-1.592.272Zm6.87-5.023V837h-1.593v-8.182h1.529v1.332h.101c.188-.433.483-.781.884-1.044.405-.263.915-.394 1.529-.394.558 0 1.046.117 1.465.351.419.231.744.575.975 1.034.23.458.346 1.024.346 1.699V837h-1.593v-5.012c0-.593-.154-1.057-.463-1.391-.309-.337-.734-.506-1.273-.506-.37 0-.698.08-.986.24-.284.16-.509.394-.676.703-.164.305-.245.675-.245 1.108Zm11.191-3.324v1.279h-4.469v-1.279h4.469Zm-3.27-1.96h1.592v7.74c0 .309.046.541.139.697a.72.72 0 0 0 .357.315c.149.053.31.08.484.08.128 0 .24-.009.336-.027l.224-.043.287 1.316a3.147 3.147 0 0 1-1.033.171 2.81 2.81 0 0 1-1.172-.224 2.01 2.01 0 0 1-.879-.725c-.224-.326-.335-.736-.335-1.23v-8.07Z"/>
  <mask id="a" fill="#fff">
    <path d="M0 0h440v100H0V0Z"/>
  </mask>
  <path fill="#fff" d="M0 0h440v100H0V0Z"/>
  <path fill="#E3E3E3" d="M440 99H0v2h440v-2Z" mask="url(#a)"/>
  <path fill="#667085" d="M52.292 47.583a2.925 2.925 0 0 0-2.917 2.917 2.925 2.925 0 0 0 2.917 2.917 2.925 2.925 0 0 0 2.916-2.917 2.925 2.925 0 0 0-2.916-2.917Zm20.416 0a2.925 2.925 0 0 0-2.916 2.917 2.925 2.925 0 0 0 2.916 2.917 2.925 2.925 0 0 0 2.917-2.917 2.925 2.925 0 0 0-2.917-2.917Zm-10.208 0a2.925 2.925 0 0 0-2.917 2.917 2.925 2.925 0 0 0 2.917 2.917 2.925 2.925 0 0 0 2.917-2.917 2.925 2.925 0 0 0-2.917-2.917Z"/>
  <circle cx="62" cy="51" r="23.5" stroke="#E3E3E3"/>
  <path stroke="#667085" stroke-linecap="round" stroke-linejoin="round" stroke-miterlimit="10" stroke-width="2" d="M370.4 50.5h14"/>
  <path fill="#5A5A5A" d="M113.358 60h-1.847l5.341-14.545h1.818L124.011 60h-1.846l-4.347-12.244h-.113L113.358 60Zm.682-5.682h7.443v1.563h-7.443v-1.563Zm16.413 10c-.81 0-1.506-.104-2.088-.312-.582-.204-1.068-.474-1.456-.81a4.433 4.433 0 0 1-.916-1.065l1.335-.938c.152.199.343.426.575.682.232.26.55.485.952.675.407.194.94.29 1.598.29.881 0 1.608-.212 2.181-.638.572-.426.859-1.094.859-2.003v-2.216h-.142a8.864 8.864 0 0 1-.526.739c-.222.288-.544.547-.966.774-.416.222-.98.334-1.69.334-.881 0-1.671-.209-2.372-.625-.696-.417-1.248-1.023-1.655-1.819-.402-.795-.604-1.761-.604-2.897 0-1.118.197-2.09.59-2.92.393-.833.94-1.477 1.64-1.931.701-.46 1.511-.69 2.429-.69.711 0 1.274.12 1.691.356.421.232.743.497.966.795.227.294.402.536.525.725h.171V49.09h1.619v11.221c0 .938-.213 1.7-.639 2.287a3.643 3.643 0 0 1-1.705 1.3c-.71.28-1.501.42-2.372.42Zm-.057-5.994c.673 0 1.241-.154 1.705-.462.464-.308.817-.75 1.058-1.328.242-.578.362-1.269.362-2.074 0-.786-.118-1.48-.355-2.08-.237-.602-.587-1.073-1.051-1.414-.464-.341-1.037-.511-1.719-.511-.71 0-1.302.18-1.775.54-.469.36-.822.842-1.059 1.448-.232.606-.348 1.279-.348 2.017 0 .758.119 1.428.356 2.01.241.578.596 1.032 1.065 1.364.473.326 1.061.49 1.761.49ZM138.237 60V49.09h1.62v1.649h.113c.199-.54.559-.978 1.08-1.314a3.178 3.178 0 0 1 1.761-.505 17.945 17.945 0 0 1 .881.028v1.705a4.979 4.979 0 0 0-.391-.063 3.834 3.834 0 0 0-.632-.05 2.96 2.96 0 0 0-1.42.334c-.412.217-.739.52-.981.909a2.456 2.456 0 0 0-.355 1.314V60h-1.676Zm7.442 0V49.09h1.676V60h-1.676Zm.852-12.727a1.19 1.19 0 0 1-.845-.334 1.072 1.072 0 0 1-.348-.803c0-.312.116-.58.348-.802a1.19 1.19 0 0 1 .845-.334c.327 0 .606.111.838.334.237.222.355.49.355.802 0 .313-.118.58-.355.803a1.166 1.166 0 0 1-.838.334ZM162.357 50h-1.762a3.649 3.649 0 0 0-.547-1.335 3.633 3.633 0 0 0-.937-.966 3.985 3.985 0 0 0-1.215-.597 4.849 4.849 0 0 0-1.392-.199c-.88 0-1.678.223-2.393.668-.71.445-1.276 1.1-1.698 1.967-.416.867-.625 1.93-.625 3.19 0 1.259.209 2.322.625 3.188.422.867.988 1.522 1.698 1.968a4.437 4.437 0 0 0 2.393.667c.483 0 .947-.066 1.392-.199.445-.132.85-.329 1.215-.59a3.718 3.718 0 0 0 1.484-2.308h1.762a5.885 5.885 0 0 1-.725 1.996 5.448 5.448 0 0 1-1.307 1.499 5.72 5.72 0 0 1-1.754.93 6.542 6.542 0 0 1-2.067.32c-1.24 0-2.343-.303-3.309-.91-.966-.605-1.726-1.467-2.28-2.584-.554-1.118-.831-2.444-.831-3.978 0-1.534.277-2.86.831-3.977.554-1.117 1.314-1.98 2.28-2.585.966-.606 2.069-.91 3.309-.91a6.54 6.54 0 0 1 2.067.32 5.639 5.639 0 0 1 1.754.938c.521.407.957.904 1.307 1.491a5.82 5.82 0 0 1 .725 1.996Zm7.05 10.227c-.985 0-1.849-.234-2.592-.703-.739-.469-1.316-1.124-1.733-1.967-.412-.843-.618-1.828-.618-2.955 0-1.136.206-2.128.618-2.976.417-.847.994-1.505 1.733-1.974.743-.469 1.607-.703 2.592-.703.985 0 1.847.234 2.586.703.743.469 1.321 1.127 1.732 1.974.417.848.625 1.84.625 2.976 0 1.127-.208 2.112-.625 2.955-.411.843-.989 1.498-1.732 1.967-.739.469-1.601.703-2.586.703Zm0-1.505c.748 0 1.364-.192 1.847-.576.483-.383.84-.888 1.072-1.513a5.792 5.792 0 0 0 .348-2.03c0-.73-.116-1.41-.348-2.04-.232-.629-.589-1.138-1.072-1.526-.483-.388-1.099-.582-1.847-.582s-1.363.194-1.846.582a3.437 3.437 0 0 0-1.073 1.527 5.851 5.851 0 0 0-.348 2.038c0 .73.116 1.407.348 2.032.232.624.59 1.129 1.073 1.512.483.384 1.098.576 1.846.576Zm9.178-5.285V60h-1.676V49.09h1.619v1.705h.142a3.121 3.121 0 0 1 1.165-1.335c.521-.34 1.193-.511 2.017-.511.739 0 1.385.151 1.939.454.554.299.985.753 1.293 1.364.308.606.461 1.373.461 2.301V60h-1.676v-6.818c0-.857-.222-1.525-.667-2.003-.445-.483-1.056-.724-1.833-.724a2.92 2.92 0 0 0-1.434.348c-.417.232-.746.57-.988 1.015-.241.445-.362.985-.362 1.62Zm11.699 0V60h-1.676V49.09h1.62v1.705h.142a3.119 3.119 0 0 1 1.164-1.335c.521-.34 1.194-.511 2.017-.511.739 0 1.385.151 1.939.454.554.299.985.753 1.293 1.364.308.606.462 1.373.462 2.301V60h-1.676v-6.818c0-.857-.223-1.525-.668-2.003-.445-.483-1.056-.724-1.832-.724-.536 0-1.014.116-1.435.348-.417.232-.746.57-.987 1.015-.242.445-.363.985-.363 1.62Zm14.455 6.79c-1.022 0-1.903-.241-2.642-.724-.738-.483-1.307-1.148-1.704-1.996-.398-.847-.597-1.816-.597-2.905 0-1.108.204-2.085.611-2.933.412-.852.985-1.517 1.719-1.996.738-.483 1.6-.724 2.585-.724.767 0 1.458.142 2.074.426.615.284 1.12.682 1.513 1.193.393.512.636 1.108.731 1.79h-1.676c-.128-.497-.412-.938-.852-1.321-.436-.388-1.023-.582-1.762-.582-.653 0-1.226.17-1.718.51-.488.337-.869.813-1.144 1.428-.27.611-.405 1.329-.405 2.152 0 .843.133 1.577.398 2.202.27.625.649 1.11 1.136 1.456.493.346 1.07.519 1.733.519.436 0 .831-.076 1.186-.228a2.432 2.432 0 0 0 1.428-1.676h1.676a3.887 3.887 0 0 1-.703 1.74 3.924 3.924 0 0 1-1.47 1.222c-.606.298-1.312.447-2.117.447Zm11.314 0c-1.051 0-1.958-.232-2.72-.696a4.675 4.675 0 0 1-1.754-1.96c-.407-.843-.611-1.823-.611-2.94 0-1.118.204-2.103.611-2.955.412-.857.985-1.525 1.719-2.003.738-.483 1.6-.724 2.585-.724a5.17 5.17 0 0 1 1.683.284c.554.19 1.058.497 1.513.923.454.422.817.98 1.086 1.676.27.696.405 1.553.405 2.571v.71h-8.409v-1.448h6.705c0-.616-.123-1.165-.37-1.648a2.783 2.783 0 0 0-1.036-1.143c-.446-.28-.971-.42-1.577-.42-.668 0-1.245.166-1.733.498a3.266 3.266 0 0 0-1.115 1.278 3.748 3.748 0 0 0-.391 1.69v.966c0 .824.142 1.523.426 2.095a3.072 3.072 0 0 0 1.201 1.3c.511.294 1.105.44 1.782.44.441 0 .838-.061 1.193-.184.36-.128.67-.317.931-.568a2.6 2.6 0 0 0 .604-.952l1.619.455a3.593 3.593 0 0 1-.86 1.448 4.182 4.182 0 0 1-1.491.966c-.592.228-1.257.341-1.996.341Zm11.811-11.136v1.42h-5.653v-1.42h5.653Zm-4.005-2.614h1.676v10.398c0 .474.068.829.206 1.065.142.232.322.389.54.47.222.075.456.113.703.113.184 0 .336-.01.454-.029l.284-.056.341 1.505a3.375 3.375 0 0 1-.476.128 3.492 3.492 0 0 1-.774.071c-.473 0-.937-.102-1.392-.305a2.761 2.761 0 0 1-1.122-.93c-.294-.417-.44-.943-.44-1.577V46.477ZM247.942 50h-1.761a3.649 3.649 0 0 0-.547-1.335 3.633 3.633 0 0 0-.937-.966 3.985 3.985 0 0 0-1.215-.597 4.849 4.849 0 0 0-1.392-.199c-.88 0-1.678.223-2.393.668-.71.445-1.276 1.1-1.698 1.967-.416.867-.625 1.93-.625 3.19 0 1.259.209 2.322.625 3.188.422.867.988 1.522 1.698 1.968a4.437 4.437 0 0 0 2.393.667c.483 0 .947-.066 1.392-.199.445-.132.85-.329 1.215-.59a3.718 3.718 0 0 0 1.484-2.308h1.761a5.863 5.863 0 0 1-.724 1.996 5.448 5.448 0 0 1-1.307 1.499 5.72 5.72 0 0 1-1.754.93 6.542 6.542 0 0 1-2.067.32c-1.24 0-2.344-.303-3.309-.91-.966-.605-1.726-1.467-2.28-2.584-.554-1.118-.831-2.444-.831-3.978 0-1.534.277-2.86.831-3.977.554-1.117 1.314-1.98 2.28-2.585.965-.606 2.069-.91 3.309-.91a6.54 6.54 0 0 1 2.067.32 5.639 5.639 0 0 1 1.754.938c.521.407.957.904 1.307 1.491a5.79 5.79 0 0 1 .724 1.996Zm4.296 3.438V60h-1.677V45.455h1.677v5.34h.142a3.08 3.08 0 0 1 1.15-1.342c.516-.336 1.203-.504 2.06-.504.743 0 1.394.149 1.953.447.559.294.992.746 1.3 1.357.312.606.468 1.378.468 2.315V60h-1.676v-6.818c0-.867-.225-1.537-.674-2.01-.445-.478-1.063-.717-1.854-.717a3.09 3.09 0 0 0-1.477.348c-.431.232-.772.57-1.023 1.015-.246.445-.369.985-.369 1.62Zm13.35 6.818c-.691 0-1.319-.13-1.882-.39a3.23 3.23 0 0 1-1.342-1.144c-.332-.502-.498-1.108-.498-1.819 0-.625.124-1.131.37-1.52.246-.393.575-.7.987-.923a5.182 5.182 0 0 1 1.364-.497 16.61 16.61 0 0 1 1.512-.27 72.061 72.061 0 0 1 1.613-.192c.416-.047.719-.125.909-.234.194-.109.291-.298.291-.568v-.057c0-.7-.192-1.245-.575-1.634-.379-.388-.954-.582-1.726-.582-.8 0-1.428.175-1.882.526-.455.35-.774.724-.959 1.122l-1.591-.568c.284-.663.663-1.18 1.136-1.549a4.262 4.262 0 0 1 1.563-.78 6.487 6.487 0 0 1 1.676-.228c.35 0 .753.043 1.207.128.46.08.902.248 1.328.504.431.256.789.641 1.073 1.158.284.516.426 1.207.426 2.074V60h-1.676v-1.477h-.085c-.114.236-.303.49-.568.76-.266.27-.618.5-1.059.689-.44.189-.977.284-1.612.284Zm.256-1.506c.663 0 1.221-.13 1.676-.39.459-.261.805-.597 1.037-1.01.237-.411.355-.844.355-1.299v-1.534c-.071.085-.227.163-.469.234a7.896 7.896 0 0 1-.824.178 36.964 36.964 0 0 1-1.605.213c-.435.057-.843.15-1.221.277-.374.123-.677.31-.909.561-.228.246-.341.583-.341 1.009 0 .582.215 1.022.646 1.32.436.294.987.441 1.655.441Zm12.548-9.66v1.421h-5.654v-1.42h5.654Zm-4.006-2.613h1.676v10.398c0 .474.069.829.206 1.065.142.232.322.389.54.47.222.075.457.113.703.113.185 0 .336-.01.455-.029l.284-.056.341 1.505a3.453 3.453 0 0 1-.476.128 3.505 3.505 0 0 1-.774.071 3.37 3.37 0 0 1-1.392-.305 2.77 2.77 0 0 1-1.123-.93c-.293-.417-.44-.943-.44-1.577V46.477ZM281.375 60V45.455h1.676v5.369h.142c.123-.19.293-.431.511-.725.223-.298.54-.563.952-.795.417-.237.98-.355 1.69-.355.919 0 1.728.23 2.429.689.701.46 1.248 1.11 1.641 1.953s.589 1.837.589 2.983c0 1.155-.196 2.157-.589 3.004-.393.843-.938 1.496-1.634 1.96-.696.46-1.498.69-2.407.69-.701 0-1.262-.117-1.684-.349-.421-.236-.745-.504-.973-.802a10.777 10.777 0 0 1-.525-.753h-.199V60h-1.619Zm1.647-5.455c0 .824.121 1.551.363 2.18.241.626.594 1.116 1.058 1.471.464.35 1.032.526 1.704.526.701 0 1.286-.185 1.755-.554.473-.374.828-.876 1.065-1.506.241-.634.362-1.34.362-2.117 0-.767-.118-1.458-.355-2.073-.232-.62-.585-1.11-1.058-1.47-.469-.365-1.058-.547-1.769-.547-.681 0-1.254.172-1.718.518-.464.34-.815.82-1.052 1.435-.236.61-.355 1.323-.355 2.137Zm14.979 5.682c-.985 0-1.849-.234-2.592-.703-.739-.469-1.317-1.124-1.733-1.967-.412-.843-.618-1.828-.618-2.955 0-1.136.206-2.128.618-2.976.416-.847.994-1.505 1.733-1.974.743-.469 1.607-.703 2.592-.703.985 0 1.847.234 2.585.703.744.469 1.321 1.127 1.733 1.974.417.848.625 1.84.625 2.976 0 1.127-.208 2.112-.625 2.955-.412.843-.989 1.498-1.733 1.967-.738.469-1.6.703-2.585.703Zm0-1.505c.748 0 1.364-.192 1.847-.576.483-.383.84-.888 1.072-1.513a5.792 5.792 0 0 0 .348-2.03c0-.73-.116-1.41-.348-2.04-.232-.629-.589-1.138-1.072-1.526-.483-.388-1.099-.582-1.847-.582s-1.364.194-1.847.582a3.44 3.44 0 0 0-1.072 1.527 5.851 5.851 0 0 0-.348 2.038c0 .73.116 1.407.348 2.032.232.624.59 1.129 1.072 1.512.483.384 1.099.576 1.847.576Zm12.246-9.631v1.42h-5.653v-1.42h5.653Zm-4.006-2.614h1.677v10.398c0 .474.068.829.206 1.065.142.232.322.389.539.47.223.075.457.113.703.113.185 0 .337-.01.455-.029l.284-.056.341 1.505a3.413 3.413 0 0 1-.476.128 3.492 3.492 0 0 1-.774.071c-.473 0-.937-.102-1.392-.305a2.761 2.761 0 0 1-1.122-.93c-.294-.417-.441-.943-.441-1.577V46.477Z"/>
  <path fill="#FBFBFB" d="M0 98h440v651H0z"/>
</svg>
