<svg id="Layer_1" data-name="Layer 1" xmlns="http://www.w3.org/2000/svg" viewBox="0 0 25 25"><defs><style>.cls-1{fill:#010101;fill-rule:evenodd;}</style></defs><path class="cls-1" d="M25,12.57V6.41a1.29,1.29,0,0,0-1.29-1.29H6.13l-.08-.65A1.27,1.27,0,0,0,4.75,3.4H1.31A1.29,1.29,0,0,0,1.31,6H3.68L5.62,17A1.25,1.25,0,0,0,6.91,18H8.42l.56.69a1.73,1.73,0,1,0,2.75,0l.56-.69h6.46l.56.69a1.8,1.8,0,0,0-.34,1,1.73,1.73,0,1,0,3.1-1l.56-.69h1.08a1.29,1.29,0,0,0,0-2.58H13.41l10.51-1.6A1.32,1.32,0,0,0,25,12.57Zm-.86-6.16v3H19.4V6h4.31a.47.47,0,0,1,.43.43ZM8,15.42l-.91-5.13h4.57v4.56Zm4.52-5.13h6v3.49l-6,1Zm0-.86V6h6V9.43ZM11.65,6V9.43H6.91L6.31,6Zm-.43,13.79a.87.87,0,0,1-1.73,0c0-.13,0-.22,0-.31L10,20a.54.54,0,0,0,.34.18A.41.41,0,0,0,10.7,20l.47-.56C11.17,19.55,11.22,19.64,11.22,19.77Zm-.39-1.3-.48.61-.47-.61L9.54,18h1.63Zm10.72,1.3a.86.86,0,0,1-1.72,0c0-.13,0-.22,0-.31l.48.56a.5.5,0,0,0,.34.18A.41.41,0,0,0,21,20l.47-.56C21.51,19.55,21.55,19.64,21.55,19.77Zm-.38-1.3-.48.61-.47-.61L19.87,18h1.64Zm3-1.72a.4.4,0,0,1-.43.43H6.91a.45.45,0,0,1-.43-.39l-2-11.33A.41.41,0,0,0,4,5.12H1.31a.4.4,0,0,1-.43-.43.4.4,0,0,1,.43-.43H4.75a.45.45,0,0,1,.43.39L7.21,16a.41.41,0,0,0,.43.35H23.71a.4.4,0,0,1,.43.43Zm-4.74-3.1V10.29h4.74v2.28a.45.45,0,0,1-.39.43Z"/></svg>