<svg id="Layer_1" data-name="Layer 1" xmlns="http://www.w3.org/2000/svg" viewBox="0 0 25 25"><defs><style>.cls-1{fill:#010101;}</style></defs><path class="cls-1" d="M13.75,14.05h-2.5a4.9,4.9,0,0,0-3.54,1.53,5.33,5.33,0,0,0-1.46,3.68v2.6a1.29,1.29,0,0,0,.37.92,1.19,1.19,0,0,0,.88.38h10a1.19,1.19,0,0,0,.88-.38,1.29,1.29,0,0,0,.37-.92v-2.6a5.33,5.33,0,0,0-1.46-3.68A4.9,4.9,0,0,0,13.75,14.05Zm3.75,7.16h0a.7.7,0,0,1-.18.46.64.64,0,0,1-.45.19H8.13a.64.64,0,0,1-.63-.65V19.26a3.83,3.83,0,0,1,3.75-3.91h2.5a3.83,3.83,0,0,1,3.75,3.91Z"/><path class="cls-1" d="M5.14,18H1.88a.65.65,0,0,1-.63-.66v-.65a.61.61,0,0,1,0-.19,3.86,3.86,0,0,1,1.25-2.6,2.68,2.68,0,0,1,.3-.28l.28-.19h0a3.05,3.05,0,0,1,.5-.28,4.51,4.51,0,0,1,.65-.22,4.09,4.09,0,0,1,1.56,0h.06a5,5,0,0,1,.65.22,3.05,3.05,0,0,1,.5.28l.28.19.3.28.13.15a7.21,7.21,0,0,1,1-.69,5,5,0,0,0-3.51-1.76A4.92,4.92,0,0,0,1.59,13,5.32,5.32,0,0,0,0,16.65V18a1.33,1.33,0,0,0,.37.92,1.23,1.23,0,0,0,.88.38H5A6.24,6.24,0,0,1,5.14,18Z"/><path class="cls-1" d="M6.64,9.74a7.08,7.08,0,0,1-.33-1.3A2.35,2.35,0,0,1,5,8.84a2.46,2.46,0,0,1-2.13-1.2,2.68,2.68,0,0,1-.15-2.52,2.51,2.51,0,0,1,2-1.47,2.45,2.45,0,0,1,2.24,1,6.13,6.13,0,0,1,.71-1.15,3.64,3.64,0,0,0-3.79-1A3.89,3.89,0,0,0,1.29,5.57,4,4,0,0,0,2.74,9.35a3.62,3.62,0,0,0,3.89.39Z"/><path class="cls-1" d="M20,11.45a4.91,4.91,0,0,0-3.75,1.87,6.39,6.39,0,0,1,1.14.64l.13-.16a3.65,3.65,0,0,1,.3-.27l.28-.2a4.82,4.82,0,0,1,.5-.27,3.83,3.83,0,0,1,.65-.22,4.09,4.09,0,0,1,1.56,0h.07a3.72,3.72,0,0,1,.64.22,3.38,3.38,0,0,1,.5.27l.28.2.3.27a3.88,3.88,0,0,1,1.25,2.61,2,2,0,0,1,0,.35v.49a.68.68,0,0,1-.18.46.64.64,0,0,1-.45.19H19.86A6.9,6.9,0,0,1,20,19.26h3.75a1.23,1.23,0,0,0,.88-.38A1.33,1.33,0,0,0,25,18V16.65A5.35,5.35,0,0,0,23.54,13,4.93,4.93,0,0,0,20,11.45Z"/><path class="cls-1" d="M20,2.34a3.68,3.68,0,0,0-2.65,1.14,6.13,6.13,0,0,1,.71,1.15,2.45,2.45,0,0,1,2.57-.95A2.55,2.55,0,0,1,22.5,5.73a2.65,2.65,0,0,1-1,2.62,2.41,2.41,0,0,1-2.72.09,5.77,5.77,0,0,1-.33,1.3,3.61,3.61,0,0,0,3.28,0,3.86,3.86,0,0,0,2-2.68A4,4,0,0,0,23,3.76,3.66,3.66,0,0,0,20,2.34Z"/><path class="cls-1" d="M12.5,12.75A4.9,4.9,0,0,0,16,11.22a5.37,5.37,0,0,0,0-7.36A4.88,4.88,0,0,0,9,3.86a5.37,5.37,0,0,0,0,7.36A4.9,4.9,0,0,0,12.5,12.75Zm0-9.11A3.74,3.74,0,0,1,16,6.05a4,4,0,0,1-.81,4.25,3.65,3.65,0,0,1-4.09.85A3.92,3.92,0,0,1,8.75,7.54,3.82,3.82,0,0,1,12.5,3.64Z"/></svg>