<?xml version="1.0" encoding="utf-8"?>
<!-- Generator: Adobe Illustrator 19.0.0, SVG Export Plug-In . SVG Version: 6.00 Build 0)  -->
<svg version="1.1" id="Layer_1" xmlns="http://www.w3.org/2000/svg" xmlns:xlink="http://www.w3.org/1999/xlink" x="0px" y="0px"
	 viewBox="0 0 389 80" enable-background="new 0 0 389 80" xml:space="preserve">
<g id="XMLID_23_">
	<path id="XMLID_24_" fill="#00256C" d="M100.8,48.1c0.8-1.8,1.3-2.9,1.7-4.1l2.3-0.2l4.8,10.8c0.6,1.3,1.4,3,2,4.3l-3.6,0.2
		l-1.4-3.4h-5.6c-0.3,0.8-1,2.6-1.3,3.3H96L100.8,48.1z M101.7,53.4h3.9l-2-4.9L101.7,53.4z"/>
	<path id="XMLID_28_" fill="#00256C" d="M117,59.3c-1.6,0-3.5-0.5-4.6-1.2l0.1-3.1c0.9,0.8,2.8,1.6,4.6,1.6c1.2,0,2-0.6,2-1.7
		c0-2.3-6.2-2.6-6.2-6.6c0-2.8,2.1-4.5,5-4.5c1.5,0,3.1,0.5,4,1.1l-0.7,2.6c-0.9-0.5-2.1-1-3.2-1c-1.1,0-1.8,0.6-1.8,1.6
		c0,2.2,6.2,2.4,6.2,6.6C122.3,57.5,120.2,59.3,117,59.3z"/>
	<path id="XMLID_31_" fill="#00256C" d="M124.8,58.9c0.1-1,0.1-3.7,0.1-5.1v-4.6c0-1.3,0-4.1-0.1-5.1c0.8,0,2.9,0,3.6-0.1
		c-0.1,0.6-0.1,2.3-0.1,3.1v8.7c0,0.8,0,2.4,0.1,3H124.8z"/>
	<path id="XMLID_33_" fill="#00256C" d="M135,48.1c0.8-1.8,1.3-2.9,1.7-4.1l2.3-0.2l4.8,10.8c0.6,1.3,1.4,3,2,4.3l-3.6,0.2l-1.4-3.4
		h-5.6c-0.3,0.8-1,2.6-1.3,3.3h-3.5L135,48.1z M136,53.4h3.9l-2-4.9L136,53.4z"/>
	<path id="XMLID_36_" fill="#00256C" d="M147.6,53.8l0-4.9c0-1.3,0-3.9-0.1-4.9l2.1-0.2l7.9,9.5v-4.2c0-1.3,0-4.1-0.2-5.1
		c0.8,0,2.8,0,3.5-0.1c-0.1,0.6-0.1,2.3-0.1,3.1l-0.1,8.8c0,0.8,0,2.5,0,3.1l-2,0.2l-7.9-9.5v6.1c0,0.8,0,2.4,0.1,3h-3.5
		C147.5,57.9,147.6,55.2,147.6,53.8z"/>
	<path id="XMLID_38_" fill="#00256C" d="M173.7,58.9h-5.1c0.1-1,0.1-3.7,0.1-5.1v-4.6c0-1.3,0-4-0.1-5c0.8,0,2.4-0.1,4.6-0.1
		c5.4,0,8.4,2.9,8.4,7.1C181.6,55.8,178.4,58.9,173.7,58.9z M173.5,46.6c-0.5,0-0.9,0-1.4,0.1c0,0.3,0,0.8,0,1.1v7.4
		c0,0.3,0,0.7,0,1c0.5,0.1,0.8,0.1,1.4,0.1c3.4,0,4.7-2.2,4.7-4.9C178.2,48.4,176.5,46.6,173.5,46.6z"/>
	<path id="XMLID_43_" fill="#00256C" d="M193.7,59c-1.3-0.1-3-0.1-4.6-0.1c-1.7,0-3.5,0-5,0.1c0.1-1,0.1-3.8,0.1-5.1v-4.6
		c0-1.3,0-4.2-0.1-5.2c1.4,0.1,3,0.1,4.7,0.1c1.6,0,3.2,0,4.5-0.1c-0.1,0.9-0.2,1.7-0.2,2.8c-1.1,0-2.3,0-3.7,0c-0.6,0-1.3,0-1.9,0
		c0,0.3,0,0.8,0,1.1V50l4.8,0c0,0.7-0.1,1.6-0.1,2.5l-4.7,0v2.7c0,0.3,0,0.8,0,1.1c0.6,0,1.3,0,1.9,0c1.6,0,2.9,0,4.2-0.1
		C193.7,57.1,193.7,57.9,193.7,59z"/>
	<path id="XMLID_46_" fill="#00256C" d="M198.2,44l3.8,10.2l2.4-6.6c0.4-1.2,0.9-2.4,1.2-3.5h3.6l-4.5,10.8
		c-0.8,1.8-1.2,2.9-1.6,4.1l-2.2,0.2l-4.5-10.7c-0.5-1.3-1.3-3-1.8-4.3L198.2,44z"/>
	<path id="XMLID_48_" fill="#00256C" d="M220.5,59c-1.3-0.1-3-0.1-4.6-0.1c-1.7,0-3.5,0-5,0.1c0.1-1,0.1-3.8,0.1-5.1v-4.6
		c0-1.3,0-4.2-0.1-5.2c1.4,0.1,3,0.1,4.7,0.1c1.6,0,3.2,0,4.5-0.1c-0.1,0.9-0.2,1.7-0.2,2.8c-1.1,0-2.3,0-3.7,0c-0.6,0-1.3,0-1.9,0
		c0,0.3,0,0.8,0,1.1V50l4.8,0c0,0.7-0.1,1.6-0.1,2.5l-4.7,0v2.7c0,0.3,0,0.8,0,1.1c0.6,0,1.3,0,1.9,0c1.6,0,2.9,0,4.2-0.1
		C220.6,57.1,220.5,57.9,220.5,59z"/>
	<path id="XMLID_50_" fill="#00256C" d="M232.4,59c-1.4-0.1-3-0.1-4.6-0.1c-1.7,0-3.4,0-4.8,0.1c0.1-1,0.1-3.8,0.1-5.2v-4.6
		c0-1.3,0-4.1-0.1-5.1c0.8,0,2.9,0,3.6-0.1c-0.1,0.6-0.1,2.3-0.1,3.1V55c0,0.3,0,0.8,0,1.2c0.5,0,1.1,0,1.7,0c1.6,0,3,0,4.3-0.1
		C232.5,57,232.4,57.9,232.4,59z"/>
	<path id="XMLID_52_" fill="#00256C" d="M233.5,51.9c0-4.6,3.1-8.1,7.7-8.1c4.4,0,7.3,3.3,7.3,7.4c0,4.6-3.1,8.1-7.7,8.1
		C236.4,59.3,233.5,55.9,233.5,51.9z M245.1,51.6c0-3.2-1.8-5.1-4.2-5.1c-2.5,0-4.2,2.3-4.2,5c0,3.2,1.8,5.1,4.2,5.1
		C243.5,56.6,245.1,54.3,245.1,51.6z"/>
	<path id="XMLID_55_" fill="#00256C" d="M254.5,55.9c0,0.8,0,2.4,0.1,3H251c0.1-1,0.1-3.7,0.1-5.1v-4.6c0-1.3,0-4.1-0.1-5.1
		c0.8,0,3.4-0.1,4.7-0.1c4.1,0,6.2,2,6.2,4.7c0,3-2,5.4-6.5,5.4c-0.3,0-0.5,0-0.8,0V55.9z M255.7,46.7c-0.4,0-0.7,0-1.2,0v4.9
		c0.3,0,0.6,0,0.9,0c2,0,3.1-0.9,3.1-2.5C258.5,47.5,257.6,46.7,255.7,46.7z"/>
	<path id="XMLID_58_" fill="#00256C" d="M263.8,53.8l0.6-4.7c0.2-1.3,0.5-4,0.6-5.1l2.1-0.1c0.4,0.9,0.9,2.1,1.4,3l3.3,7.1l3.2-7.2
		c0.4-0.9,1-2.2,1.3-3h2.1c0.1,1.2,0.5,3.9,0.7,5.3l0.7,4.7c0.2,1.4,0.6,4,0.9,5.1l-3.4,0.2c0-0.6-0.2-2.4-0.4-3.2l-0.7-5.4
		c-1,2.4-3.4,7.9-3.7,8.6l-1.5,0.1l-3.7-8.6l-0.7,5.3c-0.1,0.8-0.3,2.4-0.3,3h-3.3C263.2,57.8,263.6,55.2,263.8,53.8z"/>
	<path id="XMLID_60_" fill="#00256C" d="M292.6,59c-1.3-0.1-3-0.1-4.6-0.1c-1.7,0-3.5,0-5,0.1c0.1-1,0.1-3.8,0.1-5.1v-4.6
		c0-1.3,0-4.2-0.1-5.2c1.4,0.1,3,0.1,4.7,0.1c1.6,0,3.2,0,4.5-0.1c-0.1,0.9-0.2,1.7-0.2,2.8c-1.1,0-2.3,0-3.7,0c-0.6,0-1.3,0-1.9,0
		c0,0.3,0,0.8,0,1.1V50l4.8,0c0,0.7-0.1,1.6-0.1,2.5l-4.7,0v2.7c0,0.3,0,0.8,0,1.1c0.6,0,1.3,0,1.9,0c1.6,0,2.9,0,4.2-0.1
		C292.6,57.1,292.6,57.9,292.6,59z"/>
	<path id="XMLID_62_" fill="#00256C" d="M295.1,53.8l0-4.9c0-1.3,0-3.9-0.1-4.9l2.1-0.2l7.9,9.5v-4.2c0-1.3,0-4.1-0.2-5.1
		c0.8,0,2.8,0,3.5-0.1c-0.1,0.6-0.1,2.3-0.1,3.1l-0.1,8.8c0,0.8,0,2.5,0,3.1l-2,0.2l-7.9-9.5v6.1c0,0.8,0,2.4,0.1,3h-3.5
		C295,57.9,295.1,55.2,295.1,53.8z"/>
	<path id="XMLID_64_" fill="#00256C" d="M323.2,46.9c-1.5,0-2.8,0-4.6,0c0,0.5,0,1,0,1.3v7.7c0,0.8,0,2.4,0.1,3h-3.6
		c0.1-1,0.1-3.7,0.1-5.1v-3.7c0-0.8,0-2.2,0-3.3c-1.7,0-3.2,0-4.7,0c0.1-0.8,0.1-1.9,0.1-2.9c2,0.1,3.9,0.1,6.3,0.1
		c2.4,0,4.4,0,6.4-0.1C323.3,44.9,323.2,45.8,323.2,46.9z"/>
	<path id="XMLID_66_" fill="#00256C" d="M330,58.9c0.1-1,0.1-3.7,0.1-5.1v-4.6c0-1.3,0-4-0.1-5c0.7,0,3.1-0.1,5-0.1
		c4,0,5.4,2,5.4,3.8c0,1.6-1,2.7-2.4,3.2c2,0.5,3,1.9,3,3.5c0,2.4-1.9,4.3-5.7,4.3H330z M334.7,50.2c1.6,0,2.5-0.7,2.5-1.8
		c0-1.2-0.9-1.8-2.5-1.8c-0.6,0-1,0-1.4,0.1v3.6C333.6,50.1,334.4,50.2,334.7,50.2z M335.1,56.4c1.7,0,2.7-0.6,2.7-2
		c0-1.2-0.9-2-3.1-2c-0.5,0-1,0-1.4,0.1v3.9C333.9,56.3,334.5,56.4,335.1,56.4z"/>
	<path id="XMLID_70_" fill="#00256C" d="M346.7,48.1c0.8-1.8,1.3-2.9,1.7-4.1l2.3-0.2l4.8,10.8c0.6,1.3,1.4,3,2,4.3l-3.6,0.2
		l-1.4-3.4h-5.6c-0.3,0.8-1,2.6-1.3,3.3H342L346.7,48.1z M347.6,53.4h3.9l-2-4.9L347.6,53.4z"/>
	<path id="XMLID_73_" fill="#00256C" d="M359.3,53.8l0-4.9c0-1.3,0-3.9-0.1-4.9l2.1-0.2l7.9,9.5v-4.2c0-1.3,0-4.1-0.2-5.1
		c0.8,0,2.8,0,3.5-0.1c-0.1,0.6-0.1,2.3-0.1,3.1l-0.1,8.8c0,0.8,0,2.5,0,3.1l-2,0.2l-7.9-9.5v6.1c0,0.8,0,2.4,0.1,3h-3.5
		C359.2,57.9,359.3,55.2,359.3,53.8z"/>
	<path id="XMLID_75_" fill="#00256C" d="M379.4,52.1v3.7c0,0.8,0,2.4,0.1,3h-3.6c0.1-1,0.1-3.7,0.1-5.1v-4.6c0-1.3,0-4.1-0.1-5.1
		c0.8,0,2.9,0,3.6-0.1c-0.1,0.6-0.1,2.3-0.1,3.1v3.5l2.2-2.7c0.9-1,2.1-2.6,3.1-3.8h4l-6.2,7.1l3.4,4.1c0.8,0.9,2.3,2.6,3.1,3.6
		l-3.9,0.3L379.4,52.1z"/>
</g>
<g id="XMLID_1_">
	<g id="XMLID_22_">
		<polygon id="XMLID_80_" fill-rule="evenodd" clip-rule="evenodd" fill="#002569" points="0,0 80,0 80,80 0,80 0,0 		"/>
	</g>
	<g id="XMLID_2_">
		<path id="XMLID_18_" fill="#FFFFFF" d="M52.9,39.5c-1.5-2.2-3.6-3.9-6.4-4.8c-0.7-0.2-1.5-0.4-2.2-0.5c-0.7-0.1-1.5-0.2-2.3-0.2
			c-0.4,0-0.9,0-1.4,0c-0.5,0-0.9,0-1.4,0c-0.4,0-0.8,0-1.3,0c-0.4,0-0.9,0-1.3,0c-0.4,0-0.9,0-1.3,0c-0.4,0-0.9,0-1.3,0
			c-0.4,0-0.8,0-1.3,0c-0.4,0-0.9,0-1.3,0c-0.4,0-0.9,0-1.3,0c-0.4,0-0.9,0-1.3,0v1.2c0,0,0,0,0.1,0c0,0,0,0,0.1,0
			c1.2,0.1,2.2,0.2,2.8,0.5c0.7,0.3,1,1.2,1,2.6v17.4c0,1.4-0.3,2.3-1,2.6c-0.5,0.2-1.2,0.4-2,0.5c-0.6-0.1-1.2-0.3-1.6-0.6
			c-0.5-0.4-1-1.1-1.4-1.9L17,33.5h-1.4L6.2,56.2c-0.4,1-0.9,1.7-1.6,2.1c-0.6,0.3-1.5,0.5-2.6,0.5V60h9v-1.2h-0.8
			c-0.1,0-0.2,0-0.3,0c-0.1,0-0.2,0-0.3,0c-0.4,0-0.9-0.1-1.2-0.4c-0.4-0.2-0.6-0.6-0.6-1.1c0-0.2,0-0.4,0.1-0.5
			c0.1-0.2,0.1-0.3,0.2-0.5l2-5.1h10.4l2.1,5.1c0.1,0.2,0.2,0.4,0.3,0.7c0.1,0.2,0.1,0.5,0.1,0.7c0,0.4-0.2,0.7-0.4,0.8
			c-0.3,0.2-0.6,0.3-1,0.3c-0.2,0-0.3,0-0.5,0c-0.1,0-0.3,0-0.4,0h-0.9V60h9.2h1.6h11.7c3.9,0,7-1.2,9.4-3.5
			c2.4-2.4,3.6-5.5,3.6-9.3C55.2,44.3,54.4,41.8,52.9,39.5z M10.6,49.5l4.2-10.5c0-0.1,0.1-0.2,0.1-0.2c0-0.1,0.1-0.2,0.1-0.2
			c0-0.1,0.1-0.2,0.1-0.3c0-0.1,0.1-0.2,0.1-0.3c0.1,0.4,0.2,0.8,0.4,1.3c0.2,0.4,0.3,0.8,0.5,1.3c0,0.1,0.1,0.2,0.1,0.3
			c0.1,0.1,0.1,0.2,0.1,0.3l3.4,8.3H10.6z M48.5,55.2c-1.3,2.3-3.7,3.5-7.2,3.5c-1.8,0-3.1-0.2-3.7-0.7c-0.6-0.5-0.9-1.7-0.9-3.6
			V35.3c0.2,0,0.5,0,0.7-0.1c0.2,0,0.5,0,0.7,0c0.2,0,0.4,0,0.7,0c0.2,0,0.5,0,0.7,0c3.8,0,6.6,1.1,8.4,3.2c1.8,2.1,2.6,5,2.6,8.8
			C50.6,50.1,49.9,52.8,48.5,55.2z"/>
		<path id="XMLID_14_" fill="#FFFFFF" d="M67.9,45.9c2.1,0.1,4,0.7,5.8,1.8c1.7,1.1,2.6,2.9,2.6,5.2c0,2.2-0.8,4-2.3,5.2
			c-1.5,1.3-3.3,1.9-5.4,1.9H55.2v-1.2c0,0,0,0,0.1,0c0,0,0,0,0.1,0c1.3-0.1,2.2-0.2,2.8-0.5c0.6-0.3,1-1.2,1-2.6V38.3
			c0-1.4-0.3-2.3-1-2.6c-0.7-0.3-1.6-0.5-2.8-0.5c0,0,0,0-0.1,0c0,0,0,0-0.1,0v-1.2h12.6c1.8,0,3.4,0.5,4.8,1.4
			c1.4,0.9,2.2,2.4,2.2,4.3c0,2.1-0.7,3.6-2.1,4.5C71.3,45,69.7,45.6,67.9,45.9L67.9,45.9z M63.1,46.7v9c0,1.3,0.4,2.1,1.1,2.4
			c0.7,0.4,1.6,0.5,2.7,0.5c1.9,0,3.2-0.6,3.9-1.9c0.7-1.2,1.1-2.7,1.1-4.4c0-2.9-0.9-4.5-2.7-5C67.3,46.9,65.3,46.7,63.1,46.7
			L63.1,46.7z M63.1,45.4c2,0,3.8-0.2,5.3-0.7c1.5-0.5,2.2-1.9,2.2-4.4c0-1.6-0.3-2.8-0.9-3.7c-0.6-0.9-1.8-1.4-3.5-1.4h-3.1V45.4
			L63.1,45.4z"/>
	</g>
</g>
</svg>
