<?xml version="1.0" encoding="UTF-8" standalone="no"?>
<!-- Created with Inkscape (http://www.inkscape.org/) -->

<svg
   xmlns:dc="http://purl.org/dc/elements/1.1/"
   xmlns:cc="http://creativecommons.org/ns#"
   xmlns:rdf="http://www.w3.org/1999/02/22-rdf-syntax-ns#"
   xmlns:svg="http://www.w3.org/2000/svg"
   xmlns="http://www.w3.org/2000/svg"
   xmlns:sodipodi="http://sodipodi.sourceforge.net/DTD/sodipodi-0.dtd"
   xmlns:inkscape="http://www.inkscape.org/namespaces/inkscape"
   width="453.14999"
   height="58.422489"
   viewBox="0 0 119.89593 15.457617"
   version="1.1"
   id="svg43712"
   inkscape:version="0.92.0 r15299"
   sodipodi:docname="bookings.svg">
  <defs
     id="defs43706" />
  <sodipodi:namedview
     id="base"
     pagecolor="#ffffff"
     bordercolor="#666666"
     borderopacity="1.0"
     inkscape:pageopacity="0.0"
     inkscape:pageshadow="2"
     inkscape:zoom="1.7776793"
     inkscape:cx="225.575"
     inkscape:cy="28.211244"
     inkscape:document-units="mm"
     inkscape:current-layer="layer1"
     showgrid="false"
     inkscape:window-width="1280"
     inkscape:window-height="744"
     inkscape:window-x="-4"
     inkscape:window-y="-4"
     inkscape:window-maximized="1"
     fit-margin-top="0"
     fit-margin-left="0"
     fit-margin-right="0"
     fit-margin-bottom="0"
     units="px" />
  <metadata
     id="metadata43709">
    <rdf:RDF>
      <cc:Work
         rdf:about="">
        <dc:format>image/svg+xml</dc:format>
        <dc:type
           rdf:resource="http://purl.org/dc/dcmitype/StillImage" />
        <dc:title></dc:title>
      </cc:Work>
    </rdf:RDF>
  </metadata>
  <g
     inkscape:label="Layer 1"
     inkscape:groupmode="layer"
     id="layer1"
     transform="translate(39.272671,-314.70901)">
    <path
       style="fill:#013d79;fill-opacity:1;stroke-width:0.46782979"
       inkscape:connector-curvature="0"
       id="path2"
       d="m -37.534424,317.17705 c 0,-0.86548 0,-1.19764 -0.107601,-1.28653 -0.107601,-0.0889 -0.421046,-0.15906 -1.366063,-0.20116 v -0.38362 c 0.27602,0 1.576587,0.0421 2.339149,0.0421 0.46783,0 0.842094,0 1.34735,-0.0421 0.505256,-0.0421 1.07133,-0.0608 1.599978,-0.0608 1.403489,0 2.549672,0.14502 3.274808,0.63157 a 3.3262697,3.3262697 0 0 1 1.497055,2.83972 c 0,1.59998 -1.033903,2.73681 -2.886509,3.43388 a 0.52864766,0.52864766 0 0 0 -0.360229,0.14502 c 0,0.0842 0.145027,0.0842 0.63157,0.19181 1.97892,0.39766 3.274809,1.55788 3.274809,3.4292 a 3.564863,3.564863 0 0 1 -1.997633,3.17656 6.549617,6.549617 0 0 1 -2.989433,0.58946 c -0.523969,0 -1.118113,0 -1.707579,-0.0608 -0.589465,-0.0608 -1.160217,-0.0421 -1.684187,-0.0421 -0.739171,0 -2.039738,0.0421 -2.339149,0.0421 V 329.205 c 0.93566,-0.0421 1.244427,-0.0608 1.370741,-0.18714 0.126315,-0.12631 0.107601,-0.42104 0.107601,-1.28653 v -10.55424 z m 1.684187,4.91222 c 0.46783,0.0421 1.160218,0.0842 1.936816,0.0842 a 3.3075565,3.3075565 0 0 0 1.89471,-0.37895 2.9660408,2.9660408 0 0 0 1.450273,-2.65259 3.6818205,3.6818205 0 0 0 -1.160218,-2.7368 c -0.654962,-0.56608 -1.497056,-0.73918 -2.526281,-0.73918 -1.202323,0 -1.431559,0.0842 -1.515769,0.25263 -0.03743,0.0889 -0.07953,0.29941 -0.07953,1.22572 z m 0,5.64202 c 0,1.01052 0,1.20233 0.107601,1.30525 0.107601,0.10292 0.589466,0.18713 1.871319,0.18713 1.160218,0 1.960207,-0.21052 2.549673,-0.67367 a 3.3636961,3.3636961 0 0 0 1.221035,-2.73681 c 0,-1.82921 -0.842093,-3.24206 -3.831526,-3.24206 -0.884198,0 -1.431559,0.0421 -1.918102,0.0842 z m 12.631404,0.0234 c 0,0.86081 0,1.20233 0.107601,1.28654 0.107601,0.0842 0.444439,0.12631 1.515769,0.18713 v 0.40233 c -0.397656,0 -1.599978,-0.0421 -2.465463,-0.0421 -0.739171,0 -2.044416,0.0421 -2.339149,0.0421 v -0.40233 c 0.935659,-0.0421 1.244427,-0.0608 1.370741,-0.18713 0.126314,-0.12632 0.107601,-0.42105 0.107601,-1.28654 v -10.57763 c 0,-0.86548 0,-1.19764 -0.107601,-1.28653 -0.107601,-0.0889 -0.421047,-0.14502 -1.370741,-0.19181 v -0.39297 c 0.27602,0 1.576586,0.0421 2.339149,0.0421 0.378942,0 0.842093,0 1.34735,-0.0655 0.505256,-0.0655 1.07133,-0.0561 1.408167,-0.0561 1.53916,0 2.806979,0.21053 3.644394,0.7766 a 3.4946886,3.4946886 0 0 1 1.642083,2.92862 c 0,1.7029 -1.197644,2.77891 -3.012824,3.34498 -0.566074,0.19181 -0.692388,0.21052 -0.692388,0.27602 0,0.0655 0.0655,0.0842 0.145027,0.10292 l 0.318124,0.0842 c 2.966041,0.8187 3.32627,3.01282 3.410479,5.26309 0,0.71578 0.0655,0.93566 0.149706,1.01051 0.08421,0.0748 0.336838,0.14503 1.366063,0.18713 v 0.40233 c -1.871319,-0.0421 -2.339149,-0.0421 -3.24206,-0.0421 v -1.745 c 0,-2.67599 -0.336838,-3.34966 -1.136827,-4.06544 -0.799989,-0.71579 -1.581264,-0.95906 -3.139138,-0.95906 h -1.366063 z m 0,-5.55781 a 20.158786,20.158786 0 0 0 2.189444,0.14502 c 2.423358,0 3.32627,-1.745 3.32627,-3.21867 a 3.2748085,3.2748085 0 0 0 -1.305246,-2.7368 c -0.63157,-0.50525 -1.492377,-0.71578 -2.863118,-0.71578 -1.052617,0 -1.244427,0.12632 -1.286532,0.23392 -0.0421,0.1076 -0.0655,0.29473 -0.0655,1.24443 v 5.05256 z m 16.4816432,-7.1999 c 3.555508,0 7.09697703,2.65259 7.09697703,7.45253 0,4.79993 -3.53679103,7.45253 -7.09697703,7.45253 -3.5601832,0 -7.0829422,-2.6526 -7.0829422,-7.45253 0,-4.79994 3.527437,-7.45253 7.0829422,-7.45253 z m 0,0.44444 c -3.1391383,0 -5.1788742,2.96604 -5.1788742,7.01744 0,4.05141 2.0397359,7.01745 5.1788742,7.01745 3.139139,0 5.178878,-2.97072 5.178878,-7.01745 0,-4.04672 -2.039739,-7.02212 -5.178878,-7.02212 z m 15.957675,-0.44444 c 3.5601848,0 7.0922988,2.65259 7.0922988,7.45253 0,4.79993 -3.532114,7.45253 -7.0922988,7.45253 -3.560186,0 -7.092299,-2.6526 -7.092299,-7.45253 0,-4.79994 3.536794,-7.45253 7.092299,-7.45253 z m 0,0.44444 c -3.139139,0 -5.178875,2.96604 -5.178875,7.01744 0,4.05141 2.039736,7.01745 5.178875,7.01745 3.1391378,0 5.1788748,-2.97072 5.1788748,-7.01745 0,-4.04672 -2.021023,-7.02212 -5.1788748,-7.02212 z m 11.5366818,12.28989 c 0,0.8608 0,1.20232 0.102923,1.28653 0.102923,0.0842 0.444439,0.12631 1.515769,0.18713 v 0.40233 c -0.402333,0 -1.599978,-0.0421 -2.465464,-0.0421 -0.734491,0 -2.039736,0.0421 -2.315758,0.0421 v -0.40233 c 0.93566,-0.0421 1.23975,-0.0608 1.366065,-0.18713 0.126312,-0.12632 0.107601,-0.42105 0.107601,-1.28654 v -10.55424 c 0,-0.86548 0,-1.19764 -0.107601,-1.28653 -0.107601,-0.0889 -0.421047,-0.14502 -1.366065,-0.19181 v -0.39297 c 0.271344,0 1.576589,0.0421 2.315758,0.0421 0.865486,0 2.063131,-0.0421 2.465464,-0.0421 v 0.38362 c -1.07133,0.0655 -1.40349,0.0655 -1.515769,0.19181 -0.112278,0.12631 -0.102923,0.42104 -0.102923,1.28653 v 5.15548 a 4.9636741,4.9636741 0 0 0 0.60818,0.0608 c 0.378941,0 1.071329,-0.84209 3.07364,-3.42919 1.403491,-1.82922 2.002311,-2.77891 2.002311,-2.96604 0,-0.18713 -0.08421,-0.2152 -0.294732,-0.2152 -0.210524,0 -0.71578,-0.0421 -1.239748,-0.0655 v -0.40233 c 0.692388,0 1.450272,0.0421 2.147338,0.0421 0.697068,0 1.618691,-0.0421 1.997633,-0.0421 v 0.38362 a 3.4338707,3.4338707 0 0 0 -1.286531,0.16841 c -0.252627,0.12632 -0.467829,0.37895 -1.305246,1.40349 l -3.321592,4.09351 a 0.30408936,0.30408936 0 0 0 -0.10292,0.16842 0.99179914,0.99179914 0 0 0 0.276018,0.37895 l 5.300512,6.3157 c 0.692388,0.8187 0.842092,0.90291 1.726293,0.98712 v 0.40233 c -0.467831,0 -1.515769,-0.0421 -2.250263,-0.0421 -0.734491,0 -1.642081,0 -2.44207,0.0421 v -0.40233 c 0.523968,0 1.155539,0 1.155539,-0.33684 0,-0.33684 -0.799989,-1.24443 -1.07133,-1.55787 l -3.433871,-4.05141 c -0.336838,-0.42104 -0.467831,-0.50525 -1.539161,-0.54736 z m 14.844239,0 c 0,0.8608 0,1.20232 0.102923,1.28653 0.102923,0.0842 0.444439,0.12631 1.515769,0.18713 v 0.40233 c -0.402333,0 -1.599978,-0.0421 -2.465464,-0.0421 -0.865484,0 -2.063128,0.0421 -2.460784,0.0421 v -0.40233 c 1.076008,-0.0608 1.40349,-0.0608 1.515769,-0.18713 0.112278,-0.12632 0.107601,-0.42105 0.107601,-1.28654 v -10.55424 c 0,-0.86548 0,-1.19764 -0.107601,-1.28653 -0.107601,-0.0889 -0.439761,-0.12631 -1.515769,-0.19181 v -0.39297 c 0.397656,0 1.599978,0.0421 2.460784,0.0421 0.860808,0 2.067809,-0.0421 2.465464,-0.0421 v 0.38362 c -1.07133,0.0655 -1.40349,0.0655 -1.515769,0.19181 -0.112278,0.12631 -0.102923,0.42104 -0.102923,1.28653 z m 8.294624,1.87599 c -0.252629,0 -1.347351,-0.0421 -1.978922,-0.0421 -0.739171,0 -1.768395,0.0421 -2.105234,0.0421 v -0.40233 c 1.305246,-0.0608 1.43156,-0.10292 1.450274,-0.43976 0.08421,-1.43156 0.276019,-9.97881 0.276019,-11.62089 0,-0.86549 0,-1.13683 -0.107601,-1.22104 -0.107601,-0.0842 -0.514612,-0.1497 -1.618692,-0.19181 v -0.39765 h 1.707579 A 18.563486,18.563486 0 0 0 43.5358,315.2075 l 8.608068,11.38698 c 0.102923,0.1497 0.126315,0.16842 0.210524,0.16842 0.08421,0 0.08421,-0.0655 0.08421,-0.19181 0,-2.23155 -0.107601,-7.36832 -0.107601,-9.40806 0,-0.79999 0,-1.13683 -0.102923,-1.24443 -0.102924,-0.1076 -0.467829,-0.14502 -1.791788,-0.23391 v -0.37894 c 0.294732,0 1.305245,0.0421 1.978919,0.0421 0.673677,0 1.646761,-0.0421 1.899391,-0.0421 v 0.38362 c -0.884201,0.0421 -1.136828,0.12631 -1.197645,0.19181 -0.06082,0.0655 -0.08421,0.18713 -0.1076,1.28653 l -0.233916,12.43959 c 0,0.16842 -0.04211,0.27134 -0.187132,0.27134 a 0.57075234,0.57075234 0 0 1 -0.402333,-0.31344 l -9.866532,-13.03374 a 0.46782979,0.46782979 0 0 0 -0.276019,-0.29005 c -0.08421,0 -0.107601,0.0608 -0.107601,0.16841 l 0.06082,11.30745 c 0,0.96841 0,1.16022 0.107601,1.24443 0.107601,0.0842 0.505257,0.18713 1.78711,0.22923 v 0.40234 z m 22.694422,-4.06544 c 0,-0.56607 0,-0.7766 -0.16842,-0.8842 -0.16842,-0.1076 -0.46783,-0.12631 -2.10523,-0.23391 v -0.39766 c 0.8608,0 1.26314,0.0421 2.50289,0.0421 1.51577,0 2.08184,0 2.61049,-0.0421 v 0.40234 c -0.75789,0 -0.93566,0.0421 -1.05262,0.16842 -0.11696,0.12631 -0.1076,0.19181 -0.1076,0.67367 v 3.13446 a 10.512135,10.512135 0 0 1 -5.23969,1.49705 c -3.742643,0 -7.555456,-1.93681 -7.555456,-7.242 0,-4.21047 2.881831,-7.68644 7.705156,-7.68644 a 8.4630408,8.4630408 0 0 1 2.92394,0.56607 10.413891,10.413891 0 0 0 1.37074,0.52397 c 0.14503,0 0.12631,-0.10292 0.21052,-0.8187 h 0.44444 l -0.0842,4.6783 h -0.46783 a 21.407891,21.407891 0 0 0 -0.31812,-2.62921 4.9262477,4.9262477 0 0 0 -3.93445,-1.89471 c -3.27481,0 -5.936762,2.77891 -5.936762,6.98938 0,5.34729 3.555506,7.01745 6.123892,7.01745 a 5.2116239,5.2116239 0 0 0 2.6947,-0.65497 c 0.31812,-0.21052 0.37894,-0.39765 0.37894,-1.07133 v -2.13798 z m 5.82916,2.86312 a 6.1613182,6.1613182 0 0 0 3.19995,1.05262 c 1.95553,0 3.15786,-1.40349 3.15786,-2.90523 0,-1.87132 -1.49706,-2.52628 -2.97072,-3.15785 -2.77891,-1.17893 -4.43971,-1.87132 -4.43971,-4.29467 0,-2.16606 1.72629,-4.10287 4.48181,-4.10287 a 5.1461276,5.1461276 0 0 1 2.33915,0.56607 c 0.75788,0.37894 0.8187,0.52865 0.93566,0.52865 0.11696,0 0.14971,-0.21052 0.19181,-0.82338 h 0.42105 l -0.13567,3.87363 h -0.44444 c 0,-1.66547 -0.0842,-1.89471 -0.25263,-2.17073 a 3.6677857,3.6677857 0 0 0 -3.11575,-1.53448 c -2.06313,0 -2.94732,1.45027 -2.94732,2.80698 0,1.745 1.05261,2.37657 3.49468,3.39176 2.00232,0.8187 4.02334,1.6608 4.02334,4.12626 0,2.37658 -2.16605,4.12626 -4.63151,4.12626 a 12.070009,12.070009 0 0 1 -4.08416,-0.90759 l -0.1497,-3.38241 h 0.40233 z"
       class="cls-1" />
  </g>
</svg>
